<svg width="113" height="73" viewBox="0 0 113 73" fill="none" xmlns="http://www.w3.org/2000/svg">
<path d="M14.655 9.45627C14.655 9.45627 11.424 8.93008 10.372 12.8892L9.75953 15.131L7.53405 14.217C6.59626 13.8355 5.57004 13.6889 4.59366 13.9041C2.9212 14.2691 2.25919 15.3552 2.25919 15.3552C1.32954 16.58 1.22259 18.3884 1.98374 19.9879C2.6305 21.347 3.80014 22.3325 5.11331 22.6147L14.2646 24.6211L18.4793 16.2541C19.0795 15.0613 19.0571 13.5185 18.4147 12.1687C17.658 10.5785 16.1827 9.51164 14.655 9.45627Z" fill="#F2609E" stroke="black" stroke-width="0.8" stroke-miterlimit="10"/>
<path d="M112.406 43.4776C111.263 7.24619 81.6182 7.80528 76.956 8.1232C76.6151 8.14512 76.2742 8.15609 75.9334 8.15609C71.2602 8.13416 41.6377 9.43871 42.7813 45.6701C42.7813 45.6701 41.9016 73.4603 78.3744 72.4189C78.3744 72.4189 78.4404 72.4189 78.4844 72.4189C78.5284 72.4189 78.5504 72.4189 78.5943 72.4189C115.056 71.1582 112.417 43.4776 112.417 43.4776H112.406Z" fill="#4C5EFF" stroke="black" stroke-miterlimit="10"/>
<path d="M77.2199 56.4029C66.4661 56.3481 58.6151 53.9582 54.5247 49.4855C51.171 45.824 51.4679 41.9761 51.4679 41.9432C51.5229 24.2824 70.3805 22.9121 76.1533 22.9121C76.7801 22.9121 77.2089 22.934 77.3738 22.934C77.5717 22.934 77.9236 22.9121 78.4404 22.9121C81.5742 22.9121 92.284 23.3945 98.5076 29.6212C101.641 32.7565 103.225 36.9333 103.214 42.0419C103.214 42.1296 103.489 45.9665 100.124 49.617C96.0226 54.0459 88.1826 56.3919 77.4618 56.3919H77.3738H77.2199V56.4029Z" fill="white"/>
<path d="M76.1533 23.46C76.7691 23.46 77.1869 23.482 77.3518 23.482H77.4068H77.4618C77.6047 23.482 77.9456 23.46 78.4514 23.46C81.5302 23.46 92.0531 23.9314 98.1338 30.0157C101.169 33.0413 102.697 37.0975 102.675 42.0526V42.0965V42.1403C102.686 42.2938 102.917 45.8238 99.6952 49.277C95.6927 53.5853 88.0067 55.8545 77.4618 55.8545H77.2309C66.653 55.7997 58.956 53.4757 54.9645 49.1454C51.7648 45.6703 52.0177 42.1403 52.0287 41.9978V41.954V41.9101C52.0837 24.8084 70.5125 23.482 76.1643 23.482M76.1533 22.3638C70.7874 22.3638 50.9731 23.6025 50.9181 41.8882C50.9181 41.8882 49.5437 56.8083 77.2089 56.9508C77.2089 56.9508 77.2089 56.9508 77.2199 56.9508C77.2419 56.9508 77.2639 56.9508 77.2859 56.9508C77.3079 56.9508 77.3408 56.9508 77.3628 56.9508C77.3628 56.9508 77.4178 56.9508 77.4398 56.9508C105.039 56.9508 103.753 42.0526 103.753 42.0526C103.808 23.5148 83.4655 22.3638 78.4294 22.3638C77.9016 22.3638 77.5388 22.3747 77.3958 22.3857C77.2309 22.3857 76.7911 22.3638 76.1423 22.3638H76.1533Z" fill="#2942AA"/>
<path d="M58.6261 44.3984L57.2516 46.5581" stroke="#EFA0B5" stroke-miterlimit="10" stroke-linecap="round"/>
<path d="M61.2321 44.2998L59.8576 46.4485" stroke="#EFA0B5" stroke-miterlimit="10" stroke-linecap="round"/>
<path d="M64.2229 44.0913L62.8485 46.24" stroke="#EFA0B5" stroke-miterlimit="10" stroke-linecap="round"/>
<path d="M92.284 44.3438L90.9095 46.5034" stroke="#EFA0B5" stroke-miterlimit="10" stroke-linecap="round"/>
<path d="M94.89 44.2451L93.5155 46.3938" stroke="#EFA0B5" stroke-miterlimit="10" stroke-linecap="round"/>
<path d="M97.8808 44.0366L96.5063 46.1963" stroke="#EFA0B5" stroke-miterlimit="10" stroke-linecap="round"/>
<path d="M67.2629 43.9597C68.75 43.9128 69.8907 41.8292 69.8107 39.3057C69.7307 36.7823 68.4604 34.7746 66.9733 34.8214C65.4862 34.8683 64.3455 36.9519 64.4255 39.4754C64.5055 41.9988 65.7758 44.0065 67.2629 43.9597Z" fill="black"/>
<path d="M87.2102 43.9567C88.6973 43.9099 89.838 41.8262 89.758 39.3028C89.678 36.7793 88.4077 34.7716 86.9206 34.8185C85.4335 34.8653 84.2928 36.949 84.3728 39.4724C84.4528 41.9959 85.7231 44.0036 87.2102 43.9567Z" fill="black"/>
<path d="M71.4975 42.9917L82.8763 43.1937C83.2721 43.2007 83.596 43.5354 83.589 43.93L83.5851 44.1492C83.525 47.5142 80.7389 50.1839 77.3748 50.1242L76.7591 50.1132C73.384 50.0533 70.7062 47.2757 70.7661 43.9216L70.77 43.7024C70.7771 43.3078 71.1127 42.9849 71.5085 42.9919L71.4975 42.9917Z" fill="black"/>
<path d="M81.9701 46.8323C80.8705 48.3451 79.1442 49.2988 77.2089 49.266C75.1197 49.2331 73.3054 48.0381 72.2938 46.2622L81.9701 46.8323Z" fill="#DC0000"/>
<path d="M102.158 12.5413C102.092 12.5413 102.026 12.5632 101.96 12.5632C94.3622 3.02574 81.2223 -1.69914 68.1264 1.58964C54.2608 5.05383 44.6175 16.444 43.2101 29.3141C42.7042 29.5004 42.4294 29.6101 42.3964 29.621C41.7146 29.8841 41.3738 30.6515 41.6377 31.3312C41.8796 31.9561 42.5503 32.2959 43.1991 32.1424C43.254 32.1315 43.309 32.1205 43.353 32.0986C51.5998 26.9462 79.463 15.567 102.488 15.1614C103.225 15.1504 103.731 14.4049 103.632 13.6814C103.544 12.9579 102.873 12.4426 102.147 12.5413H102.158Z" fill="#F2C873" stroke="black" stroke-miterlimit="10"/>
<path d="M97.2321 8.85791C71.0622 11.9713 52.4355 20.4125 45.0244 24.2604C44.7605 25.2251 44.5405 26.2008 44.3756 27.1874C50.1374 24.0082 70.2705 14.0871 99.4642 10.9408C98.7934 10.2173 97.9578 9.5047 97.2211 8.85791H97.2321Z" fill="white"/>
<g clip-path="url(#clip0_57_10521)">
<path d="M44.0107 53.4094C43.6287 53.2035 35.6208 47.9306 29.7634 44.0859C26.4386 41.9026 25.7029 37.4674 28.1364 34.3641C30.6689 31.1509 35.4935 30.7665 38.5212 33.5539L50.519 44.6214" fill="#4C5EFF"/>
<path d="M44.0107 53.4094C43.6287 53.2035 35.6208 47.9306 29.7634 44.0859C26.4386 41.9026 25.7029 37.4674 28.1364 34.3641C30.6689 31.1509 35.4935 30.7665 38.5212 33.5539L50.519 44.6214" stroke="black" stroke-miterlimit="10"/>
</g>
<g clip-path="url(#clip1_57_10521)">
<path d="M16.649 26.9023C16.649 26.9023 24.3143 29.3188 19.7973 35.992C15.2803 42.6652 24.3955 45.1061 24.3955 45.1061" stroke="black" stroke-miterlimit="10"/>
</g>
<defs>
<clipPath id="clip0_57_10521">
<rect width="25" height="23" fill="white" transform="matrix(-1 0 0 1 51 31)"/>
</clipPath>
<clipPath id="clip1_57_10521">
<rect width="11" height="18" fill="white" transform="translate(16.6727 26.1714) rotate(10.1534)"/>
</clipPath>
</defs>
</svg>
