<svg width="128" height="150" viewBox="0 0 128 150" fill="none" xmlns="http://www.w3.org/2000/svg">
<path d="M62.5 149.999C79.8945 149.999 94 146.645 94 142.499C94 138.353 79.8945 134.999 62.5 134.999C45.1055 134.999 31 138.353 31 142.499C31 146.645 45.1055 149.999 62.5 149.999Z" fill="#ECEEF5"/>
<path d="M64.3318 139.196C64.3318 139.196 66.1843 141.567 69.6123 140.901C73.0402 140.234 74.2435 137.819 73.6202 135.084L63.2324 134.746L63.8039 138.2L64.3318 139.196Z" fill="white" stroke="#111111" stroke-width="1.2" stroke-miterlimit="10"/>
<path d="M82.7096 87.9492C82.7096 87.9492 88.4835 90.4509 91.3661 96.7009C91.3661 96.7009 91.0804 88.9101 97.3304 88.6244C103.58 88.3388 103.58 96.0344 103.58 97.1857C103.58 98.337 103.58 108.439 95.5039 109.59C87.4274 110.742 86.3626 104.206 86.3626 104.206L78.8574 89.6805L82.7009 87.9492H82.7096Z" fill="white" stroke="#111111" stroke-width="1.2" stroke-miterlimit="10"/>
<path d="M53.2771 110.802C53.2771 110.802 50.8965 122.194 55.6403 126.678C55.6403 126.678 53.7791 126.617 52.9481 126.678C52.1171 126.738 49.8058 127.578 49.8664 130.781C49.927 133.984 51.5371 140.398 59.2933 141.939C59.2933 141.939 65.2404 143.013 64.5652 136.044C64.5652 136.044 71.828 138.061 75.3858 135.083C75.3858 135.083 93.0191 134.027 89.4613 117.865C89.4613 117.865 92.1621 112.949 89.9374 105.262C88.5956 100.648 84.1462 94.6833 80.4412 91.0303L56.3155 92.8049L53.2771 110.802Z" fill="white" stroke="#111111" stroke-width="1.2" stroke-miterlimit="10"/>
<path d="M77.9925 117.866C77.9925 117.866 84.1992 129.604 75.3955 135.084L77.9925 117.866Z" fill="white"/>
<path d="M77.9925 117.866C77.9925 117.866 84.1992 129.604 75.3955 135.084" stroke="#111111" stroke-width="1.2" stroke-miterlimit="10"/>
<path d="M66.0811 110.508C67.3622 112.438 69.2753 114.083 70.998 114.68C72.2791 115.122 73.5343 114.948 74.7462 114.715C75.9408 114.481 77.1268 114.187 78.2954 113.84C79.4986 113.485 80.7106 113.061 81.6801 112.144C85.5063 108.569 83.0738 98.0596 81.6108 92.1299C78.053 94.8394 73.8633 96.0686 69.5956 96.6486C67.4748 96.9429 65.3106 97.0641 63.1465 97.1507C62.6098 97.168 60.5842 96.7784 60.3072 97.4277C60.0042 98.1375 61.1555 100.527 61.4585 101.349C62.6444 104.535 64.2372 107.72 66.0811 110.499V110.508Z" fill="#FBCDCA"/>
<path d="M54.5826 91.6484C54.5826 91.6484 49.1662 88.2478 42.7379 97.01C36.3097 105.772 35.1788 107.088 33.5462 107.477C31.9136 107.865 28.1298 108.13 28.0023 113.103C27.8747 118.076 33.1636 121.874 39.0901 120.823C45.0167 119.772 54.8377 111.796 57.3546 101.585C57.3546 101.585 59.999 93.998 54.5826 91.6396V91.6484Z" fill="white" stroke="#111111" stroke-width="1.2" stroke-miterlimit="10"/>
<path d="M101.512 63.2197C100.675 58.4879 98.7317 53.8051 96.5553 50.1708C94.6375 46.9768 92.2025 44.0112 89.4577 41.5092C87.9572 40.1417 86.1631 38.9863 84.4994 37.8379C83.6513 37.2578 82.7939 36.6801 81.9318 36.1234C81.6126 35.9161 79.7626 35.0519 79.7136 34.7374C79.1145 31.1145 78.6994 27.515 77.4293 24.0599C74.381 15.752 67.9566 5.50605 57.6239 7.30808C56.2098 7.55285 54.8259 8.0376 53.6564 8.86481C51.0448 10.7359 49.8919 14.1633 50.0413 17.3738C50.1908 20.5843 51.4702 23.6409 52.9196 26.5064C54.3621 29.3836 56.0026 32.1816 56.9675 35.2476C56.2196 35.3851 48.289 36.8537 48.4242 37.5923C47.5104 32.751 45.7532 27.7839 43.0292 23.6231C40.5801 19.8886 36.9126 16.746 32.5394 15.9287C28.3526 15.144 23.742 16.7427 21.1073 20.105C18.631 23.2691 18.4055 27.4349 19.8294 31.1089C21.2766 34.8365 24.2102 38.2518 26.566 41.4551C27.0018 42.0491 30.7859 46.4894 30.2174 47.0673C24.5565 52.8598 22.479 59.796 21.2171 67.7758C20.8143 70.3224 20.8192 72.9155 21.1619 75.4736C21.2785 76.3356 21.4324 77.1883 21.6165 78.0434C21.6655 78.2391 21.7074 78.4464 21.7564 78.6421C24.4322 89.6573 34.3184 97.3145 45.1804 99.4499C55.5624 101.487 67.0156 99.415 76.9987 96.3339C77.2736 96.2454 77.5485 96.1568 77.8258 96.0776C80.1159 95.3364 82.3758 94.4742 84.5121 93.3556C92.0068 89.4314 98.2826 81.9007 101.017 73.8695C102.121 70.6029 102.153 66.8915 101.503 63.2221L101.512 63.2197Z" fill="white" stroke="#111111" stroke-width="1.2" stroke-miterlimit="10"/>
<path d="M61.9002 67.4684C59.7534 68.0437 57.6316 68.2013 55.6879 68.0008C55.6519 68.7866 55.7295 69.5875 55.9464 70.3968C56.9782 74.2474 60.6249 76.6121 64.0921 75.683C67.5594 74.754 69.5352 70.8828 68.5034 67.0322C68.2866 66.2229 67.9534 65.4904 67.5293 64.8279C65.9547 65.9711 64.0384 66.8955 61.8831 67.473L61.8916 67.4707L61.9002 67.4684Z" stroke="#111111" stroke-width="1.2" stroke-miterlimit="10"/>
<path d="M43.9375 60.3535C43.9375 60.3535 47.8555 59.3037 52.1935 61.506C52.1935 61.506 48.401 63.2986 46.1096 66.5008" stroke="#111111" stroke-width="1.2" stroke-miterlimit="10"/>
<path d="M73.8809 52.3301C73.8809 52.3301 69.9628 53.3799 67.3072 57.4561C67.3072 57.4561 71.4879 57.1124 75.0734 58.7398" stroke="#111111" stroke-width="1.2" stroke-miterlimit="10"/>
<path d="M63.0701 59.9784C63.0418 59.966 63.0143 59.9563 62.9874 59.9493C62.7586 59.8826 62.5198 59.8925 62.2846 59.9157C60.9329 60.0502 59.4642 60.5348 58.2283 61.0908C57.7724 61.2954 57.291 61.5496 57.0801 61.9846C56.8673 62.4229 56.9912 62.9474 57.2702 63.3364C57.5519 63.7247 57.9672 64.0004 58.3826 64.2562C59.2208 64.7742 60.2068 65.264 61.1975 65.0356C62.065 64.8344 62.7081 64.1272 63.2011 63.4089C63.6728 62.7248 64.2926 61.7649 63.9304 60.8689C63.789 60.517 63.4336 60.1228 63.0694 59.9757L63.0701 59.9784Z" fill="#F39D94"/>
<path d="M43.4022 71.378L42.529 74.4155" stroke="#EFA0B5" stroke-width="1.2" stroke-miterlimit="10"/>
<path d="M45.6465 70.7766L44.7849 73.811" stroke="#EFA0B5" stroke-width="1.2" stroke-miterlimit="10"/>
<path d="M47.9168 70.1681L47.0436 73.2055" stroke="#EFA0B5" stroke-width="1.2" stroke-miterlimit="10"/>
<path d="M76.9217 62.3966L76.0485 65.4341" stroke="#EFA0B5" stroke-width="1.2" stroke-miterlimit="10"/>
<path d="M79.1767 61.7923L78.3151 64.8266" stroke="#EFA0B5" stroke-width="1.2" stroke-miterlimit="10"/>
<path d="M81.4355 61.1868L80.5739 64.2212" stroke="#EFA0B5" stroke-width="1.2" stroke-miterlimit="10"/>
<path d="M29.3244 34.1904C28.4553 32.8136 27.4929 31.3412 27.5603 29.7103C27.6276 27.7626 29.27 26.0942 31.1548 25.6327C33.0513 25.1782 35.0759 25.7908 36.6743 26.9159C38.2634 28.0434 39.4634 29.6346 40.4911 31.2886C41.9661 33.6626 43.1569 36.2859 43.3878 39.07C43.4112 39.3612 43.4159 39.6967 43.2342 39.9204C43.106 40.0812 42.9103 40.1697 42.7309 40.2443C41.0745 40.9458 39.4181 41.6472 37.7523 42.351C36.401 42.9266 34.9963 44.1196 33.978 42.9385C33.0297 41.8389 32.5052 39.7817 31.8131 38.4794C31.0325 37.021 30.2099 35.5929 29.3244 34.1904Z" fill="#F49E95"/>
<path d="M58.9469 24.157C58.3573 22.631 57.7024 21.0025 58.0774 19.4135C58.5245 17.5193 60.4512 16.1958 62.3919 16.1164C64.3327 16.037 66.2153 17.0316 67.5574 18.4387C68.8995 19.8458 69.7757 21.6467 70.4679 23.4639C71.4374 26.0336 72.1995 29.0017 72.1788 31.7696C72.1766 32.2355 72.1347 32.7411 71.8132 33.079C71.4125 33.4961 70.7578 33.4915 70.1777 33.4682C68.442 33.4172 66.7062 33.6037 65.0171 34.0163C64.0014 34.2703 62.487 34.7877 61.8206 33.6275C61.1005 32.3718 60.9838 30.2423 60.5596 28.8235C60.0749 27.2416 59.5458 25.6807 58.9422 24.1384L58.9469 24.157Z" fill="#F49E95"/>
<path d="M47.209 122.724C45.9698 124.085 43.8773 127.968 45.4207 132.606" stroke="#111111" stroke-width="1.2"/>
<path d="M41.2627 128.295C40.7915 129.36 40.3392 132.515 42.299 136.618" stroke="#111111" stroke-width="1.2"/>
<path d="M114 85L117.13 77L126.5 77.5L123.913 85" stroke="#383838" stroke-width="1.2" stroke-miterlimit="10"/>
<ellipse cx="112.5" cy="84" rx="2.5" ry="2" fill="#383838" stroke="#383838" stroke-width="1.2" stroke-miterlimit="10"/>
<ellipse cx="121.5" cy="85" rx="2.5" ry="2" fill="#383838" stroke="#383838" stroke-width="1.2" stroke-miterlimit="10"/>
<ellipse cx="4.18198" cy="61.6679" rx="2.5" ry="2" transform="rotate(-45 4.18198 61.6679)" fill="#383838" stroke="#383838" stroke-width="1.2" stroke-miterlimit="10"/>
<path d="M6.5 54.4858C5.83333 53.4858 3.8 51.9858 1 53.9858L6.5 60.4858" stroke="#383838" stroke-width="1.2" stroke-miterlimit="10"/>
</svg>
