<svg width="127" height="90" viewBox="0 0 127 90" fill="none" xmlns="http://www.w3.org/2000/svg">
<path d="M63.77 89.3346C98.6861 89.3346 127 85.5842 127 80.9471C127 76.31 98.6861 72.5596 63.77 72.5596C28.8539 72.5596 0.540039 76.31 0.540039 80.9471C0.540039 85.5842 28.8539 89.3346 63.77 89.3346Z" fill="#ECEEF5"/>
<path d="M110.475 45.6808L110.312 45.9731L110.476 46.265L113.252 51.2266C114.229 53.3416 114.877 56.3161 113.891 60.6062L97.0399 61.7297L97.3888 56.1466L97.4001 55.966L97.3096 55.8092L93.7764 49.6895C93.4113 49.0572 92.912 46.8557 94.9727 44.1013C96.2471 42.3978 99.3535 40.25 102.529 39.1757C104.109 38.6412 105.647 38.3937 106.938 38.5647C108.208 38.7329 109.221 39.2989 109.859 40.4042L109.884 40.4472L109.915 40.4855C110.614 41.334 111.659 43.548 110.475 45.6808Z" fill="#CB8E62" stroke="#111111" stroke-width="1.2"/>
<path d="M104.812 59.5598L104.945 59.9792H105.384H118.565C119.295 59.9792 121.451 60.6475 122.806 63.8093C123.644 65.7647 123.951 69.5289 123.294 72.8164C122.966 74.452 122.412 75.9073 121.618 76.94C120.838 77.9553 119.841 78.5498 118.565 78.5498H118.515L118.466 78.5579C117.382 78.7386 114.942 78.5363 113.687 76.4446L113.513 76.1533H113.173H91.6049H91.2993L91.1196 76.4004C89.6023 78.4867 84.7733 82.7435 77.8253 82.7435C69.1848 82.7435 63.5521 79.9448 61.1807 75.6534L86.4716 48.598C89.0064 48.6346 92.8506 49.2089 96.4206 50.8196C100.109 52.4839 103.443 55.2231 104.812 59.5598Z" fill="#CB8E62" stroke="#111111" stroke-width="1.2"/>
<path d="M48.5506 4.64002L48.5509 4.64026C50.4328 6.15452 52.2867 6.85833 54.1702 7.2979C55.1045 7.51593 56.0503 7.66977 56.998 7.82362L57.0149 7.82636C57.9629 7.98024 58.9164 8.13503 59.9031 8.35616C63.866 9.24546 67.7065 10.8618 71.1757 13.1525C80.0301 19.0022 83.7615 28.532 86.7693 39.0059C87.6692 42.1434 88.3702 45.5447 88.5684 48.9375C89.0077 56.4696 85.8546 63.8389 81.1617 69.2497L81.1543 69.2551L81.1104 69.3055C75.1264 76.173 66.0836 80.5274 57.5017 81.1052C45.0449 81.9413 30.8812 82.2331 19.7736 75.7936C11.0164 70.7154 4.27478 61.7221 3.60452 50.6338C3.59179 50.396 3.57927 50.162 3.56926 49.9284C3.52908 48.9323 3.5266 47.931 3.56425 46.9329L3.56426 46.9327C3.67473 43.9789 4.13908 41.0423 5.00929 38.2572C7.82701 29.2459 11.5899 20.9466 18.7531 15.4625L18.7532 15.4624C21.546 13.3236 24.6065 11.6273 27.8122 10.3662L27.8125 10.366C29.4656 9.71479 31.1572 9.17913 32.8723 8.75374L32.873 8.75355C33.098 8.69745 33.3674 8.6588 33.6845 8.61956C33.7453 8.61203 33.808 8.60448 33.872 8.59675C34.1296 8.56569 34.4098 8.5319 34.6823 8.48653C35.3444 8.3763 36.1343 8.17521 36.6799 7.61027L37.1628 7.11027L36.5976 6.70561C35.8272 6.154 35.4034 5.08968 35.5868 4.03769C35.7713 2.98791 36.4917 2.08234 37.3877 1.58779L37.3878 1.58776C37.8241 1.34689 38.2514 1.22862 38.6317 1.27658C39.2956 1.36178 39.8259 1.9001 40.5296 2.71354C40.5572 2.74538 40.585 2.7776 40.6131 2.81012C40.9167 3.16193 41.2508 3.54893 41.6154 3.8773C42.0188 4.2405 42.4963 4.56733 43.0787 4.71966L43.8489 4.92107L43.8304 4.12523C43.8208 3.71388 44.0386 3.35108 44.4167 3.09546C44.8028 2.83444 45.2989 2.7294 45.7162 2.81572L45.7175 2.81599C46.1909 2.91277 46.6424 3.15217 47.114 3.48763C47.4404 3.71984 47.7434 3.97228 48.0638 4.23915C48.2204 4.36956 48.3811 4.50341 48.5506 4.64002Z" fill="#CB8E62" stroke="#111111" stroke-width="1.2"/>
<path d="M26.5177 74.2294C20.3552 72.3261 14.5143 68.3595 11.8332 62.4426C10.065 58.5394 9.79296 54.0672 10.4652 49.8298C11.3755 44.1007 14.0566 38.5788 18.3908 34.7668C23.3004 30.4466 29.7272 28.9218 35.9761 30.8195C39.9363 32.0211 44.0482 32.2089 48.1522 31.9382C51.9685 31.6868 55.3323 30.3637 59.0518 29.6703C64.2597 28.7008 69.4388 30.6703 73.4408 33.9989C77.7907 37.6176 80.3384 43.9018 81.5364 49.3878C83.0849 56.4676 80.8903 64.4425 75.4209 69.4257C71.3482 73.1355 65.9729 75.2763 60.4983 76.2763C49.6955 78.2541 36.991 77.4641 26.523 74.2322L26.5177 74.2294Z" fill="white"/>
<path d="M27.2136 52.3203L25.584 55.0283" stroke="#EFA0B5" stroke-width="1.2" stroke-miterlimit="10"/>
<path d="M29.5375 52.3203L27.9199 55.0283" stroke="#EFA0B5" stroke-width="1.2" stroke-miterlimit="10"/>
<path d="M31.8874 52.3203L30.2578 55.0283" stroke="#EFA0B5" stroke-width="1.2" stroke-miterlimit="10"/>
<path d="M61.9147 52.3203L60.2852 55.0283" stroke="#EFA0B5" stroke-width="1.2" stroke-miterlimit="10"/>
<path d="M64.2504 52.3203L62.6328 55.0283" stroke="#EFA0B5" stroke-width="1.2" stroke-miterlimit="10"/>
<path d="M66.5883 52.3203L64.9707 55.0283" stroke="#EFA0B5" stroke-width="1.2" stroke-miterlimit="10"/>
<path d="M19.2779 40.162C20.8539 36.3522 24.6555 33.2194 28.8383 32.8306C32.493 32.4894 37.1391 32.5565 39.2404 36.1033C40.4125 38.0809 40.3899 40.7606 38.9918 42.5899C37.8395 44.1004 35.967 44.8836 34.1368 45.4234C32.3038 45.9633 30.3889 46.3381 28.7423 47.2975C27.3696 48.0975 26.1862 49.3003 24.6385 49.6695C22.4355 50.1954 20.0772 48.7409 19.1254 46.7045C18.1708 44.6682 18.4221 42.2403 19.2807 40.1648L19.2779 40.162Z" fill="#CB8E62"/>
<path d="M34.6909 42.6034C35.6769 42.6034 36.4882 41.5319 36.4882 40.207C36.4882 38.882 35.6894 37.8105 34.6909 37.8105C33.6924 37.8105 32.8936 38.882 32.8936 40.207C32.8936 41.5319 33.6924 42.6034 34.6909 42.6034Z" fill="#111111"/>
<path d="M72.8705 40.162C71.2945 36.3522 67.493 33.2194 63.3101 32.8306C59.6554 32.4894 55.0094 32.5565 52.9081 36.1033C51.736 38.0809 51.7586 40.7606 53.1566 42.5899C54.3089 44.1004 56.1815 44.8836 58.0117 45.4234C59.8447 45.9633 61.7596 46.3381 63.4062 47.2975C64.7788 48.0975 65.9622 49.3003 67.5099 49.6695C69.7129 50.1954 72.0712 48.7409 73.023 46.7045C73.9777 44.6682 73.7263 42.2403 72.8677 40.1648L72.8705 40.162Z" fill="#CB8E62"/>
<path d="M57.4576 42.6034C56.4715 42.6034 55.6602 41.5319 55.6602 40.207C55.6602 38.882 56.459 37.8105 57.4576 37.8105C58.4561 37.8105 59.2549 38.882 59.2549 40.207C59.2549 41.5319 58.4561 42.6034 57.4576 42.6034Z" fill="#111111"/>
<path d="M49.0572 39.4002C49.0331 39.3809 49.009 39.3644 48.9848 39.3507C48.7811 39.227 48.5479 39.1748 48.3146 39.1363C46.9743 38.9165 45.4301 39.0044 44.0924 39.2215C43.5992 39.3012 43.0684 39.4222 42.752 39.7877C42.433 40.156 42.4169 40.6947 42.5858 41.1427C42.7574 41.5907 43.0871 41.9645 43.4222 42.319C44.0978 43.0363 44.9235 43.7647 45.9395 43.8004C46.8295 43.8306 47.6337 43.3139 48.2959 42.7478C48.9285 42.2091 49.7757 41.4423 49.6577 40.4831C49.6121 40.1065 49.3709 39.6338 49.0572 39.3974V39.4002Z" fill="#8F5933"/>
<path d="M52.0642 46.1982C52.0642 49.1762 49.6502 51.5902 46.6723 51.5902C43.6943 51.5902 41.2803 49.1762 41.2803 46.1982" stroke="#111111" stroke-width="1.2"/>
<path d="M32.9888 66.2641C35.6355 70.8483 33.3274 77.3517 27.4984 80.717C21.6694 84.0824 14.8833 82.8296 12.2366 78.2454C9.58988 73.6612 11.898 67.1578 17.727 63.7924C23.5559 60.4271 30.3421 61.6799 32.9888 66.2641Z" fill="#CB8E62" stroke="#111111" stroke-width="1.2"/>
<path d="M82.0677 75.7542C80.6977 80.8672 74.467 83.8337 67.9656 82.0917C61.4642 80.3496 57.5516 74.6652 58.9216 69.5522C60.2916 64.4392 66.5223 61.4727 73.0237 63.2147C79.5251 64.9568 83.4377 70.6412 82.0677 75.7542Z" fill="#CB8E62" stroke="#111111" stroke-width="1.2"/>
<path d="M113.173 33.6172C114.571 34.8154 117.127 38.4101 116.168 43.2029" stroke="#111111" stroke-width="1.2"/>
<path d="M119.763 38.4102C120.362 39.4087 121.201 42.4841 119.763 46.7977" stroke="#111111" stroke-width="1.2"/>
</svg>
