<svg width="138" height="126" viewBox="0 0 138 126" fill="none" xmlns="http://www.w3.org/2000/svg">
<path d="M68 126C97.8192 126 122 122.646 122 118.5C122 114.354 97.8192 111 68 111C38.1808 111 14 114.354 14 118.5C14 122.646 38.1808 126 68 126Z" fill="#ECEEF5"/>
<path d="M55.2383 42.8807C55.2383 42.8807 66.4575 30.5243 81.8761 32.0704C81.8761 32.0704 85.9771 32.3403 84.1544 38.3406C82.3318 44.3409 81.3219 45.9728 81.3219 45.9728L66.556 47.6048L55.2383 42.8807Z" fill="#CAE3FB" stroke="#111111" stroke-width="1.2" stroke-miterlimit="10"/>
<path fill-rule="evenodd" clip-rule="evenodd" d="M137.109 11.9595C135.668 18.3401 130.57 24.3158 123.156 27.3098C121.41 28.0148 119.641 28.5123 117.885 28.8143C118.313 32.1598 123.47 78.4345 83.9188 97.7423C42.8722 117.78 4.28856 93.9262 1.13587 75.5205C-2.01683 57.1148 18.7836 61.3358 18.7836 61.3358C20.0151 46.0591 39.0421 35.9727 50.3968 39.7888C61.7514 43.605 72.2932 44.4271 72.2932 44.4271C92.3091 44.4271 100.741 27.8711 101.885 25.4064C99.876 24.1578 97.9789 22.5826 96.2964 20.6715C91.0131 14.6835 89.1412 7.06355 90.7176 0.719709C97.2323 -0.0287898 104.572 2.79342 109.855 8.78141C110.915 9.97165 111.826 11.2232 112.602 12.5239C113.784 11.8122 115.04 11.1742 116.37 10.6343C123.784 7.64026 131.616 8.38876 137.109 11.9595Z" fill="#CAE3FB"/>
<path d="M123.156 27.3098L122.931 26.7535L123.156 27.3098ZM137.109 11.9595L137.694 12.0916L137.786 11.6841L137.436 11.4564L137.109 11.9595ZM117.885 28.8143L117.784 28.223L117.217 28.3204L117.29 28.8905L117.885 28.8143ZM83.9188 97.7423L84.182 98.2815L83.9188 97.7423ZM1.13587 75.5205L1.72725 75.4192L1.13587 75.5205ZM18.7836 61.3358L18.6643 61.9238L19.3273 62.0584L19.3816 61.384L18.7836 61.3358ZM50.3968 39.7888L50.2056 40.3576L50.3968 39.7888ZM72.2932 44.4271L72.2466 45.0253L72.2699 45.0271H72.2932V44.4271ZM101.885 25.4064L102.429 25.6591L102.653 25.1772L102.202 24.8968L101.885 25.4064ZM96.2964 20.6715L96.7467 20.275L96.7463 20.2745L96.2964 20.6715ZM90.7176 0.719709L90.6491 0.123631L90.2356 0.171133L90.1353 0.575018L90.7176 0.719709ZM109.855 8.78141L109.406 9.17838L109.407 9.18027L109.855 8.78141ZM112.602 12.5239L112.086 12.8313L112.395 13.3486L112.911 13.038L112.602 12.5239ZM116.37 10.6343L116.146 10.0779L116.145 10.0783L116.37 10.6343ZM123.381 27.8662C130.956 24.807 136.205 18.6854 137.694 12.0916L136.524 11.8273C135.131 17.9948 130.184 23.8247 122.931 26.7535L123.381 27.8662ZM117.987 29.4056C119.785 29.0964 121.595 28.5872 123.381 27.8662L122.931 26.7535C121.225 27.4425 119.497 27.9282 117.784 28.223L117.987 29.4056ZM84.182 98.2815C104.162 88.5278 112.846 71.9546 116.476 57.438C120.103 42.9343 118.699 30.4449 118.48 28.7381L117.29 28.8905C117.5 30.5291 118.888 42.8499 115.312 57.1469C111.74 71.4309 103.227 87.6489 83.6556 97.2031L84.182 98.2815ZM0.544478 75.6218C1.36165 80.3925 4.45575 85.4435 9.21315 90.0083C13.9784 94.5805 20.4502 98.7029 28.1042 101.609C43.4179 107.422 63.4986 108.378 84.182 98.2815L83.6556 97.2031C63.2924 107.144 43.558 106.192 28.5301 100.487C21.0132 97.633 14.6826 93.5932 10.044 89.1424C5.39754 84.6841 2.48643 79.8513 1.72725 75.4192L0.544478 75.6218ZM18.7836 61.3358C18.9029 60.7478 18.9026 60.7477 18.9022 60.7476C18.902 60.7476 18.9015 60.7475 18.901 60.7474C18.9001 60.7472 18.8988 60.747 18.8972 60.7466C18.8941 60.746 18.8897 60.7451 18.884 60.744C18.8727 60.7418 18.8565 60.7387 18.8355 60.7347C18.7935 60.7268 18.7325 60.7155 18.6538 60.7018C18.4964 60.6744 18.2681 60.637 17.9799 60.5963C17.4038 60.5149 16.5867 60.42 15.6169 60.3648C13.6834 60.2548 11.1133 60.3009 8.62695 60.9452C6.1396 61.5898 3.68489 62.8476 2.06878 65.1994C0.448349 67.5575 -0.261461 70.9166 0.544478 75.6218L1.72725 75.4192C0.956844 70.9215 1.66482 67.9061 3.05778 65.879C4.45505 63.8457 6.60931 62.7077 8.92798 62.1068C11.2477 61.5057 13.6806 61.4566 15.5487 61.5629C16.4796 61.6158 17.2629 61.7069 17.8121 61.7845C18.0865 61.8232 18.302 61.8586 18.4477 61.884C18.5206 61.8967 18.576 61.9069 18.6125 61.9138C18.6308 61.9173 18.6444 61.9199 18.653 61.9216C18.6574 61.9224 18.6605 61.9231 18.6624 61.9234C18.6633 61.9236 18.6639 61.9238 18.6643 61.9238C18.6644 61.9238 18.6644 61.9238 18.6645 61.9239C18.6644 61.9238 18.6643 61.9238 18.7836 61.3358ZM50.5879 39.2201C44.6854 37.2363 36.901 38.8802 30.4761 42.8936C24.039 46.9147 18.821 53.4045 18.1855 61.2876L19.3816 61.384C19.9777 53.9903 24.889 47.7986 31.1119 43.9114C37.3471 40.0164 44.7535 38.5252 50.2056 40.3576L50.5879 39.2201ZM72.2932 44.4271C72.3399 43.8289 72.3399 43.8289 72.3399 43.8289C72.3399 43.8289 72.3398 43.8289 72.3397 43.8289C72.3395 43.8289 72.3391 43.8288 72.3386 43.8288C72.3375 43.8287 72.3358 43.8286 72.3335 43.8284C72.3288 43.828 72.3216 43.8274 72.3119 43.8266C72.2925 43.825 72.2631 43.8226 72.224 43.8192C72.1459 43.8124 72.029 43.8019 71.8757 43.7871C71.5691 43.7575 71.1171 43.7109 70.5386 43.6431C69.3814 43.5074 67.7189 43.2867 65.7026 42.9473C61.6683 42.2682 56.2267 41.1152 50.5879 39.2201L50.2056 40.3576C55.9215 42.2786 61.4281 43.4447 65.5034 44.1307C67.5419 44.4738 69.2245 44.6972 70.3988 44.8349C70.986 44.9038 71.4462 44.9512 71.7605 44.9815C71.9177 44.9967 72.0383 45.0076 72.1201 45.0147C72.161 45.0182 72.1922 45.0208 72.2134 45.0226C72.224 45.0235 72.2321 45.0241 72.2376 45.0246C72.2404 45.0248 72.2425 45.0249 72.244 45.0251C72.2448 45.0251 72.2454 45.0252 72.2458 45.0252C72.246 45.0252 72.2462 45.0252 72.2463 45.0252C72.2465 45.0253 72.2466 45.0253 72.2932 44.4271ZM101.341 25.1537C100.211 27.587 91.9269 43.8271 72.2932 43.8271V45.0271C92.6912 45.0271 101.271 28.1552 102.429 25.6591L101.341 25.1537ZM95.846 21.068C97.5685 23.0244 99.5109 24.6374 101.569 25.916L102.202 24.8968C100.241 23.6783 98.3894 22.1408 96.7467 20.275L95.846 21.068ZM90.1353 0.575018C88.5062 7.13094 90.4476 14.9494 95.8465 21.0685L96.7463 20.2745C91.5787 14.4176 89.7762 6.99615 91.2999 0.8644L90.1353 0.575018ZM110.305 8.38445C104.906 2.2654 97.3792 -0.649613 90.6491 0.123631L90.786 1.31579C97.0854 0.592033 104.238 3.32144 109.406 9.17837L110.305 8.38445ZM113.117 12.2165C112.322 10.8836 111.388 9.60133 110.304 8.38256L109.407 9.18027C110.441 10.342 111.33 11.5629 112.086 12.8313L113.117 12.2165ZM116.145 10.0783C114.784 10.6307 113.5 11.283 112.292 12.0099L112.911 13.038C114.068 12.3414 115.297 11.7176 116.596 11.1902L116.145 10.0783ZM137.436 11.4564C131.762 7.76752 123.72 7.01883 116.146 10.0779L116.595 11.1906C123.847 8.26169 131.471 9.01 136.782 12.4625L137.436 11.4564Z" fill="#111111"/>
<path d="M71.8411 86.1468C29.5383 100.196 8.10981 76.3181 1.7059 67.1521C0.831515 69.2135 0.53595 71.9375 1.1394 75.5205C4.29209 93.9262 42.8757 117.78 83.9224 97.7424C104.92 87.4842 113.319 69.643 116.508 54.6484C107.518 66.5876 93.5159 78.9563 71.8411 86.159V86.1468Z" fill="white"/>
<path d="M123.156 27.3098L122.931 26.7535L123.156 27.3098ZM137.109 11.9595L137.694 12.0916L137.786 11.6841L137.436 11.4564L137.109 11.9595ZM117.885 28.8143L117.784 28.223L117.217 28.3204L117.29 28.8905L117.885 28.8143ZM83.9188 97.7423L84.182 98.2815L83.9188 97.7423ZM1.13587 75.5205L1.72725 75.4192L1.13587 75.5205ZM18.7836 61.3358L18.6643 61.9238L19.3273 62.0584L19.3816 61.384L18.7836 61.3358ZM50.3968 39.7888L50.2056 40.3576L50.3968 39.7888ZM72.2932 44.4271L72.2466 45.0253L72.2699 45.0271H72.2932V44.4271ZM101.885 25.4064L102.429 25.6591L102.653 25.1772L102.202 24.8968L101.885 25.4064ZM96.2964 20.6715L96.7467 20.275L96.7463 20.2745L96.2964 20.6715ZM90.7176 0.719709L90.6491 0.123631L90.2356 0.171133L90.1353 0.575018L90.7176 0.719709ZM109.855 8.78141L109.406 9.17838L109.407 9.18027L109.855 8.78141ZM112.602 12.5239L112.086 12.8313L112.395 13.3486L112.911 13.038L112.602 12.5239ZM116.37 10.6343L116.146 10.0779L116.145 10.0783L116.37 10.6343ZM123.381 27.8662C130.956 24.807 136.205 18.6854 137.694 12.0916L136.524 11.8273C135.131 17.9948 130.184 23.8247 122.931 26.7535L123.381 27.8662ZM117.987 29.4056C119.785 29.0964 121.595 28.5872 123.381 27.8662L122.931 26.7535C121.225 27.4425 119.497 27.9282 117.784 28.223L117.987 29.4056ZM84.182 98.2815C104.162 88.5278 112.846 71.9546 116.476 57.438C120.103 42.9343 118.699 30.4449 118.48 28.7381L117.29 28.8905C117.5 30.5291 118.888 42.8499 115.312 57.1469C111.74 71.4309 103.227 87.6489 83.6556 97.2031L84.182 98.2815ZM0.544478 75.6218C1.36165 80.3925 4.45575 85.4435 9.21315 90.0083C13.9784 94.5805 20.4502 98.7029 28.1042 101.609C43.4179 107.422 63.4986 108.378 84.182 98.2815L83.6556 97.2031C63.2924 107.144 43.558 106.192 28.5301 100.487C21.0132 97.633 14.6826 93.5932 10.044 89.1424C5.39754 84.6841 2.48643 79.8513 1.72725 75.4192L0.544478 75.6218ZM18.7836 61.3358C18.9029 60.7478 18.9026 60.7477 18.9022 60.7476C18.902 60.7476 18.9015 60.7475 18.901 60.7474C18.9001 60.7472 18.8988 60.747 18.8972 60.7466C18.8941 60.746 18.8897 60.7451 18.884 60.744C18.8727 60.7418 18.8565 60.7387 18.8355 60.7347C18.7935 60.7268 18.7325 60.7155 18.6538 60.7018C18.4964 60.6744 18.2681 60.637 17.9799 60.5963C17.4038 60.5149 16.5867 60.42 15.6169 60.3648C13.6834 60.2548 11.1133 60.3009 8.62695 60.9452C6.1396 61.5898 3.68489 62.8476 2.06878 65.1994C0.448349 67.5575 -0.261461 70.9166 0.544478 75.6218L1.72725 75.4192C0.956844 70.9215 1.66482 67.9061 3.05778 65.879C4.45505 63.8457 6.60931 62.7077 8.92798 62.1068C11.2477 61.5057 13.6806 61.4566 15.5487 61.5629C16.4796 61.6158 17.2629 61.7069 17.8121 61.7845C18.0865 61.8232 18.302 61.8586 18.4477 61.884C18.5206 61.8967 18.576 61.9069 18.6125 61.9138C18.6308 61.9173 18.6444 61.9199 18.653 61.9216C18.6574 61.9224 18.6605 61.9231 18.6624 61.9234C18.6633 61.9236 18.6639 61.9238 18.6643 61.9238C18.6644 61.9239 18.6644 61.9239 18.6645 61.9239C18.6644 61.9239 18.6643 61.9238 18.7836 61.3358ZM50.5879 39.2201C44.6854 37.2363 36.901 38.8802 30.4761 42.8936C24.039 46.9147 18.821 53.4045 18.1855 61.2876L19.3816 61.384C19.9777 53.9903 24.889 47.7986 31.1119 43.9114C37.3471 40.0164 44.7535 38.5252 50.2056 40.3576L50.5879 39.2201ZM72.2932 44.4271C72.3399 43.8289 72.3399 43.8289 72.3399 43.8289C72.3399 43.8289 72.3398 43.8289 72.3397 43.8289C72.3395 43.8289 72.3391 43.8288 72.3386 43.8288C72.3375 43.8287 72.3358 43.8286 72.3335 43.8284C72.3288 43.828 72.3216 43.8274 72.3119 43.8266C72.2925 43.825 72.2631 43.8226 72.224 43.8192C72.1459 43.8124 72.029 43.8019 71.8757 43.7871C71.5691 43.7575 71.1171 43.7109 70.5385 43.6431C69.3814 43.5074 67.7189 43.2867 65.7026 42.9473C61.6683 42.2682 56.2267 41.1152 50.5879 39.2201L50.2056 40.3576C55.9215 42.2786 61.4281 43.4447 65.5034 44.1307C67.5419 44.4738 69.2245 44.6972 70.3988 44.8349C70.986 44.9038 71.4462 44.9512 71.7605 44.9815C71.9177 44.9967 72.0383 45.0076 72.1201 45.0147C72.161 45.0182 72.1922 45.0208 72.2134 45.0226C72.224 45.0235 72.2321 45.0241 72.2376 45.0246C72.2404 45.0248 72.2425 45.0249 72.244 45.0251C72.2448 45.0251 72.2454 45.0252 72.2458 45.0252C72.246 45.0252 72.2462 45.0252 72.2463 45.0252C72.2465 45.0253 72.2466 45.0253 72.2932 44.4271ZM101.341 25.1537C100.211 27.587 91.9269 43.8271 72.2932 43.8271V45.0271C92.6912 45.0271 101.271 28.1552 102.429 25.6591L101.341 25.1537ZM95.846 21.068C97.5685 23.0244 99.5109 24.6374 101.569 25.916L102.202 24.8968C100.241 23.6783 98.3894 22.1408 96.7467 20.275L95.846 21.068ZM90.1353 0.575018C88.5062 7.13094 90.4476 14.9494 95.8465 21.0685L96.7463 20.2745C91.5787 14.4176 89.7762 6.99615 91.2999 0.8644L90.1353 0.575018ZM110.305 8.38445C104.906 2.2654 97.3792 -0.649613 90.6491 0.123631L90.786 1.31579C97.0854 0.592033 104.238 3.32144 109.406 9.17837L110.305 8.38445ZM113.117 12.2165C112.322 10.8836 111.388 9.60133 110.304 8.38256L109.407 9.18027C110.441 10.342 111.33 11.5629 112.086 12.8313L113.117 12.2165ZM116.145 10.0783C114.784 10.6307 113.5 11.283 112.292 12.0099L112.911 13.038C114.068 12.3414 115.297 11.7176 116.596 11.1902L116.145 10.0783ZM137.436 11.4564C131.762 7.76752 123.72 7.01883 116.146 10.0779L116.595 11.1906C123.847 8.26169 131.471 9.01 136.782 12.4625L137.436 11.4564Z" fill="#111111"/>
<path d="M49.4902 88.9892C49.4902 88.9892 59.3416 116.351 81.1009 112.657C81.1009 112.657 85.337 111.968 82.1969 106.636C79.0568 101.303 70.4245 90.9102 69.4639 85.2949" fill="#CAE3FB"/>
<path d="M49.4902 88.9892C49.4902 88.9892 59.3416 116.351 81.1009 112.657C81.1009 112.657 85.337 111.968 82.1969 106.636C79.0568 101.303 70.4245 90.9102 69.464 85.2949" stroke="#111111" stroke-width="1.2" stroke-miterlimit="10"/>
<path d="M18.2461 82.6724C18.2461 82.6724 26.0194 87.9549 36.4767 89.3313C36.4767 89.3313 34.2755 95.3657 26.4818 93.847C18.688 92.3283 17.8286 86.1041 18.2461 82.6724Z" stroke="#111111" stroke-width="1.2" stroke-miterlimit="10"/>
<path d="M16 80.999L18.5 82.999" stroke="#111111" stroke-width="1.2" stroke-miterlimit="10"/>
<path d="M22.7217 58.9209C22.7217 58.9209 25.3296 59.7677 26.9786 62.613C26.9786 62.613 24.1685 62.2336 21.6907 63.2058" stroke="#111111" stroke-width="1.2" stroke-miterlimit="10"/>
<path d="M46.3565 72.6925C44.9868 72.621 43.9299 71.2226 44.0164 69.5662C44.1029 67.9098 45.2824 66.6282 46.6694 66.7007C48.0564 66.7731 49.0961 68.1706 49.0096 69.827C48.9231 71.4834 47.7435 72.7649 46.3565 72.6925Z" fill="#111111"/>
<path d="M15.4112 66.4916L13.025 68.5639" stroke="#EFA0B5" stroke-width="1.2" stroke-miterlimit="10"/>
<path d="M17.6215 67.2095L15.2467 69.2856" stroke="#EFA0B5" stroke-width="1.2" stroke-miterlimit="10"/>
<path d="M19.8566 67.9349L17.4703 70.0072" stroke="#EFA0B5" stroke-width="1.2" stroke-miterlimit="10"/>
<path d="M48.4161 77.2084L46.0299 79.2807" stroke="#EFA0B5" stroke-width="1.2" stroke-miterlimit="10"/>
<path d="M50.6371 77.9302L48.2623 80.0063" stroke="#EFA0B5" stroke-width="1.2" stroke-miterlimit="10"/>
<path d="M52.8608 78.6519L50.4859 80.7279" stroke="#EFA0B5" stroke-width="1.2" stroke-miterlimit="10"/>
<path d="M124.234 41.2656C125.17 42.8516 126.425 47.0799 123.968 51.305" stroke="#111111" stroke-width="1.2"/>
<path d="M128.918 47.9326C129.162 49.0712 128.961 52.2526 126.205 55.8692" stroke="#111111" stroke-width="1.2"/>
<ellipse cx="11.182" cy="36.6679" rx="2.5" ry="2" transform="rotate(-45 11.182 36.6679)" fill="#383838" stroke="#383838" stroke-width="1.2" stroke-miterlimit="10"/>
<path d="M13.5 29.4858C12.8333 28.4858 10.8 26.9858 8 28.9858L13.5 35.4858" stroke="#383838" stroke-width="1.2" stroke-miterlimit="10"/>
</svg>
