<svg width="112" height="124" viewBox="0 0 112 124" fill="none" xmlns="http://www.w3.org/2000/svg">
<path d="M57.7627 123.163C87.5819 123.163 111.763 119.81 111.763 115.663C111.763 111.517 87.5819 108.163 57.7627 108.163C27.9435 108.163 3.7627 111.517 3.7627 115.663C3.7627 119.81 27.9435 123.163 57.7627 123.163Z" fill="#ECEEF5"/>
<path d="M34.3077 75.9852C34.3077 75.9852 31.0305 83.0264 31.3722 90.5855C31.3722 90.5855 27.2331 91.5593 26.8836 91.7912C26.8836 91.7912 24.8723 89.2715 20.3293 89.7894C15.7863 90.3072 12.5635 94.651 13.542 100.718C14.5205 106.786 16.99 114.747 24.2432 113.657C31.4965 112.567 51.7419 111.021 64.8583 111.021C77.9747 111.021 93.5063 113.757 93.5063 113.757C93.5063 113.757 102.484 114.113 103.167 100.888C103.85 87.6638 92.5511 88.6068 89.7088 91.5284L85.1348 90.9255C85.1348 90.9255 83.8557 78.9593 80.0582 73.3789L34.3077 75.9852Z" fill="#EEEEEE" stroke="#111111" stroke-width="1.2" stroke-miterlimit="10"/>
<path d="M49.9104 96.8387C50.5705 97.7353 51.9761 97.8125 52.7138 96.9933C52.5818 98.0676 52.543 99.2579 53.1409 100.124C53.7389 100.989 55.1833 101.152 55.626 100.185C55.4474 101.723 56.5191 103.3 57.9169 103.571C59.3147 103.841 60.8135 102.751 61.1242 101.244C62.1803 102.241 63.7024 102.751 65.0148 102.226C66.3272 101.7 67.2203 99.9767 66.7 98.5623C67.5775 98.7478 68.5017 98.2376 69.0297 97.4493C69.5656 96.6686 69.752 95.6561 69.7597 94.6745C69.7597 93.3606 69.4336 92.0544 68.8356 90.9182C67.1271 87.7338 63.5005 86.3734 60.1224 86.2266C58.8566 86.1725 57.5752 86.2498 56.3482 86.5976C54.1971 87.2082 52.2556 88.8081 50.8966 90.7018C49.8094 92.2089 48.5669 95.0301 49.9026 96.8387H49.9104Z" fill="white"/>
<path d="M35.27 86.2109C35.27 86.2109 33.9731 118.588 53.9933 114.121C53.9933 114.121 62.2794 111.199 55.8027 97.0317C55.8027 97.0317 54.335 92.2242 53.6438 87.9268" fill="#EEEEEE"/>
<path d="M35.27 86.2109C35.27 86.2109 33.9731 118.588 53.9933 114.121C53.9933 114.121 62.2794 111.199 55.8027 97.0317C55.8027 97.0317 54.335 92.2242 53.6438 87.9268" stroke="#111111" stroke-width="1.2" stroke-miterlimit="10"/>
<path d="M66.5907 87.2383C66.5907 87.2383 66.5907 98.3992 64.6958 103.81C62.801 109.22 65.9073 116.748 74.8768 113.757C83.8462 110.766 85.8407 93.5764 84.9787 87.0453C84.1167 80.5142 81.9878 75.0098 80.6055 73.3789" fill="#EEEEEE"/>
<path d="M66.5907 87.2383C66.5907 87.2383 66.5907 98.3992 64.6958 103.81C62.801 109.22 65.9073 116.748 74.8768 113.757C83.8462 110.766 85.8407 93.5764 84.9787 87.0453C84.1167 80.5142 81.9878 75.0098 80.6055 73.3789" stroke="#111111" stroke-width="1.2" stroke-miterlimit="10"/>
<path d="M92.5191 62.7973C95.802 56.9565 97.1661 49.8055 95.0036 43.4154C94.0399 40.5689 92.5887 37.8531 91.0214 35.4244C90.1257 34.032 88.9365 32.7744 87.8993 31.4839C86.9621 30.3267 85.3853 27.1724 83.8701 26.7382C85.5044 27.1965 87.4832 26.8104 88.5433 25.4861C89.6035 24.1618 89.3269 21.8994 87.8086 21.1539C89.8154 20.9923 91.2091 18.8424 91.1236 16.8729C91.038 14.9034 89.8448 13.1507 88.4906 11.6971C84.5769 7.47264 77.9578 3.89304 71.9863 4.26082C66.4569 4.59816 61.2691 8.10068 58.7373 12.964C58.0572 14.2665 57.5597 15.6801 57.3452 17.1299C53.2145 17.4365 49.1058 18.1853 45.0612 19.0531C40.9041 19.9509 36.7209 21.3518 32.8763 23.3262C33.0819 23.2231 29.3072 20.0576 28.9156 19.8265C27.4784 18.9633 25.9981 18.5998 24.2849 18.5067C20.7433 18.3114 17.1392 19.4131 14.1828 21.3416C10.0277 24.0473 7.03474 28.21 4.91598 32.6346C4.16488 34.2121 3.4918 35.9608 3.86489 37.6532C4.23798 39.3457 6.0783 40.813 7.73705 40.1925C5.84828 41.8749 6.34791 45.3898 8.6263 46.4517C10.3926 47.2827 12.5094 46.6915 14.3357 45.9461C14.3057 45.9541 13.6642 49.4707 13.5291 49.987C13.0441 51.8374 12.8606 53.823 12.7191 55.7253C12.5191 58.3395 12.7487 60.9665 13.3198 63.5181C13.5104 64.3792 13.7479 65.2358 14.004 66.0714C14.0655 66.2709 14.1345 66.4685 14.194 66.6606C18.0073 77.8015 29.2322 83.8678 40.6931 84.8138C52.2955 85.7779 64.1248 84.2886 74.5744 78.88C75.6541 78.3187 76.7108 77.7315 77.7729 77.1348C83.5898 73.8798 89.2851 68.6409 92.5191 62.7973Z" fill="#EEEEEE" stroke="#111111" stroke-width="1.2" stroke-miterlimit="10"/>
<path d="M87.5188 14.6449C87.8689 15.2312 88.1594 15.8655 88.2209 16.5452C88.388 18.3089 86.6917 20.0196 84.8954 19.9168C85.5071 21.2093 85.213 22.8724 84.1859 23.8998C83.1608 24.9346 81.4805 25.2648 80.1458 24.6943C81.3359 23.4952 81.91 21.797 82.0175 20.1278C82.125 18.4587 81.8014 16.801 81.4163 15.1838C80.9197 13.0604 80.2506 10.8631 78.6433 9.36538C78.9128 9.62123 80.8211 9.542 81.3207 9.6962C82.1553 9.96067 82.858 10.4526 83.6141 10.8741C85.2234 11.7792 86.5806 13.0639 87.5168 14.6374L87.5188 14.6449Z" fill="white"/>
<path d="M7.41933 34.4444C6.93677 35.614 6.72925 36.6698 7.4969 37.8244C7.72644 38.171 10.5264 40.1893 10.8105 39.209C10.4084 40.589 10.9475 42.181 12.1132 43.0209C13.2999 43.8792 16.2739 44.1465 17.0665 42.5738C15.0242 40.8326 13.7514 38.333 13.2208 35.7226C12.6902 33.1121 12.8716 30.3989 13.4067 27.775C10.7923 29.1797 8.70049 31.4846 7.52784 34.1593C7.48784 34.25 7.44983 34.3482 7.40983 34.439L7.41933 34.4444Z" fill="white"/>
<path d="M59.5789 51.0158C60.4216 54.1607 58.5553 57.3932 55.4104 58.2359C52.2656 59.0785 49.0331 57.2122 48.1904 54.0674" stroke="#111111" stroke-width="1.2"/>
<path d="M40.7055 50.1789C41.7468 49.8999 42.3004 48.5388 41.9255 47.1396C41.5505 45.7403 40.4037 44.8348 39.3493 45.1174C38.2948 45.3999 37.7544 46.7575 38.1293 48.1568C38.5042 49.556 39.651 50.4615 40.7055 50.1789Z" fill="#111111"/>
<path d="M64.7482 43.7371C63.7069 44.0162 62.5469 43.1142 62.172 41.715C61.7971 40.3157 62.3375 38.9581 63.392 38.6756C64.4464 38.393 65.5932 39.2985 65.9682 40.6978C66.3431 42.097 65.8027 43.4546 64.7482 43.7371Z" fill="#111111"/>
<path d="M50.9157 42.448C49.7531 42.7596 48.6874 43.4932 48.1843 44.5562C47.5973 45.7857 47.7988 46.988 47.8528 48.2698C47.9199 49.7802 48.617 51.3618 49.5022 52.5649C50.1563 53.4459 51.0274 54.2367 52.1161 54.4891C52.6057 54.606 53.1253 54.5948 53.6234 54.5333C55.7907 54.2807 57.7475 52.9722 57.823 50.7035C57.8515 49.7596 57.6204 48.8373 57.3934 47.9299C56.7812 45.5254 55.6485 42.7082 52.7855 42.3151C52.1834 42.2284 51.5383 42.2812 50.9232 42.446L50.9157 42.448Z" fill="#111111"/>
<path d="M35.5569 62.5565L34.6022 65.8774" stroke="#EFA0B5" stroke-width="1.2" stroke-miterlimit="10"/>
<path d="M38.012 61.8987L37.07 65.2162" stroke="#EFA0B5" stroke-width="1.2" stroke-miterlimit="10"/>
<path d="M40.4924 61.2342L39.5378 64.5551" stroke="#EFA0B5" stroke-width="1.2" stroke-miterlimit="10"/>
<path d="M72.2034 52.7371L71.2487 56.058" stroke="#EFA0B5" stroke-width="1.2" stroke-miterlimit="10"/>
<path d="M74.6712 52.0764L73.7292 55.394" stroke="#EFA0B5" stroke-width="1.2" stroke-miterlimit="10"/>
<path d="M77.1389 51.4153L76.1969 54.7328" stroke="#EFA0B5" stroke-width="1.2" stroke-miterlimit="10"/>
<path d="M100.316 54.8506C100.768 56.8122 100.683 61.6339 96.7288 65.228" stroke="#111111" stroke-width="1.2"/>
<path d="M103.002 63.3457C102.881 64.613 101.622 67.863 97.557 70.7243" stroke="#111111" stroke-width="1.2"/>
</svg>
