<svg width="92" height="128" viewBox="0 0 92 128" fill="none" xmlns="http://www.w3.org/2000/svg">
<path d="M46 128C64.2229 128 79 124.87 79 121C79 117.13 64.2229 114 46 114C27.7771 114 13 117.13 13 121C13 124.87 27.7771 128 46 128Z" fill="#ECEEF5"/>
<path d="M79.415 99.0137C80.3816 100.696 81.6546 105.167 79.0144 109.59" stroke="#111111" stroke-width="1.2"/>
<path d="M84.2725 106.096C84.5159 107.299 84.2658 110.649 81.3183 114.427" stroke="#111111" stroke-width="1.2"/>
<path d="M30.4013 82.0204C30.4013 82.0204 27.3827 82.9904 26.8686 82.6741L21.9592 79.654C21.9592 79.654 15.2702 75.7416 11.9452 81.4758C8.62012 87.2101 14.3659 92.162 22.0208 95.6562C29.6757 99.1504 36.2209 94.5872 36.2209 94.5872" fill="#CA8D61"/>
<path d="M30.4013 82.0204C30.4013 82.0204 27.3827 82.9904 26.8686 82.6741L21.9592 79.654C21.9592 79.654 15.2702 75.7416 11.9452 81.4758C8.62012 87.2101 14.3659 92.162 22.0208 95.6562C29.6757 99.1504 36.2209 94.5872 36.2209 94.5872" stroke="#111111" stroke-width="1.2" stroke-miterlimit="10"/>
<path d="M48.8251 103.271C48.8251 103.271 53.0022 114.713 65.402 108.507C65.402 108.507 72.8174 113.934 74.8065 104.488C74.8065 104.488 75.6366 98.9137 72.61 95.2186L52.8211 98.9873L48.8338 103.267L48.8251 103.271Z" fill="#CA8D61" stroke="#111111" stroke-width="1.2" stroke-miterlimit="10"/>
<path d="M77.1373 82.5123C74.0168 85.2351 68.508 89.8905 66.1437 91.8779L66.143 98.2844C88.9396 94.6315 90.7208 87.2164 88.1254 82.5118C85.5303 77.8065 80.258 79.7891 77.1373 82.5123Z" fill="#CA8D61" stroke="#111111" stroke-width="1.2" stroke-miterlimit="10"/>
<path d="M31.7414 76.436C31.7414 76.436 23.238 93.9071 37.5584 101.913L32.7695 107.505C32.7695 107.505 29.4132 106.987 27.6887 109.315C25.9641 111.643 24.16 117.149 36.212 121.885C36.212 121.885 39.7407 123.264 42.6658 120.246C45.5909 117.228 53.4244 106.994 53.4244 106.994C53.4244 106.994 70.2918 107.511 69.7811 89.2641C69.7811 89.2641 68.5739 77.9881 63.1548 71.793L31.7414 76.4426V76.436Z" fill="#CA8D61" stroke="#111111" stroke-width="1.2" stroke-miterlimit="10"/>
<path d="M14.7012 17.8623C11.7909 17.8623 9.43163 15.5031 9.43163 12.5928C9.43163 9.68249 11.7909 7.32324 14.7012 7.32324C17.6114 7.32324 19.9707 9.68249 19.9707 12.5928C19.9707 15.5031 17.6114 17.8623 14.7012 17.8623Z" fill="#CA8D61" stroke="#111111" stroke-width="1.2" stroke-miterlimit="10"/>
<path d="M13.6469 11.0117C15.2277 12.0656 15.9655 13.9627 16.8086 15.2273" stroke="#111111" stroke-width="1.2"/>
<path d="M76.8818 17.8623C79.7921 17.8623 82.1514 15.5031 82.1514 12.5928C82.1514 9.68249 79.7921 7.32324 76.8818 7.32324C73.9716 7.32324 71.6123 9.68249 71.6123 12.5928C71.6123 15.5031 73.9716 17.8623 76.8818 17.8623Z" fill="#CA8D61" stroke="#111111" stroke-width="1.2" stroke-miterlimit="10"/>
<path d="M77.9361 11.0117C76.3553 12.0656 75.6175 13.9627 74.7744 15.2273" stroke="#111111" stroke-width="1.2"/>
<path d="M83.0297 65.9838C88.0379 60.8011 91.4292 53.6953 90.956 46.4098C90.7431 43.1657 90.0017 39.9216 89.0553 36.9355C85.9163 27.0703 81.9728 17.9086 72.5322 12.2803C68.849 10.0837 64.7715 8.53589 60.5599 7.68383C56.3325 6.83176 52.7124 7.01156 48.974 4.29902C47.9645 3.56421 46.9787 2.69651 45.7483 2.46982C44.5179 2.24312 42.9958 3.03265 43.0273 4.26775C41.1266 3.82218 40.2511 1.23471 38.311 1.01583C37.7352 0.94548 37.1516 1.11746 36.631 1.37542C35.5505 1.9148 34.6672 2.89976 34.4385 4.08014C34.2098 5.26834 34.7303 6.48781 35.7477 7.14445C34.9117 7.92616 33.1766 7.81672 32.0724 8.06687C30.2584 8.47336 28.4681 8.98147 26.7172 9.60684C23.3258 10.8107 20.0764 12.4366 17.1189 14.4769C9.48433 19.7534 5.50934 27.7034 2.56752 36.2163C1.64475 38.8897 1.14788 41.7039 1.02958 44.5337C0.990141 45.4874 0.990141 46.4489 1.02958 47.4026C1.03746 47.6293 1.05324 47.8481 1.06901 48.0748C1.78672 58.7374 8.9638 67.3596 18.2467 72.2141C30.0218 78.374 44.9833 78.0769 57.9651 77.2874C67.0824 76.7324 76.6728 72.5658 83.0218 65.9838H83.0297Z" fill="#CA8D61" stroke="#111111" stroke-width="1.2" stroke-miterlimit="10"/>
<path d="M33.8382 39.5581C34.8466 39.5581 35.6764 38.4622 35.6764 37.1072C35.6764 35.7521 34.8594 34.6562 33.8382 34.6562C32.817 34.6562 32 35.7521 32 37.1072C32 38.4622 32.817 39.5581 33.8382 39.5581Z" fill="#111111"/>
<path d="M57.1228 39.5581C56.1143 39.5581 55.2846 38.4622 55.2846 37.1072C55.2846 35.7521 56.1016 34.6562 57.1228 34.6562C58.144 34.6562 58.9609 35.7521 58.9609 37.1072C58.9609 38.4622 58.144 39.5581 57.1228 39.5581Z" fill="#111111"/>
<path d="M49.396 38.1422C49.3685 38.1217 49.341 38.1041 49.3136 38.0894C49.0817 37.9575 48.8163 37.9017 48.5509 37.8607C47.0254 37.6261 45.2681 37.7199 43.7458 37.9516C43.1844 38.0366 42.5803 38.1657 42.2203 38.5557C41.8573 38.9486 41.839 39.5233 42.0312 40.0013C42.2264 40.4793 42.6017 40.8781 42.9831 41.2564C43.7519 42.0217 44.6915 42.7988 45.8478 42.8369C46.8607 42.8692 47.7759 42.3179 48.5295 41.7138C49.2495 41.1391 50.2136 40.3209 50.0793 39.2975C50.0275 38.8958 49.7529 38.3914 49.396 38.1393V38.1422Z" fill="#9D6E4C"/>
<path d="M26.1901 44.3828L24.5234 47.1523" stroke="#EFA0B5" stroke-width="1.2" stroke-miterlimit="10"/>
<path d="M28.5674 44.3828L26.9131 47.1523" stroke="#EFA0B5" stroke-width="1.2" stroke-miterlimit="10"/>
<path d="M30.9703 44.3828L29.3037 47.1523" stroke="#EFA0B5" stroke-width="1.2" stroke-miterlimit="10"/>
<path d="M61.6803 44.3828L60.0137 47.1523" stroke="#EFA0B5" stroke-width="1.2" stroke-miterlimit="10"/>
<path d="M64.0694 44.3828L62.415 47.1523" stroke="#EFA0B5" stroke-width="1.2" stroke-miterlimit="10"/>
<path d="M66.46 44.3828L64.8057 47.1523" stroke="#EFA0B5" stroke-width="1.2" stroke-miterlimit="10"/>
<path d="M52.137 41.8154C52.137 45.2044 49.3896 47.9518 46.0006 47.9518C42.6116 47.9518 39.8643 45.2044 39.8643 41.8154" stroke="#111111" stroke-width="1.2"/>
<path d="M40.8799 50.9992V45.1992C41.9774 46.8562 43.8577 47.9494 45.9935 47.9514L45.9995 47.9514C48.13 47.9514 50.007 46.8656 51.1072 45.2172V50.9992C51.1072 50.9992 50.5344 54.0674 45.9935 54.0674C41.4526 54.0674 40.8799 50.9992 40.8799 50.9992Z" fill="white" stroke="#111111" stroke-width="1.2" stroke-miterlimit="10"/>
<path d="M46 48.4629V54.0879" stroke="#111111" stroke-width="1.2"/>
<rect x="3.1084" y="69.5039" width="30.5633" height="22.1321" fill="#EEEEEE" stroke="#111111" stroke-width="1.2" stroke-miterlimit="10"/>
<rect x="23.1328" y="69.5039" width="10.5391" height="22.1321" fill="#EEEEEE" stroke="#111111" stroke-width="1.2" stroke-miterlimit="10"/>
<path d="M38.9977 80.3965C38.9977 80.3965 35.836 81.4123 35.2976 81.0811L30.1555 77.9178C30.1555 77.9178 23.1495 73.8201 19.6669 79.826C16.1843 85.832 22.2023 91.0186 30.22 94.6784C38.2377 98.3382 45.093 93.5587 45.093 93.5587" fill="#CA8D61"/>
<path d="M38.9977 80.3965C38.9977 80.3965 35.836 81.4123 35.2976 81.0811L30.1555 77.9178C30.1555 77.9178 23.1495 73.8201 19.6669 79.826C16.1843 85.832 22.2023 91.0186 30.22 94.6784C38.2377 98.3382 45.093 93.5587 45.093 93.5587" stroke="#111111" stroke-width="1.2" stroke-miterlimit="10"/>
</svg>
