<svg width="91" height="158" viewBox="0 0 91 158" fill="none" xmlns="http://www.w3.org/2000/svg">
<path d="M43.7164 157.991C60.6788 157.991 74.4338 154.72 74.4338 150.677C74.4338 146.634 60.6788 143.363 43.7164 143.363C26.754 143.363 12.999 146.634 12.999 150.677C12.999 154.72 26.754 157.991 43.7164 157.991Z" fill="#ECEEF5"/>
<path d="M49.2391 94.8734C49.2391 94.8734 46.8406 100.802 56.594 105.595C66.3473 110.387 67.8413 111.27 68.5101 112.809C69.1789 114.348 70.1031 118.027 75.0213 117.281C79.9396 116.535 82.7517 110.662 80.6779 105.011C78.6041 99.3609 69.0299 91.0903 58.5361 90.4024C58.5361 90.4024 50.6027 89.129 49.2304 94.875L49.2391 94.8734Z" fill="white" stroke="black" stroke-width="1.2" stroke-miterlimit="10"/>
<path d="M70.1643 9.58489C68.5128 14.086 66.1844 16.8438 64.1115 18.4131C62.8003 19.4058 62.2519 21.7491 63.4411 22.8851L70.75 29.8672C71.586 30.6658 72.9354 30.5895 73.6096 29.6502C80.1543 20.5331 76.9499 12.8714 73.2273 8.75221C72.2768 7.70034 70.6526 8.25389 70.1643 9.58489Z" fill="#FBCDCA" stroke="black" stroke-width="1.2"/>
<path d="M69.8891 15.9573C69.6513 16.4087 69.3991 16.8083 69.1404 17.1609C68.1676 18.4869 67.6988 21.0955 68.8881 22.2316L69.9804 23.2751C70.8164 24.0738 72.1792 24.0066 72.7579 23.0058C74.5396 19.9244 74.0052 17.255 72.895 15.3911C72.1695 14.173 70.5501 14.7031 69.8891 15.9573Z" fill="#F49E95"/>
<path d="M41.0627 4.60888C41.0751 9.40335 42.3198 12.7912 43.731 14.9749C44.6236 16.3562 44.3375 18.7457 42.8315 19.4065L33.5754 23.4677C32.5166 23.9322 31.2747 23.3989 30.9624 22.2858C27.9306 11.4801 33.5623 5.37637 38.4692 2.77879C39.7222 2.11548 41.059 3.19113 41.0627 4.60888Z" fill="#FBCDCA" stroke="black" stroke-width="1.2"/>
<path d="M39.1421 10.6915C39.2112 11.197 39.3115 11.6588 39.434 12.0785C39.8946 13.6573 39.4429 16.269 37.9368 16.9298L36.5534 17.5368C35.4947 18.0013 34.2371 17.4721 34.0356 16.3337C33.4152 12.8288 34.8304 10.5032 36.5111 9.13135C37.6094 8.23486 38.95 9.28681 39.1421 10.6915Z" fill="#F49E95"/>
<path fill-rule="evenodd" clip-rule="evenodd" d="M78.9335 62.4316C77.9253 68.1492 73.024 72.2025 67.4363 72.3459C66.8171 73.4985 66.019 74.5284 65.085 75.4054C65.7817 77.085 66.0236 78.9765 65.6844 80.9C65.3118 83.0129 64.2936 84.8499 62.8685 86.2437C64.5464 88.7541 65.0566 91.9988 63.9644 95.0614C63.229 97.1238 61.8786 98.7903 60.1932 99.9283C62.5786 102.982 64 106.825 64 111C64 113.806 63.3578 116.463 62.2124 118.83C65.0776 120.185 67.0364 121.461 67.0364 121.461C71.0725 119.943 74.598 122.776 74.598 122.776C79.9913 128.267 73.0451 136.654 70.352 139.662C67.6589 142.663 63.5108 141.11 63.5108 141.11L47.653 133.017C43.8197 134.766 38.8461 133.975 38.8461 133.975V147.224C38.8461 152.302 23.0932 154.058 19.2599 149.029C15.4266 143.999 19.6726 140.383 19.6726 140.383V127.057C14.5942 121.398 15.2167 108.401 15.2167 108.401C9.06203 103.313 6.86778 96.6894 6.11803 89.0194C5.85908 86.3633 6.23052 83.2955 6.72527 80.8185C7.6332 76.273 11.0799 72.3623 15.9977 72.3623C17.5571 72.3623 19.0238 72.7589 20.3025 73.4567C20.3243 73.2756 20.3512 73.094 20.3832 72.9122C20.7056 71.0839 21.5114 69.4622 22.6459 68.1555C21.9957 66.9417 21.5509 65.6119 21.3491 64.2195C16.1475 62.1736 12.928 56.6884 13.9362 50.9708C14.1409 49.81 14.506 48.7179 15.0048 47.7131C13.1817 45.9283 12.2418 43.304 12.7183 40.6018C13.1858 37.9505 14.909 35.836 17.1685 34.7621C16.5394 33.354 16.31 31.7493 16.598 30.1162C17.259 26.3676 20.4301 23.6921 24.078 23.5136C24.0594 22.7889 24.1126 22.0516 24.2433 21.31C25.2983 15.3272 31.0035 11.3323 36.9863 12.3873C38.8119 12.7092 40.4523 13.464 41.8207 14.5276C45.2658 11.8496 49.787 10.5826 54.4227 11.4C59.0584 12.2174 62.8736 14.9543 65.195 18.6491C66.8446 18.1177 68.6443 17.9694 70.4698 18.2913C76.4526 19.3462 80.4475 25.0515 79.3926 31.0343C79.2618 31.7759 79.0596 32.4869 78.7943 33.1615C82.1611 34.577 84.2259 38.1757 83.5649 41.9243C83.277 43.5574 82.5126 44.9868 81.4399 46.0949C83.1958 47.8768 84.0919 50.4531 83.6244 53.1045C83.1479 55.8067 81.3671 57.9512 79.0436 59.0048C79.1686 60.1196 79.1382 61.2708 78.9335 62.4316Z" fill="white"/>
<path d="M67.4363 72.3459L67.421 71.7461L67.0727 71.755L66.9078 72.0619L67.4363 72.3459ZM78.9335 62.4316L79.5244 62.5358L78.9335 62.4316ZM65.085 75.4054L64.6743 74.968L64.3718 75.2521L64.5308 75.6353L65.085 75.4054ZM65.6844 80.9L66.2753 81.0042L65.6844 80.9ZM62.8685 86.2437L62.449 85.8148L62.0929 86.163L62.3697 86.5771L62.8685 86.2437ZM63.9644 95.0614L64.5296 95.263V95.2629L63.9644 95.0614ZM60.1932 99.9283L59.8575 99.4311L59.3245 99.7909L59.7204 100.298L60.1932 99.9283ZM62.2124 118.83L61.6723 118.569L61.4087 119.113L61.9558 119.372L62.2124 118.83ZM67.0364 121.461L66.7089 121.964L66.9633 122.13L67.2476 122.023L67.0364 121.461ZM74.598 122.776L75.0261 122.356L75.0014 122.331L74.9739 122.308L74.598 122.776ZM70.352 139.662L70.7986 140.063L70.799 140.063L70.352 139.662ZM63.5108 141.11L63.2381 141.645L63.2685 141.66L63.3005 141.672L63.5108 141.11ZM47.653 133.017L47.9257 132.483L47.6676 132.351L47.4039 132.471L47.653 133.017ZM38.8461 133.975L38.9403 133.383L38.2461 133.272V133.975H38.8461ZM19.2599 149.029L19.7371 148.665H19.7371L19.2599 149.029ZM19.6726 140.383L20.0616 140.84L20.2726 140.66V140.383H19.6726ZM19.6726 127.057H20.2726V126.827L20.1192 126.656L19.6726 127.057ZM15.2167 108.401L15.816 108.43L15.8304 108.13L15.599 107.939L15.2167 108.401ZM6.11803 89.0194L5.52086 89.0776L5.52088 89.0778L6.11803 89.0194ZM6.72527 80.8185L6.13689 80.701H6.13689L6.72527 80.8185ZM20.3025 73.4567L20.0151 73.9834L20.7925 74.4076L20.8982 73.5283L20.3025 73.4567ZM20.3832 72.9122L20.9741 73.0163L20.3832 72.9122ZM22.6459 68.1555L23.0989 68.5489L23.37 68.2366L23.1748 67.8722L22.6459 68.1555ZM21.3491 64.2195L21.9429 64.1334L21.8929 63.7886L21.5687 63.6611L21.3491 64.2195ZM13.9362 50.9708L13.3453 50.8666L13.9362 50.9708ZM15.0048 47.7131L15.5422 47.9799L15.7361 47.5893L15.4245 47.2843L15.0048 47.7131ZM12.7183 40.6018L12.1274 40.4976L12.7183 40.6018ZM17.1685 34.7621L17.426 35.304L17.9553 35.0524L17.7163 34.5173L17.1685 34.7621ZM16.598 30.1162L17.1889 30.2204L16.598 30.1162ZM24.078 23.5136L24.1073 24.1129L24.6928 24.0842L24.6778 23.4982L24.078 23.5136ZM24.2433 21.31L24.8342 21.4142V21.4142L24.2433 21.31ZM36.9863 12.3873L37.0905 11.7964V11.7964L36.9863 12.3873ZM41.8207 14.5276L41.4525 15.0013L41.8207 15.2875L42.189 15.0013L41.8207 14.5276ZM54.4227 11.4L54.3185 11.9909L54.4227 11.4ZM65.195 18.6491L64.6869 18.9683L64.935 19.3632L65.3789 19.2202L65.195 18.6491ZM70.4698 18.2913L70.574 17.7004L70.4698 18.2913ZM79.3926 31.0343L78.8017 30.9301L78.8017 30.9301L79.3926 31.0343ZM78.7943 33.1615L78.2359 32.9419L78.0214 33.4875L78.5618 33.7146L78.7943 33.1615ZM83.5649 41.9243L82.974 41.8201V41.8201L83.5649 41.9243ZM81.4399 46.0949L81.0088 45.6775L80.6012 46.0986L81.0125 46.516L81.4399 46.0949ZM83.6244 53.1045L83.0335 53.0003L83.6244 53.1045ZM79.0436 59.0048L78.7958 58.4584L78.3987 58.6385L78.4473 59.0717L79.0436 59.0048ZM67.4517 72.9457C73.319 72.7951 78.4657 68.54 79.5244 62.5358L78.3426 62.3274C77.385 67.7585 72.7289 71.6099 67.421 71.7461L67.4517 72.9457ZM65.4957 75.8428C66.4762 74.9221 67.3144 73.8406 67.9649 72.6299L66.9078 72.0619C66.3198 73.1564 65.5618 74.1347 64.6743 74.968L65.4957 75.8428ZM66.2753 81.0042C66.6349 78.9648 66.3784 76.9575 65.6392 75.1755L64.5308 75.6353C65.185 77.2124 65.4122 78.9882 65.0935 80.7958L66.2753 81.0042ZM63.288 86.6726C64.7999 85.194 65.8802 83.2446 66.2753 81.0042L65.0935 80.7958C64.7434 82.7812 63.7874 84.5057 62.449 85.8148L63.288 86.6726ZM64.5296 95.2629C65.6882 92.014 65.1462 88.5717 63.3673 85.9103L62.3697 86.5771C63.9467 88.9365 64.425 91.9836 63.3993 94.8599L64.5296 95.2629ZM60.529 100.426C62.3168 99.2184 63.7497 97.4499 64.5296 95.263L63.3993 94.8599C62.7082 96.7977 61.4404 98.3622 59.8575 99.4311L60.529 100.426ZM59.7204 100.298C62.0262 103.249 63.4 106.963 63.4 111H64.6C64.6 106.686 63.1309 102.714 60.666 99.559L59.7204 100.298ZM63.4 111C63.4 113.714 62.7792 116.281 61.6723 118.569L62.7525 119.091C63.9365 116.644 64.6 113.899 64.6 111H63.4ZM67.0364 121.461C67.3638 120.958 67.3638 120.958 67.3637 120.958C67.3637 120.958 67.3636 120.958 67.3636 120.958C67.3635 120.958 67.3633 120.958 67.3631 120.958C67.3628 120.958 67.3623 120.957 67.3617 120.957C67.3605 120.956 67.3588 120.955 67.3567 120.954C67.3524 120.951 67.3462 120.947 67.3382 120.942C67.3222 120.931 67.2987 120.916 67.2681 120.897C67.2068 120.858 67.1169 120.802 67.0004 120.73C66.7674 120.586 66.4279 120.381 65.9983 120.134C65.1396 119.639 63.9191 118.973 62.469 118.287L61.9558 119.372C63.3709 120.042 64.5624 120.692 65.3993 121.174C65.8176 121.415 66.1469 121.613 66.3707 121.751C66.4826 121.82 66.5681 121.874 66.6251 121.91C66.6537 121.928 66.6751 121.942 66.6891 121.951C66.6961 121.956 66.7013 121.959 66.7046 121.961C66.7063 121.962 66.7075 121.963 66.7082 121.963C66.7085 121.964 66.7088 121.964 66.7089 121.964C66.7089 121.964 66.709 121.964 66.709 121.964L66.709 121.964C66.7089 121.964 66.7089 121.964 67.0364 121.461ZM74.598 122.776C74.9739 122.308 74.9737 122.308 74.9735 122.308C74.9734 122.308 74.9731 122.308 74.973 122.308C74.9726 122.307 74.9722 122.307 74.9717 122.307C74.9708 122.306 74.9696 122.305 74.9683 122.304C74.9655 122.302 74.9619 122.299 74.9575 122.296C74.9486 122.289 74.9362 122.279 74.9206 122.267C74.8893 122.243 74.8447 122.21 74.7875 122.169C74.6731 122.088 74.5081 121.975 74.2983 121.846C73.8795 121.589 73.2778 121.263 72.541 120.987C71.07 120.437 69.0224 120.073 66.8252 120.9L67.2476 122.023C69.0865 121.331 70.8198 121.625 72.1205 122.111C72.7697 122.354 73.3016 122.642 73.67 122.868C73.8538 122.981 73.9957 123.078 74.0899 123.146C74.137 123.179 74.172 123.205 74.1944 123.222C74.2055 123.231 74.2135 123.237 74.2181 123.241C74.2205 123.243 74.222 123.244 74.2227 123.244C74.223 123.245 74.2232 123.245 74.2231 123.245C74.223 123.245 74.2229 123.244 74.2228 123.244C74.2227 123.244 74.2226 123.244 74.2225 123.244C74.2224 123.244 74.2222 123.244 74.598 122.776ZM70.799 140.063C72.151 138.553 74.6162 135.645 76.056 132.393C77.4947 129.145 77.9795 125.363 75.0261 122.356L74.17 123.197C76.6098 125.681 76.3181 128.838 74.9588 131.908C73.6005 134.975 71.2461 137.764 69.905 139.262L70.799 140.063ZM63.5108 141.11C63.3005 141.672 63.3007 141.672 63.301 141.672C63.3011 141.672 63.3014 141.673 63.3016 141.673C63.302 141.673 63.3025 141.673 63.3031 141.673C63.3042 141.674 63.3056 141.674 63.3073 141.675C63.3105 141.676 63.3148 141.677 63.3201 141.679C63.3307 141.683 63.3452 141.688 63.3635 141.695C63.4001 141.707 63.4519 141.724 63.5175 141.745C63.6486 141.785 63.8356 141.838 64.0671 141.891C64.5288 141.997 65.1755 142.105 65.9158 142.112C67.3964 142.126 69.2994 141.734 70.7986 140.063L69.9055 139.262C68.7115 140.592 67.1939 140.924 65.9272 140.912C65.2938 140.906 64.7352 140.813 64.335 140.721C64.1356 140.676 63.9774 140.631 63.8712 140.598C63.8181 140.581 63.7781 140.568 63.7527 140.559C63.7399 140.555 63.7308 140.552 63.7255 140.55C63.7229 140.549 63.7212 140.548 63.7204 140.548C63.7201 140.548 63.72 140.548 63.7201 140.548C63.7201 140.548 63.7203 140.548 63.7205 140.548C63.7205 140.548 63.7207 140.548 63.7208 140.548C63.721 140.548 63.7212 140.548 63.5108 141.11ZM47.3802 133.551L63.2381 141.645L63.7836 140.576L47.9257 132.483L47.3802 133.551ZM38.8461 133.975C38.752 134.568 38.7521 134.568 38.7523 134.568C38.7524 134.568 38.7526 134.568 38.7527 134.568C38.7531 134.568 38.7535 134.568 38.754 134.568C38.7549 134.568 38.7562 134.569 38.7578 134.569C38.7609 134.569 38.7652 134.57 38.7707 134.571C38.7817 134.572 38.7975 134.575 38.8177 134.578C38.8582 134.583 38.9167 134.592 38.9918 134.601C39.1421 134.62 39.3588 134.645 39.63 134.669C40.172 134.717 40.934 134.763 41.8194 134.752C43.5788 134.73 45.8762 134.487 47.902 133.563L47.4039 132.471C45.5964 133.296 43.4904 133.531 41.8048 133.552C40.9676 133.562 40.2467 133.519 39.7363 133.474C39.4813 133.451 39.2796 133.428 39.1428 133.411C39.0745 133.402 39.0224 133.395 38.9882 133.39C38.9711 133.387 38.9584 133.386 38.9503 133.384C38.9463 133.384 38.9435 133.383 38.9418 133.383C38.9409 133.383 38.9404 133.383 38.9402 133.383C38.94 133.383 38.94 133.383 38.94 133.383C38.94 133.383 38.9401 133.383 38.9401 133.383C38.9402 133.383 38.9403 133.383 38.8461 133.975ZM39.4461 147.224V133.975H38.2461V147.224H39.4461ZM18.7827 149.392C19.8645 150.812 21.7289 151.691 23.803 152.167C25.8937 152.648 28.2892 152.742 30.5507 152.514C32.8078 152.286 34.977 151.734 36.602 150.888C38.1968 150.058 39.4461 148.841 39.4461 147.224H38.2461C38.2461 148.147 37.5264 149.054 36.0477 149.824C34.5993 150.578 32.5906 151.102 30.4304 151.32C28.2744 151.537 26.0129 151.444 24.0718 150.998C22.1141 150.548 20.572 149.76 19.7371 148.665L18.7827 149.392ZM19.6726 140.383C19.2836 139.926 19.2833 139.926 19.283 139.927C19.2829 139.927 19.2826 139.927 19.2823 139.927C19.2819 139.927 19.2813 139.928 19.2807 139.928C19.2796 139.929 19.2781 139.931 19.2764 139.932C19.273 139.935 19.2686 139.939 19.2632 139.944C19.2525 139.953 19.2379 139.966 19.2199 139.983C19.1838 140.016 19.1339 140.063 19.0732 140.124C18.9519 140.245 18.7867 140.422 18.6028 140.649C18.2363 141.102 17.7874 141.766 17.4679 142.607C16.8152 144.325 16.7348 146.706 18.7827 149.392L19.7371 148.665C17.9517 146.323 18.0776 144.381 18.5896 143.033C18.8524 142.341 19.2255 141.787 19.5354 141.404C19.6896 141.214 19.8262 141.068 19.9221 140.972C19.97 140.924 20.0075 140.889 20.0318 140.866C20.0439 140.855 20.0527 140.847 20.0578 140.843C20.0604 140.841 20.062 140.839 20.0627 140.839C20.063 140.838 20.0631 140.838 20.0629 140.839C20.0628 140.839 20.0627 140.839 20.0625 140.839C20.0624 140.839 20.0622 140.839 20.0621 140.839C20.0619 140.839 20.0616 140.84 19.6726 140.383ZM19.0726 127.057V140.383H20.2726V127.057H19.0726ZM15.2167 108.401C14.6174 108.373 14.6174 108.373 14.6174 108.373C14.6174 108.373 14.6174 108.373 14.6174 108.374C14.6173 108.374 14.6173 108.375 14.6173 108.376C14.6172 108.378 14.617 108.38 14.6169 108.384C14.6166 108.391 14.6161 108.401 14.6156 108.414C14.6145 108.44 14.613 108.478 14.6113 108.528C14.6079 108.627 14.6036 108.773 14.6 108.959C14.5928 109.332 14.5883 109.869 14.5989 110.53C14.6201 111.852 14.7019 113.675 14.9446 115.679C15.4254 119.649 16.5534 124.48 19.226 127.458L20.1192 126.656C17.7134 123.976 16.6134 119.478 16.1359 115.535C15.8995 113.583 15.8195 111.803 15.7987 110.511C15.7884 109.865 15.7928 109.343 15.7998 108.982C15.8033 108.802 15.8074 108.663 15.8106 108.569C15.8122 108.522 15.8136 108.487 15.8146 108.463C15.8151 108.452 15.8154 108.443 15.8157 108.437C15.8158 108.435 15.8159 108.433 15.816 108.431C15.816 108.431 15.816 108.43 15.816 108.43C15.816 108.43 15.816 108.43 15.816 108.43C15.816 108.43 15.816 108.43 15.2167 108.401ZM5.52088 89.0778C6.27877 96.831 8.50993 103.635 14.8344 108.864L15.599 107.939C9.61412 102.991 7.45679 96.5477 6.71518 88.961L5.52088 89.0778ZM6.13689 80.701C5.63712 83.2031 5.25367 86.337 5.52086 89.0776L6.7152 88.9612C6.46449 86.3896 6.82393 83.3878 7.31365 80.9361L6.13689 80.701ZM15.9977 71.7623C10.711 71.7623 7.08287 75.965 6.13689 80.701L7.31365 80.9361C8.18354 76.581 11.4488 72.9623 15.9977 72.9623V71.7623ZM20.5899 72.93C19.2252 72.1853 17.66 71.7623 15.9977 71.7623V72.9623C17.4541 72.9623 18.8223 73.3325 20.0151 73.9834L20.5899 72.93ZM19.7923 72.808C19.7584 73.0006 19.7299 73.193 19.7068 73.385L20.8982 73.5283C20.9187 73.3581 20.944 73.1874 20.9741 73.0163L19.7923 72.808ZM22.1928 67.7621C20.989 69.1487 20.1341 70.8696 19.7923 72.808L20.9741 73.0163C21.2771 71.2981 22.0337 69.7758 23.0989 68.5489L22.1928 67.7621ZM20.7553 64.3055C20.9673 65.7682 21.4344 67.1647 22.117 68.4388L23.1748 67.8722C22.5569 66.7188 22.1345 65.4556 21.9429 64.1334L20.7553 64.3055ZM13.3453 50.8666C12.2866 56.8708 15.6676 62.6296 21.1295 64.7778L21.5687 63.6611C16.6275 61.7177 13.5694 56.5061 14.5271 51.075L13.3453 50.8666ZM14.4673 47.4463C13.9434 48.5019 13.5601 49.6488 13.3453 50.8666L14.5271 51.075C14.7217 49.9713 15.0687 48.9338 15.5422 47.9799L14.4673 47.4463ZM12.1274 40.4976C11.6151 43.403 12.6266 46.2245 14.585 48.1418L15.4245 47.2843C13.7369 45.6322 12.8685 43.205 13.3091 40.706L12.1274 40.4976ZM16.9109 34.2202C14.4836 35.3738 12.63 37.647 12.1274 40.4976L13.3091 40.706C13.7415 38.254 15.3344 36.2981 17.426 35.304L16.9109 34.2202ZM16.0071 30.012C15.6977 31.7668 15.9443 33.4928 16.6206 35.0068L17.7163 34.5173C17.1346 33.2152 16.9224 31.7318 17.1889 30.2204L16.0071 30.012ZM24.0486 22.9143C20.1271 23.1063 16.7178 25.9816 16.0071 30.012L17.1889 30.2204C17.8002 26.7537 20.7331 24.278 24.1073 24.1129L24.0486 22.9143ZM23.6524 21.2058C23.5147 21.9871 23.4586 22.7644 23.4782 23.5289L24.6778 23.4982C24.6602 22.8133 24.7105 22.1161 24.8342 21.4142L23.6524 21.2058ZM37.0905 11.7964C30.7814 10.6839 24.7649 14.8967 23.6524 21.2058L24.8342 21.4142C25.8316 15.7577 31.2257 11.9808 36.8822 12.9781L37.0905 11.7964ZM42.1889 14.0539C40.7453 12.9318 39.0146 12.1356 37.0905 11.7964L36.8822 12.9781C38.6092 13.2827 40.1594 13.9963 41.4525 15.0013L42.1889 14.0539ZM54.5269 10.8092C49.7173 9.9611 45.0258 11.2762 41.4525 14.0539L42.189 15.0013C45.5059 12.4229 49.8566 11.2042 54.3185 11.9909L54.5269 10.8092ZM65.703 18.3299C63.2952 14.4976 59.3364 11.6572 54.5269 10.8092L54.3185 11.9909C58.7803 12.7777 62.4519 15.411 64.6869 18.9683L65.703 18.3299ZM70.574 17.7004C68.6499 17.3611 66.7514 17.5173 65.011 18.078L65.3789 19.2202C66.9378 18.718 68.6386 18.5777 70.3656 18.8822L70.574 17.7004ZM79.9834 31.1385C81.0959 24.8293 76.8832 18.8129 70.574 17.7004L70.3656 18.8822C76.0221 19.8796 79.7991 25.2736 78.8017 30.9301L79.9834 31.1385ZM79.3527 33.3811C79.6326 32.6694 79.8457 31.9197 79.9835 31.1385L78.8017 30.9301C78.6779 31.632 78.4867 32.3044 78.2359 32.9419L79.3527 33.3811ZM84.1558 42.0285C84.8665 37.998 82.6462 34.1301 79.0268 32.6084L78.5618 33.7146C81.676 35.0239 83.5853 38.3534 82.974 41.8201L84.1558 42.0285ZM81.871 46.5122C83.0244 45.3208 83.8464 43.7832 84.1558 42.0285L82.974 41.8201C82.7075 43.3315 82.0008 44.6529 81.0088 45.6775L81.871 46.5122ZM84.2153 53.2087C84.7179 50.358 83.7536 47.588 81.8673 45.6737L81.0125 46.516C82.638 48.1655 83.4659 50.5483 83.0335 53.0003L84.2153 53.2087ZM79.2914 59.5513C81.7875 58.4194 83.703 56.114 84.2153 53.2087L83.0335 53.0003C82.5929 55.4993 80.9467 57.4831 78.7958 58.4584L79.2914 59.5513ZM79.5244 62.5358C79.7391 61.318 79.7712 60.1091 79.6398 58.938L78.4473 59.0717C78.566 60.1301 78.5372 61.2237 78.3426 62.3274L79.5244 62.5358Z" fill="black"/>
<path d="M45.9095 57.0715C43.7207 56.6856 41.7312 55.9318 40.0542 54.9286C39.6896 55.6255 39.4214 56.3842 39.2759 57.2094C38.5837 61.1352 40.8894 64.8195 44.4244 65.4428C47.9595 66.0662 51.3862 63.3926 52.0785 59.4668C52.2239 58.6417 52.2315 57.837 52.1272 57.0574C50.217 57.428 48.0896 57.4559 45.8921 57.0684L45.9008 57.07L45.9095 57.0715Z" stroke="#111111" stroke-width="1.2" stroke-miterlimit="10"/>
<path d="M35.4132 49.404C36.4078 49.5794 37.4122 48.6684 37.6423 47.3636C37.8724 46.0588 37.2527 44.8615 36.2455 44.6839C35.2384 44.5063 34.2466 45.4195 34.0165 46.7243C33.7864 48.0291 34.4061 49.2264 35.4132 49.404Z" fill="#111111"/>
<path d="M58.3773 53.4531C57.3827 53.2778 56.7504 52.0783 56.9805 50.7734C57.2106 49.4686 58.2024 48.5555 59.2096 48.7331C60.2167 48.9107 60.8364 50.1079 60.6063 51.4128C60.3762 52.7176 59.3845 53.6307 58.3773 53.4531Z" fill="#111111"/>
<path d="M49.9971 50.5689C49.9774 50.5451 49.9573 50.5241 49.9366 50.5059C49.7637 50.3443 49.5495 50.2513 49.3328 50.1723C48.0874 49.7198 46.5908 49.5491 45.2688 49.546C44.7814 49.5444 44.2505 49.5789 43.881 49.901C43.5084 50.2254 43.3954 50.7761 43.4762 51.265C43.5595 51.7542 43.808 52.194 44.0651 52.6149C44.5829 53.4661 45.2427 54.3539 46.2104 54.5624C47.0584 54.744 47.9231 54.3491 48.6606 53.8794C49.3648 53.4329 50.316 52.7884 50.3767 51.783C50.4012 51.3884 50.2555 50.862 49.9976 50.5661L49.9971 50.5689Z" fill="#F39D94"/>
<path d="M27.4925 52.7966L25.4175 55.1805" stroke="#EFA0B5" stroke-width="1.2" stroke-miterlimit="10"/>
<path d="M29.7805 53.1998L27.7173 55.5858" stroke="#EFA0B5" stroke-width="1.2" stroke-miterlimit="10"/>
<path d="M32.0951 53.6082L30.02 55.992" stroke="#EFA0B5" stroke-width="1.2" stroke-miterlimit="10"/>
<path d="M61.6673 58.822L59.5923 61.2059" stroke="#EFA0B5" stroke-width="1.2" stroke-miterlimit="10"/>
<path d="M63.967 59.2282L61.9038 61.6141" stroke="#EFA0B5" stroke-width="1.2" stroke-miterlimit="10"/>
<path d="M66.2688 59.6344L64.2055 62.0204" stroke="#EFA0B5" stroke-width="1.2" stroke-miterlimit="10"/>
<path d="M46.3389 54.5859L45.8179 57.5404" stroke="black" stroke-width="1.2"/>
<path d="M24.7186 34.1494C24.3218 36.3996 25.7789 38.5403 27.978 38.928C29.9982 39.2843 31.9328 38.0325 32.5395 36.0812C33.0536 36.5064 33.6745 36.8086 34.3731 36.9318C36.4552 37.2989 38.4479 35.9593 38.991 33.9058C39.5527 34.9867 40.5739 35.7959 41.8438 36.0198C43.9053 36.3833 45.8855 35.0742 46.4489 33.0461C47.0756 34.644 48.4683 35.8824 50.251 36.1967C52.0337 36.511 53.7659 35.8237 54.9013 34.5365C54.7377 36.6314 56.1467 38.5418 58.2116 38.9059C59.4815 39.1298 60.7185 38.7152 61.6154 37.8951C61.4228 40.014 62.8377 41.9509 64.9198 42.318C65.6185 42.4412 66.3053 42.3696 66.9338 42.1458C66.8365 44.187 68.2298 46.0255 70.2465 46.3811C72.4422 46.7683 74.5464 45.2592 74.9438 43.0054" stroke="black" stroke-width="1.2" stroke-miterlimit="10"/>
<path d="M20.5 73.5C23.5 75.5 26.6 80 25 86C23.4 92 25 96.1667 26 97.5" stroke="black" stroke-width="1.2"/>
<path d="M2.24414 106.308C2.36011 108.145 3.69331 112.35 8.09832 114.468" stroke="#111111" stroke-width="1.2"/>
<path d="M2.1084 114.455C2.54548 115.534 4.4973 118.055 8.80786 119.502" stroke="#111111" stroke-width="1.2"/>
<path d="M81.5098 122.358C82.5647 123.867 84.1438 127.986 82.0203 132.388" stroke="#111111" stroke-width="1.2"/>
<path d="M86.6953 128.644C87.0265 129.76 87.0718 132.947 84.6037 136.766" stroke="#111111" stroke-width="1.2"/>
<path d="M54.88 86.3673C54.7106 87.6672 53.6434 90.0088 50.7299 88.9759C50.2498 89.8671 48.8314 91.3677 46.9988 90.2404" stroke="#D9D9D9" stroke-width="1.2" stroke-miterlimit="10"/>
<path d="M38.9656 78.1637C37.4323 78.3676 34.4376 77.8664 34.7251 74.2302C33.5627 73.9552 31.4192 72.7969 32.1444 70.364" stroke="#D9D9D9" stroke-width="1.2" stroke-miterlimit="10"/>
<path d="M29.3604 118.977C28.0808 119.131 25.6024 118.676 25.9252 115.633C24.9651 115.389 23.2096 114.394 23.8686 112.364" stroke="#D9D9D9" stroke-width="1.2" stroke-miterlimit="10"/>
</svg>
