<svg width="48" height="120" viewBox="0 0 48 120" fill="none" xmlns="http://www.w3.org/2000/svg">
<g clip-path="url(#clip0_332_16551)">
<path d="M3.9802 26.55H20.0202C20.8602 26.55 21.5502 27.23 21.5502 28.08V43.93C21.5502 44.77 20.8702 45.46 20.0202 45.46H7.8202C4.8502 45.46 2.4502 43.05 2.4502 40.09V28.08C2.4502 27.24 3.1302 26.55 3.9802 26.55Z" stroke="#BDC0D2" stroke-width="1.5" stroke-linecap="square" stroke-linejoin="bevel"/>
<path d="M2.7998 33.34H21.5498" stroke="#BDC0D2" stroke-width="1.5" stroke-linecap="square" stroke-linejoin="bevel"/>
<path d="M2.78027 39.63H6.79027C7.72027 39.63 8.47027 40.38 8.47027 41.31V45.28" stroke="#BDC0D2" stroke-width="1.5" stroke-linecap="square" stroke-linejoin="bevel"/>
<path d="M12.4004 36.2V39.24" stroke="#BDC0D2" stroke-width="1.5" stroke-linecap="square" stroke-linejoin="bevel"/>
<path d="M12.4004 41.78V41.82" stroke="#BDC0D2" stroke-width="1.5" stroke-linecap="square" stroke-linejoin="bevel"/>
<path opacity="0.1" d="M7.68051 26.82H3.02051V39.48H7.68051V26.82Z" fill="#BDC0D2"/>
<path d="M2.34007 11.78V19.73C2.34007 20.88 3.28008 21.82 4.43008 21.82H19.5701C20.7201 21.82 21.6601 20.88 21.6601 19.73V11.78C21.6601 11.22 21.4401 10.69 21.0401 10.3L13.4701 2.78C12.6501 1.97 11.3401 1.97 10.5201 2.78L2.95007 10.3C2.55007 10.69 2.33008 11.23 2.33008 11.78H2.34007Z" stroke="#BDC0D2" stroke-width="1.5" stroke-linecap="square" stroke-linejoin="bevel"/>
<path d="M7.61035 17.47H16.2703" stroke="#BDC0D2" stroke-width="1.5" stroke-linecap="square" stroke-linejoin="bevel"/>
<path opacity="0.1" d="M7.6102 21.62H2.9502V8.96L7.6102 5.67999V21.62Z" fill="#BDC0D2"/>
<path d="M20.7793 50.42H4.64934C3.9148 50.42 3.31934 51.0155 3.31934 51.75V68.23C3.31934 68.9645 3.9148 69.56 4.64934 69.56H20.7793C21.5139 69.56 22.1093 68.9645 22.1093 68.23V51.75C22.1093 51.0155 21.5139 50.42 20.7793 50.42Z" stroke="#BDC0D2" stroke-width="1.5" stroke-linecap="square" stroke-linejoin="bevel"/>
<path d="M1.88965 54.61H4.75965" stroke="#BDC0D2" stroke-width="1.5" stroke-linecap="square" stroke-linejoin="bevel"/>
<path d="M1.88965 58.08H4.75965" stroke="#BDC0D2" stroke-width="1.5" stroke-linecap="square" stroke-linejoin="bevel"/>
<path d="M1.88965 61.91H4.75965" stroke="#BDC0D2" stroke-width="1.5" stroke-linecap="square" stroke-linejoin="bevel"/>
<path d="M1.88965 65.38H4.75965" stroke="#BDC0D2" stroke-width="1.5" stroke-linecap="square" stroke-linejoin="bevel"/>
<path d="M18.1992 54.82V57.96" stroke="#BDC0D2" stroke-width="1.5" stroke-linecap="square" stroke-linejoin="bevel"/>
<path opacity="0.1" d="M9 51.0001H4V69.0001H9V51.0001Z" fill="#BDC0D2"/>
<path d="M20.4956 73.9899H3.50342C2.7718 73.9899 2.17871 74.583 2.17871 75.3146V92.6753C2.17871 93.4069 2.7718 94 3.50342 94H20.4956C21.2272 94 21.8203 93.4069 21.8203 92.6753V75.3146C21.8203 74.583 21.2272 73.9899 20.4956 73.9899Z" stroke="#BDC0D2" stroke-width="1.5" stroke-linecap="square" stroke-linejoin="bevel"/>
<path d="M4.9873 86.5001C4.9873 86.5001 11.3619 83.7012 13.7125 90.1355" stroke="#BDC0D2" stroke-width="1.5" stroke-linecap="square" stroke-linejoin="bevel"/>
<path d="M19.0115 88.6813C19.0115 88.6813 16.3322 85.5338 13.1748 88.3725" stroke="#BDC0D2" stroke-width="1.5" stroke-linecap="square" stroke-linejoin="bevel"/>
<path d="M15.3561 82.8545C16.5608 82.8545 17.5374 81.8779 17.5374 80.6732C17.5374 79.4685 16.5608 78.4919 15.3561 78.4919C14.1514 78.4919 13.1748 79.4685 13.1748 80.6732C13.1748 81.8779 14.1514 82.8545 15.3561 82.8545Z" stroke="#BDC0D2" stroke-width="1.5" stroke-linecap="square" stroke-linejoin="bevel"/>
<path opacity="0.1" d="M8.0152 74.0397H2.03906V93.9602H8.0152V74.0397Z" fill="#BDC0D2"/>
<path d="M19.5896 98.5512H4.39961C3.4055 98.5512 2.59961 99.3571 2.59961 100.351V115.541C2.59961 116.535 3.4055 117.341 4.39961 117.341H19.5896C20.5837 117.341 21.3896 116.535 21.3896 115.541V100.351C21.3896 99.3571 20.5837 98.5512 19.5896 98.5512Z" stroke="#BDC0D2" stroke-width="1.5" stroke-linecap="square" stroke-linejoin="bevel"/>
<path d="M8.42969 97.3511V101.111" stroke="#BDC0D2" stroke-width="1.5" stroke-linecap="square" stroke-linejoin="bevel"/>
<path d="M15.2598 97.3511V101.111" stroke="#BDC0D2" stroke-width="1.5" stroke-linecap="square" stroke-linejoin="bevel"/>
<path d="M3.80957 104.281H20.4396" stroke="#BDC0D2" stroke-width="1.5" stroke-linecap="square" stroke-linejoin="bevel"/>
<path d="M9.17969 108.721L11.4497 112.291C11.7297 112.741 12.3797 112.741 12.6697 112.291L15.0297 108.641" stroke="#BDC0D2" stroke-width="1.5" stroke-linecap="square" stroke-linejoin="bevel"/>
<path opacity="0.1" d="M8.17954 98.7113H3.51953V117.031H8.17954V98.7113Z" fill="#BDC0D2"/>
<g clip-path="url(#clip1_332_16551)">
<path d="M26.3401 11.56V19.51C26.3401 20.66 27.2801 21.6 28.4301 21.6H43.5701C44.7201 21.6 45.6601 20.66 45.6601 19.51V11.56C45.6601 11 45.4401 10.47 45.0401 10.08L37.4701 2.56C36.6501 1.75 35.3401 1.75 34.5201 2.56L26.9501 10.08C26.5501 10.47 26.3301 11.01 26.3301 11.56H26.3401Z" fill="#4252E2" stroke="#4252E2" stroke-miterlimit="10"/>
<path d="M31.6104 17.25H40.2704" stroke="white" stroke-width="1.5" stroke-linecap="square" stroke-linejoin="bevel"/>
<path opacity="0.1" d="M31.6098 21.62H28.4198C27.2698 21.62 26.3398 20.69 26.3398 19.54V11.42C26.3398 10.93 26.5298 10.47 26.8798 10.13L31.6098 5.46V21.62Z" fill="#111111"/>
</g>
<path d="M27.9792 26.55H44.0192C44.8592 26.55 45.5492 27.23 45.5492 28.08V43.93C45.5492 44.77 44.8692 45.46 44.0192 45.46H31.8192C28.8492 45.46 26.4492 43.05 26.4492 40.09V28.08C26.4492 27.24 27.1292 26.55 27.9792 26.55Z" fill="#4252E2" stroke="#4252E2" stroke-miterlimit="10"/>
<path d="M26.4492 33.34H45.5492" stroke="white" stroke-miterlimit="10"/>
<path opacity="0.1" d="M28.0492 26.55H31.6792V39.37H26.4492V28.14C26.4492 27.26 27.1592 26.55 28.0392 26.55H28.0492Z" fill="#111111"/>
<path d="M26.4297 39.6301H30.7897C31.7197 39.6301 32.4697 40.3801 32.4697 41.3101V45.4501" stroke="white" stroke-miterlimit="10"/>
<path d="M36.3994 36.2V39.24" stroke="white" stroke-width="1.5" stroke-linecap="square" stroke-linejoin="bevel"/>
<path d="M36.3994 41.78V41.82" stroke="white" stroke-width="1.5" stroke-linecap="square" stroke-linejoin="bevel"/>
<path d="M44.7801 50.4299H28.6601C27.9201 50.4299 27.3301 51.0299 27.3301 51.7599V53.3699H30.0201V55.8699H27.3301V56.8399H30.0201V59.3399H27.3301V60.6599H30.0201V63.1599H27.3301V64.1299H30.0201V66.6299H27.3301V68.2399C27.3301 68.9799 27.9301 69.5699 28.6601 69.5699H44.7801C45.5201 69.5699 46.1101 68.9699 46.1101 68.2399V51.7599C46.1101 51.0199 45.5101 50.4299 44.7801 50.4299Z" fill="#4252E2" stroke="#4252E2" stroke-miterlimit="10"/>
<path d="M42.2002 54.8199V57.9699" stroke="white" stroke-width="1.5" stroke-linecap="square" stroke-linejoin="bevel"/>
<mask id="mask0_332_16551" style="mask-type:luminance" maskUnits="userSpaceOnUse" x="27" y="50" width="20" height="20">
<path d="M44.7801 50.4299H28.6601C27.9201 50.4299 27.3301 51.0299 27.3301 51.7599V53.3699H30.0201V55.8699H27.3301V56.8399H30.0201V59.3399H27.3301V60.6599H30.0201V63.1599H27.3301V64.1299H30.0201V66.6299H27.3301V68.2399C27.3301 68.9799 27.9301 69.5699 28.6601 69.5699H44.7801C45.5201 69.5699 46.1101 68.9699 46.1101 68.2399V51.7599C46.1101 51.0199 45.5101 50.4299 44.7801 50.4299Z" fill="white"/>
</mask>
<g mask="url(#mask0_332_16551)">
<path opacity="0.1" d="M32.0505 49.9599H26.5605V70.0599H32.0505V49.9599Z" fill="black"/>
</g>
<path d="M44.5296 73.95H27.4696C26.7351 73.95 26.1396 74.5455 26.1396 75.28V92.71C26.1396 93.4445 26.7351 94.04 27.4696 94.04H44.5296C45.2642 94.04 45.8596 93.4445 45.8596 92.71V75.28C45.8596 74.5455 45.2642 73.95 44.5296 73.95Z" fill="#4252E2" stroke="#4252E2" stroke-miterlimit="10"/>
<path d="M28.96 86.5C28.96 86.5 35.36 83.69 37.72 90.15" stroke="white" stroke-width="1.5" stroke-linecap="square" stroke-linejoin="bevel"/>
<path d="M43.0397 88.7C43.0397 88.7 40.3497 85.54 37.1797 88.39" stroke="white" stroke-width="1.5" stroke-linecap="square" stroke-linejoin="bevel"/>
<path d="M39.3697 82.85C40.5792 82.85 41.5597 81.8695 41.5597 80.66C41.5597 79.4505 40.5792 78.47 39.3697 78.47C38.1602 78.47 37.1797 79.4505 37.1797 80.66C37.1797 81.8695 38.1602 82.85 39.3697 82.85Z" stroke="white" stroke-width="1.5" stroke-linecap="square" stroke-linejoin="bevel"/>
<path opacity="0.1" d="M27.4496 73.95H31.2896V94.04H27.3996C26.7096 94.04 26.1396 93.48 26.1396 92.78V75.26C26.1396 74.54 26.7196 73.95 27.4496 73.95Z" fill="#111111"/>
<path d="M43.5896 98.2H28.3996C27.4055 98.2 26.5996 99.0059 26.5996 100V115.19C26.5996 116.184 27.4055 116.99 28.3996 116.99H43.5896C44.5837 116.99 45.3896 116.184 45.3896 115.19V100C45.3896 99.0059 44.5837 98.2 43.5896 98.2Z" fill="#4252E2" stroke="#4252E2" stroke-miterlimit="10"/>
<path d="M32.4297 97V100.76" stroke="white" stroke-miterlimit="10"/>
<path d="M39.2598 97V100.76" stroke="white" stroke-miterlimit="10"/>
<path d="M27.8096 103.94H44.4396" stroke="white" stroke-miterlimit="10"/>
<path d="M33.1797 108.37L35.4497 111.94C35.7297 112.39 36.3797 112.39 36.6697 111.94L39.0297 108.29" stroke="white" stroke-width="1.5" stroke-linecap="square" stroke-linejoin="bevel"/>
<path opacity="0.1" d="M28.3696 98.2H32.1696V116.99H28.2796C27.3496 116.99 26.5996 116.24 26.5996 115.31V99.97C26.5996 98.99 27.3896 98.2 28.3696 98.2Z" fill="#111111"/>
</g>
<defs>
<clipPath id="clip0_332_16551">
<rect width="48" height="120" fill="white"/>
</clipPath>
<clipPath id="clip1_332_16551">
<rect width="24" height="24" fill="white" transform="translate(24)"/>
</clipPath>
</defs>
</svg>
