<svg width="118" height="27" viewBox="0 0 118 27" fill="none" xmlns="http://www.w3.org/2000/svg">
<path d="M91.9324 2.55661C91.9324 1.14463 90.7717 0 89.3399 0C87.908 0 86.7473 1.14463 86.7473 2.55661V23.572C86.7473 24.9839 87.908 26.1286 89.3399 26.1286C90.7717 26.1286 91.9324 24.9839 91.9324 23.572V2.55661Z" fill="#4252E2"/>
<path d="M64.7487 14.7126C63.8454 13.6173 61.9952 13.6254 60.6115 14.7315L56.2042 18.2165V2.55661C56.2042 1.14375 55.0443 0 53.6116 0C52.1789 0 51.019 1.14375 51.019 2.55661V23.572C51.019 24.9848 52.1789 26.1286 53.6116 26.1286C54.4358 26.1286 55.1672 25.7491 55.642 25.1571C55.8194 25.0575 55.9913 24.9418 56.1551 24.8099L63.8782 18.7009C65.2591 17.5949 65.6493 15.8079 64.746 14.7126H64.7487Z" fill="#4252E2"/>
<path d="M96.056 24.9579V13.5716L102.742 8.12734L109.428 13.6227V24.9579H104.439V21.4217H101.042V24.9579H96.0532H96.056ZM104.439 16.9732V15.4043L102.742 13.9914L101.045 15.4043V16.9732H104.442H104.439Z" fill="#00DDDD"/>
<path d="M111.993 13.577H116.982V25.3212H111.993V13.577Z" fill="#00DDDD"/>
<path d="M0.859641 21.0692H9.89269C10.3675 21.0692 10.7523 21.4486 10.7523 21.9169C10.7523 22.3851 10.3675 22.7646 9.89269 22.7646H6.32041V24.7588C6.32041 25.2728 5.89741 25.6899 5.37616 25.6899C4.85492 25.6899 4.43192 25.2728 4.43192 24.7588V22.7646H0.859641C0.384792 22.7646 0 22.3851 0 21.9169C0 21.4486 0.384792 21.0692 0.859641 21.0692ZM4.31185 20.0438C3.68144 20.0438 3.11927 19.9308 2.62259 19.7047C2.1259 19.4787 1.73838 19.1584 1.46002 18.744C1.18166 18.3295 1.04248 17.8532 1.04248 17.3123C1.04248 16.7714 1.18166 16.3058 1.46002 15.8913C1.73838 15.4769 2.1259 15.1593 2.62259 14.936C3.11927 14.7126 3.68144 14.6023 4.31185 14.6023H6.44321C7.0818 14.6023 7.64944 14.7126 8.14339 14.936C8.64007 15.1593 9.02759 15.4769 9.30595 15.8913C9.58431 16.3058 9.72349 16.7794 9.72349 17.3123C9.72349 17.8451 9.58431 18.3322 9.30595 18.744C9.02759 19.1584 8.63734 19.4787 8.13793 19.7047C7.63852 19.9308 7.07361 20.0438 6.44321 20.0438H4.31185ZM4.67481 16.1981C4.13446 16.1981 3.70873 16.295 3.39763 16.4915C3.08652 16.6879 2.93096 16.9624 2.93096 17.3204C2.93096 17.6783 3.08652 17.9582 3.39763 18.1627C3.70873 18.3645 4.13446 18.4668 4.67481 18.4668H6.08025C6.6206 18.4668 7.04905 18.3645 7.36289 18.1627C7.67673 17.9609 7.83501 17.6783 7.83501 17.3204C7.83501 16.9624 7.67673 16.6852 7.36289 16.4915C7.04905 16.2977 6.6206 16.1981 6.08025 16.1981H4.67481Z" fill="#4252E2"/>
<path d="M11.975 22.4551V20.2834C11.975 19.398 12.7009 18.6821 13.5987 18.6821H15.8747V16.7229H12.8182C12.3543 16.7229 11.9777 16.3516 11.9777 15.8941C11.9777 15.4366 12.3543 15.0652 12.8182 15.0652H16.7726C17.3211 15.0652 17.7632 15.5038 17.7632 16.0421V19.328C17.7632 19.8689 17.3184 20.3049 16.7726 20.3049H14.2892C14.0545 20.3049 13.8635 20.4933 13.8635 20.7247V21.9761C13.8635 22.2075 14.0545 22.3959 14.2892 22.3959H14.8814C15.8065 22.3959 16.7753 22.334 17.7878 22.2102C18.2381 22.1537 18.6502 22.4632 18.7157 22.9046C18.7811 23.354 18.4591 23.7657 18.0034 23.8303C16.9254 23.981 15.771 24.0564 14.543 24.0564H13.5987C12.7009 24.0564 11.975 23.3405 11.975 22.4551ZM20.525 25.5715C20.0037 25.5715 19.5807 25.1544 19.5807 24.6404V15.2912C19.5807 14.7772 20.0037 14.3601 20.525 14.3601C21.0462 14.3601 21.4692 14.7772 21.4692 15.2912V24.6404C21.4692 25.1544 21.0462 25.5715 20.525 25.5715Z" fill="#4252E2"/>
<path d="M36.3205 2.08028C30.1856 2.08028 25.2134 7.02934 25.2134 13.1329C25.2134 19.2365 30.1856 24.1856 36.3205 24.1856C42.4553 24.1856 47.4276 19.2365 47.4276 13.1329C47.4276 7.02934 42.4553 2.08028 36.3205 2.08028ZM42.7337 14.7288C42.7337 14.7288 42.72 14.7288 42.7118 14.7288C41.9968 17.5572 39.4288 19.6563 36.3614 19.6563C33.294 19.6563 30.7233 17.5545 30.0083 14.7207C29.9728 14.7234 29.94 14.7315 29.9046 14.7315C29.2032 14.7315 28.6328 14.1663 28.6328 13.4666C28.6328 12.7669 29.1868 12.2179 29.8773 12.2045C30.2293 9.74742 31.9541 7.73173 34.2546 6.95668V9.33029H38.3782V6.92707C40.7224 7.68329 42.4853 9.7232 42.8401 12.2125C43.4896 12.269 43.9999 12.8046 43.9999 13.4666C43.9999 14.1663 43.4323 14.7315 42.7282 14.7315L42.7337 14.7288Z" fill="#4252E2"/>
<path d="M39.4998 13.7492C39.3334 13.7492 39.1997 13.881 39.1997 14.0452C39.1997 14.9979 37.9334 15.8025 36.4324 15.8025C34.9315 15.8025 33.6652 14.9979 33.6652 14.0452C33.6652 13.881 33.5315 13.7492 33.365 13.7492C33.1985 13.7492 33.0648 13.881 33.0648 14.0452C33.0648 15.3397 34.5767 16.3946 36.4324 16.3946C38.2882 16.3946 39.8 15.3397 39.8 14.0452C39.8 13.881 39.6663 13.7492 39.4998 13.7492Z" fill="#4252E2"/>
<path d="M34.282 12.6323C34.5774 12.6323 34.8168 12.2865 34.8168 11.86C34.8168 11.4334 34.5774 11.0876 34.282 11.0876C33.9865 11.0876 33.7471 11.4334 33.7471 11.86C33.7471 12.2865 33.9865 12.6323 34.282 12.6323Z" fill="#4252E2"/>
<path d="M38.3072 12.6323C38.602 12.6323 38.8421 12.2879 38.8421 11.86C38.8421 11.4321 38.602 11.0876 38.3072 11.0876C38.0125 11.0876 37.7723 11.4321 37.7723 11.86C37.7723 12.2879 38.0125 12.6323 38.3072 12.6323Z" fill="#4252E2"/>
<path d="M72.3354 2.21752C66.2005 2.21752 61.2283 7.16658 61.2283 13.2702C61.2283 19.3737 66.2005 24.3228 72.3354 24.3228C78.4702 24.3228 83.4425 19.3737 83.4425 13.2702C83.4425 7.16658 78.4702 2.21752 72.3354 2.21752ZM76.4698 5.02441L77.4441 7.23925L79.9521 7.3146L78.2246 9.71781L77.3977 7.32536L74.8106 7.1908L76.4698 5.02441ZM78.7895 15.0221C78.7759 15.0221 78.7622 15.0194 78.7458 15.0167C78.0581 17.8882 75.471 20.025 72.3763 20.025C69.2816 20.025 66.6945 17.8882 66.0068 15.0167C65.9931 15.0167 65.9795 15.0221 65.9658 15.0221C65.2645 15.0221 64.6941 14.457 64.6941 13.7573C64.6941 13.0576 65.2317 12.5301 65.9085 12.4978C66.2906 10.0515 68.0344 8.05736 70.3459 7.30653C71.3311 8.30226 72.963 9.61017 74.756 9.61017C74.756 9.61017 73.5907 8.23767 73.2823 7.04817C76.1424 7.44108 78.4074 9.66668 78.8495 12.4978C79.5236 12.5274 80.064 13.0764 80.064 13.7573C80.064 14.4381 79.4936 15.0221 78.7922 15.0221H78.7895Z" fill="#4252E2"/>
<path d="M75.5201 13.7492C75.3536 13.7492 75.2199 13.8811 75.2199 14.0452C75.2199 14.9979 73.9536 15.8025 72.4527 15.8025C70.9517 15.8025 69.6855 14.9979 69.6855 14.0452C69.6855 13.8811 69.5517 13.7492 69.3853 13.7492C69.2188 13.7492 69.0851 13.8811 69.0851 14.0452C69.0851 15.3397 70.597 16.3946 72.4527 16.3946C74.3084 16.3946 75.8203 15.3397 75.8203 14.0452C75.8203 13.8811 75.6866 13.7492 75.5201 13.7492Z" fill="#4252E2"/>
<path d="M70.3022 12.6323C70.597 12.6323 70.8371 12.2879 70.8371 11.86C70.8371 11.4321 70.597 11.0876 70.3022 11.0876C70.0075 11.0876 69.7673 11.4321 69.7673 11.86C69.7673 12.2879 70.0075 12.6323 70.3022 12.6323Z" fill="#4252E2"/>
<path d="M74.3276 12.6323C74.6223 12.6323 74.8625 12.2879 74.8625 11.86C74.8625 11.4321 74.6223 11.0876 74.3276 11.0876C74.0329 11.0876 73.7927 11.4321 73.7927 11.86C73.7927 12.2879 74.0329 12.6323 74.3276 12.6323Z" fill="#4252E2"/>
<path d="M114.466 5.41193C112.556 5.41193 111.008 6.93783 111.008 8.82165C111.008 10.7055 112.556 12.2314 114.466 12.2314C116.376 12.2314 117.924 10.7055 117.924 8.82165C117.924 6.93783 116.376 5.41193 114.466 5.41193ZM114.466 11.1199C113.178 11.1199 112.135 10.0919 112.135 8.82165C112.135 7.55141 113.178 6.52339 114.466 6.52339C115.754 6.52339 116.797 7.55141 116.797 8.82165C116.797 10.0919 115.754 11.1199 114.466 11.1199Z" fill="#00DDDD"/>
<mask id="mask0_985_1038" style="mask-type:luminance" maskUnits="userSpaceOnUse" x="114" y="5" width="5" height="8">
<path d="M118 5.01096H114.33V12.557H118V5.01096Z" fill="white"/>
</mask>
<g mask="url(#mask0_985_1038)">
<path d="M114.461 5.41193C112.55 5.41193 111.003 6.93783 111.003 8.82165C111.003 10.7055 112.55 12.2314 114.461 12.2314C116.371 12.2314 117.918 10.7055 117.918 8.82165C117.918 6.93783 116.371 5.41193 114.461 5.41193ZM114.466 11.1199C113.178 11.1199 112.135 10.0919 112.135 8.82165C112.135 7.55141 113.178 6.52339 114.466 6.52339C115.754 6.52339 116.797 7.55141 116.797 8.82165C116.797 10.0919 115.754 11.1199 114.466 11.1199Z" fill="#77ECF2"/>
</g>
<path d="M115.724 8.42603C115.645 8.68169 115.397 8.86469 115.113 8.85124C114.774 8.83509 114.515 8.55252 114.532 8.21881C114.545 7.93086 114.761 7.70211 115.039 7.65367C114.884 7.5837 114.712 7.54602 114.529 7.54602C113.838 7.54602 113.282 8.09771 113.282 8.77589C113.282 9.45406 113.841 10.0058 114.529 10.0058C115.216 10.0058 115.776 9.45406 115.776 8.77589C115.776 8.65478 115.757 8.53637 115.724 8.42603Z" fill="#00D8D2"/>
</svg>
