<svg width="243" height="387" viewBox="0 0 243 387" fill="none" xmlns="http://www.w3.org/2000/svg">
<path d="M93.152 32.3779C95.3912 32.3779 97.2064 30.5627 97.2064 28.3235C97.2064 26.0843 95.3912 24.269 93.152 24.269C90.9128 24.269 89.0975 26.0843 89.0975 28.3235C89.0975 30.5627 90.9128 32.3779 93.152 32.3779Z" fill="white"/>
<path d="M73.0399 109.886H67.9542L66.8974 112.499H65.4434L69.8053 101.918H71.2721L75.6211 112.499H74.1031L73.0463 109.886H73.0399ZM72.5467 108.656L70.4971 103.545L68.4346 108.656H72.5467Z" fill="#6E88B7"/>
<path d="M78.4138 112.499H77.0239V101.918H78.4138V112.499Z" fill="#6E88B7"/>
<path d="M87.4897 108.163C85.312 108.163 83.9605 106.773 83.9605 104.883C83.9605 102.994 85.3056 101.604 87.4897 101.604C89.6739 101.604 91.0061 102.994 91.0061 104.883C91.0061 106.773 89.6739 108.163 87.4897 108.163ZM86.2215 111.442H94.4905V112.634H84.8829V108.944H86.2151V111.442H86.2215ZM87.4897 107.055C88.8092 107.055 89.6995 106.222 89.6995 104.89C89.6995 103.558 88.8156 102.712 87.4897 102.712C86.1639 102.712 85.2672 103.558 85.2672 104.89C85.2672 106.222 86.1511 107.055 87.4897 107.055ZM95.7715 104.173V105.428H94.1895V109.867H92.8828V101.489H94.1895V104.173H95.7715Z" fill="#6E88B7"/>
<path d="M96.9052 108.272V107.068C98.7948 106.805 99.9733 105.178 100.089 102.917H97.0461V101.783H104.245V102.917H101.408C101.382 103.526 101.274 104.108 101.12 104.646L104.585 107.221L103.842 108.176L100.659 105.755C99.89 107.17 98.5706 108.092 96.9052 108.265V108.272ZM107.544 111.455V112.634H97.6995V109.04H99.0317V111.455H107.544ZM106 104.16V101.489H107.307V109.879H106V105.306H103.81V104.16H106Z" fill="#6E88B7"/>
<path d="M109.684 107.465V106.331C112.867 106.318 114.865 105.313 114.865 103.263V102.879H109.684V101.771H116.185V103.039C116.185 106.145 113.597 107.465 109.684 107.465ZM119.778 110.411C119.778 112.14 117.651 112.775 114.942 112.775C112.233 112.775 110.106 112.14 110.106 110.411C110.106 108.682 112.246 108.048 114.942 108.048C117.639 108.048 119.778 108.682 119.778 110.411ZM118.388 110.411C118.388 109.527 116.87 109.13 114.942 109.13C113.014 109.13 111.496 109.527 111.496 110.411C111.496 111.295 113.027 111.679 114.942 111.679C116.857 111.679 118.388 111.308 118.388 110.411ZM121.193 103.801V105.056H119.611V107.657H118.305V101.489H119.611V103.801H121.193Z" fill="#6E88B7"/>
<path d="M129.699 103.948H122.045V102.802H125.203V101.374H126.535V102.802H129.693V103.948H129.699ZM126.529 110.943C128.021 110.93 129.315 110.795 130.097 110.443V111.635C129.386 111.955 127.996 112.108 126.414 112.108H122.103V110.943H125.222V109.265C123.621 109.092 122.635 108.246 122.635 106.978C122.635 105.537 123.903 104.64 125.901 104.64C127.9 104.64 129.168 105.537 129.168 106.978C129.168 108.259 128.162 109.105 126.535 109.277V110.943H126.529ZM125.895 108.233C127.227 108.233 127.919 107.689 127.919 106.978C127.919 106.267 127.234 105.71 125.895 105.71C124.556 105.71 123.871 106.267 123.871 106.978C123.871 107.689 124.556 108.233 125.895 108.233ZM133.901 107.215H132.345V112.781H131.038V101.495H132.345V105.96H133.901V107.215Z" fill="#6E88B7"/>
<path d="M149.78 106.408V107.426H138.507V106.408H149.78ZM149.12 105.466H139.16V104.473H141.158V102.609H139.282V101.617H149.005V102.609H147.128V104.473H149.126V105.466H149.12ZM140.569 111.679H149.197V112.646H139.288V110.033H147.717V109.309H139.262V108.342H148.998V110.943H140.569V111.686V111.679ZM142.458 104.48H145.815V102.616H142.458V104.48Z" fill="#6E88B7"/>
<path d="M153.795 108.208H151.56V104.403H155.115V102.872H151.56V101.777H156.345V105.479H152.777V107.119H153.885C155.141 107.119 156.236 106.997 156.979 106.709V107.791C156.236 108.092 155.089 108.214 153.795 108.214V108.208ZM162.077 112.775L157.03 110.859C155.826 112.025 153.936 112.614 152.06 112.627V111.506C154.212 111.481 156.46 110.501 156.883 108.65L158.177 108.925C158.087 109.297 157.94 109.636 157.741 109.956L162.577 111.686L162.077 112.768V112.775ZM158.99 108.419H157.747V101.559H158.99V104.192H160.828V101.495H162.071V109.463H160.828V105.396H158.99V108.419Z" fill="#6E88B7"/>
<path d="M175.201 106.991V108.035H163.928V106.991H168.912V105.857H164.575V104.826H166.574V102.661H164.697V101.63H174.42V102.661H172.543V104.826H174.542V105.857H170.205V106.991H175.201ZM164.71 109.066H174.407V112.647H164.71V109.066ZM166.016 111.615H173.113V110.085H166.016V111.615ZM167.88 104.82H171.237V102.655H167.88V104.82Z" fill="#6E88B7"/>
<path d="M167.592 33.5946C167.592 30.234 164.868 27.5098 161.507 27.5098C158.147 27.5098 155.422 30.234 155.422 33.5946V83.6121C155.422 86.9727 158.147 89.697 161.507 89.697C164.868 89.697 167.592 86.9727 167.592 83.6121V33.5946Z" fill="#4252E2"/>
<path d="M103.797 62.5264C101.677 59.9196 97.3345 59.9388 94.0871 62.5713L83.7429 70.8659V33.601C83.7429 30.2383 81.0207 27.5161 77.658 27.5161C74.2953 27.5161 71.5732 30.2383 71.5732 33.601V83.6185C71.5732 86.9812 74.2953 89.7033 77.658 89.7033C79.5924 89.7033 81.3089 88.8002 82.4234 87.3911C82.8398 87.1541 83.2433 86.8787 83.6276 86.5648L101.754 72.0252C104.995 69.3927 105.911 65.1397 103.791 62.5328L103.797 62.5264Z" fill="#4252E2"/>
<path d="M177.27 86.9111V59.8111L192.963 46.8535L208.655 59.9327V86.9111H196.947V78.4948H188.972V86.9111H177.264H177.27ZM196.953 67.9071V64.1729L192.969 60.8103L188.985 64.1729V67.9071H196.959H196.953Z" fill="#00DDDD"/>
<path d="M214.676 59.8237H226.385V87.7756H214.676V59.8237Z" fill="#00DDDD"/>
<path d="M19.1536 15.9745H40.3545C41.469 15.9745 42.3721 16.8777 42.3721 17.9922C42.3721 19.1066 41.469 20.0098 40.3545 20.0098H31.9703V24.7559C31.9703 25.9793 30.9775 26.9721 29.7541 26.9721C28.5307 26.9721 27.5379 25.9793 27.5379 24.7559V20.0098H19.1536C18.0391 20.0098 17.136 19.1066 17.136 17.9922C17.136 16.8777 18.0391 15.9745 19.1536 15.9745ZM27.2497 13.5278C25.7701 13.5278 24.4507 13.2588 23.2849 12.7207C22.1192 12.1827 21.2097 11.4205 20.5563 10.4341C19.903 9.44774 19.5764 8.31403 19.5764 7.02661C19.5764 5.73918 19.903 4.63109 20.5563 3.64471C21.2097 2.65832 22.1192 1.90252 23.2849 1.37089C24.4507 0.83927 25.7701 0.57666 27.2497 0.57666H32.2521C33.7509 0.57666 35.0831 0.83927 36.2425 1.37089C37.4082 1.90252 38.3177 2.65832 38.971 3.64471C39.6244 4.63109 39.951 5.75839 39.951 7.02661C39.951 8.29482 39.6244 9.45414 38.971 10.4341C38.3177 11.4205 37.4018 12.1827 36.2296 12.7207C35.0575 13.2588 33.7317 13.5278 32.2521 13.5278H27.2497ZM28.108 4.37489C26.8398 4.37489 25.8406 4.60547 25.1104 5.07305C24.3802 5.54062 24.0151 6.19394 24.0151 7.04582C24.0151 7.8977 24.3802 8.56383 25.1104 9.05062C25.8406 9.531 26.8398 9.7744 28.108 9.7744H31.4066C32.6748 9.7744 33.6804 9.531 34.417 9.05062C35.1536 8.57024 35.5251 7.8977 35.5251 7.04582C35.5251 6.19394 35.1536 5.53421 34.417 5.07305C33.6804 4.61188 32.6748 4.37489 31.4066 4.37489H28.108Z" fill="#4252E2"/>
<path d="M45.2416 19.2666V14.0976C45.2416 11.9904 46.9454 10.2866 49.0527 10.2866H54.3945V5.62369H47.2208C46.1319 5.62369 45.248 4.73978 45.248 3.65091C45.248 2.56204 46.1319 1.67814 47.2208 1.67814H56.5018C57.7892 1.67814 58.8269 2.72217 58.8269 4.00319V11.8238C58.8269 13.1113 57.7828 14.1489 56.5018 14.1489H50.6732C50.1223 14.1489 49.674 14.5972 49.674 15.1481V18.1265C49.674 18.6773 50.1223 19.1257 50.6732 19.1257H52.0631C54.2344 19.1257 56.5082 18.9783 58.8845 18.6837C59.9414 18.5492 60.9085 19.2858 61.0623 20.3362C61.216 21.4059 60.4602 22.3859 59.3905 22.5396C56.8605 22.8983 54.1511 23.0776 51.2688 23.0776H49.0527C46.9454 23.0776 45.2416 21.3739 45.2416 19.2666ZM65.3088 26.6837C64.0855 26.6837 63.0927 25.6909 63.0927 24.4675V2.21617C63.0927 0.992792 64.0855 0 65.3088 0C66.5322 0 67.525 0.992792 67.525 2.21617V24.4675C67.525 25.6909 66.5322 26.6837 65.3088 26.6837Z" fill="#4252E2"/>
<path d="M37.0688 32.4609C22.6701 32.4609 11 44.2399 11 58.7667C11 73.2935 22.6701 85.0725 37.0688 85.0725C51.4675 85.0725 63.1376 73.2935 63.1376 58.7667C63.1376 44.2399 51.4675 32.4609 37.0688 32.4609ZM52.1208 62.565C52.1208 62.565 52.0888 62.565 52.0695 62.565C50.3914 69.2967 44.3642 74.2927 37.1649 74.2927C29.9655 74.2927 23.9319 69.2903 22.2538 62.5457C22.1705 62.5521 22.0936 62.5714 22.0104 62.5714C20.3643 62.5714 19.0256 61.2263 19.0256 59.561C19.0256 57.8956 20.3258 56.589 21.9463 56.557C22.7726 50.7091 26.8206 45.9117 32.2201 44.067V49.7163H41.8982V43.9965C47.4002 45.7964 51.5379 50.6515 52.3706 56.5762C53.895 56.7107 55.0928 57.9853 55.0928 59.561C55.0928 61.2263 53.7605 62.5714 52.108 62.5714L52.1208 62.565Z" fill="#4252E2"/>
<path d="M44.5372 60.2334C44.1465 60.2334 43.8326 60.5472 43.8326 60.938C43.8326 63.2054 40.8606 65.1205 37.3378 65.1205C33.815 65.1205 30.843 63.2054 30.843 60.938C30.843 60.5472 30.5292 60.2334 30.1385 60.2334C29.7478 60.2334 29.4339 60.5472 29.4339 60.938C29.4339 64.0188 32.9823 66.5296 37.3378 66.5296C41.6933 66.5296 45.2417 64.0188 45.2417 60.938C45.2417 60.5472 44.9279 60.2334 44.5372 60.2334Z" fill="#4252E2"/>
<path d="M32.2905 57.5755C32.9839 57.5755 33.5459 56.7524 33.5459 55.7372C33.5459 54.7219 32.9839 53.8989 32.2905 53.8989C31.5972 53.8989 31.0351 54.7219 31.0351 55.7372C31.0351 56.7524 31.5972 57.5755 32.2905 57.5755Z" fill="#4252E2"/>
<path d="M41.7317 57.5755C42.4234 57.5755 42.9871 56.7556 42.9871 55.7372C42.9871 54.7188 42.4234 53.8989 41.7317 53.8989C41.0399 53.8989 40.4763 54.7188 40.4763 55.7372C40.4763 56.7556 41.0399 57.5755 41.7317 57.5755Z" fill="#4252E2"/>
<path d="M121.597 32.7876C107.198 32.7876 95.5283 44.5666 95.5283 59.0934C95.5283 73.6202 107.198 85.3992 121.597 85.3992C135.996 85.3992 147.666 73.6202 147.666 59.0934C147.666 44.5666 135.996 32.7876 121.597 32.7876ZM131.301 39.4745L133.587 44.7459L139.474 44.9253L135.419 50.645L133.479 44.9509L127.407 44.6306L131.301 39.4745ZM136.745 63.2631C136.713 63.2631 136.681 63.2567 136.643 63.2503C135.029 70.0845 128.957 75.1702 121.693 75.1702C114.43 75.1702 108.358 70.0845 106.744 63.2503C106.712 63.2503 106.68 63.2631 106.648 63.2631C105.001 63.2631 103.663 61.918 103.663 60.2527C103.663 58.5874 104.925 57.332 106.513 57.2551C107.41 51.4329 111.503 46.6867 116.928 44.8997C119.24 47.2695 123.07 50.3824 127.278 50.3824C127.278 50.3824 124.543 47.1158 123.82 44.2848C130.532 45.2199 135.848 50.5169 136.886 57.2551C138.468 57.3256 139.736 58.6322 139.736 60.2527C139.736 61.8732 138.398 63.2631 136.752 63.2631H136.745Z" fill="#4252E2"/>
<path d="M129.072 60.2334C128.681 60.2334 128.367 60.5472 128.367 60.938C128.367 63.2054 125.395 65.1205 121.872 65.1205C118.35 65.1205 115.378 63.2054 115.378 60.938C115.378 60.5472 115.064 60.2334 114.673 60.2334C114.282 60.2334 113.969 60.5472 113.969 60.938C113.969 64.0188 117.517 66.5296 121.872 66.5296C126.228 66.5296 129.776 64.0188 129.776 60.938C129.776 60.5472 129.462 60.2334 129.072 60.2334Z" fill="#4252E2"/>
<path d="M116.825 57.5755C117.517 57.5755 118.081 56.7556 118.081 55.7372C118.081 54.7188 117.517 53.8989 116.825 53.8989C116.133 53.8989 115.57 54.7188 115.57 55.7372C115.57 56.7556 116.133 57.5755 116.825 57.5755Z" fill="#4252E2"/>
<path d="M126.273 57.5755C126.965 57.5755 127.528 56.7556 127.528 55.7372C127.528 54.7188 126.965 53.8989 126.273 53.8989C125.581 53.8989 125.017 54.7188 125.017 55.7372C125.017 56.7556 125.581 57.5755 126.273 57.5755Z" fill="#4252E2"/>
<path d="M220.479 40.3906C215.996 40.3906 212.364 44.0223 212.364 48.5059C212.364 52.9895 215.996 56.6212 220.479 56.6212C224.963 56.6212 228.594 52.9895 228.594 48.5059C228.594 44.0223 224.963 40.3906 220.479 40.3906ZM220.479 53.9759C217.456 53.9759 215.009 51.5291 215.009 48.5059C215.009 45.4827 217.456 43.0359 220.479 43.0359C223.502 43.0359 225.949 45.4827 225.949 48.5059C225.949 51.5291 223.502 53.9759 220.479 53.9759Z" fill="#00DDDD"/>
<mask id="mask0_77_9796" style="mask-type:luminance" maskUnits="userSpaceOnUse" x="220" y="39" width="9" height="19">
<path d="M228.774 39.436H220.159V57.396H228.774V39.436Z" fill="white"/>
</mask>
<g mask="url(#mask0_77_9796)">
<path d="M220.473 40.3906C215.989 40.3906 212.357 44.0223 212.357 48.5059C212.357 52.9895 215.989 56.6212 220.473 56.6212C224.956 56.6212 228.588 52.9895 228.588 48.5059C228.588 44.0223 224.956 40.3906 220.473 40.3906ZM220.479 53.9759C217.456 53.9759 215.009 51.5291 215.009 48.5059C215.009 45.4827 217.456 43.0359 220.479 43.0359C223.502 43.0359 225.949 45.4827 225.949 48.5059C225.949 51.5291 223.502 53.9759 220.479 53.9759Z" fill="#77ECF2"/>
</g>
<path d="M223.432 47.5642C223.246 48.1727 222.663 48.6082 221.997 48.5762C221.203 48.5378 220.594 47.8652 220.633 47.071C220.665 46.3857 221.171 45.8412 221.824 45.7259C221.459 45.5594 221.056 45.4697 220.626 45.4697C219.006 45.4697 217.699 46.7828 217.699 48.3969C217.699 50.0109 219.012 51.324 220.626 51.324C222.24 51.324 223.554 50.0109 223.554 48.3969C223.554 48.1086 223.509 47.8268 223.432 47.5642Z" fill="#00D8D2"/>
<path d="M38.5213 386.73C57.9994 386.73 73.7894 384.207 73.7894 381.094C73.7894 377.982 57.9994 375.459 38.5213 375.459C19.0433 375.459 3.25325 377.982 3.25325 381.094C3.25325 384.207 19.0433 386.73 38.5213 386.73Z" fill="#EAEDF3"/>
<path d="M17.6914 316.184C17.6914 316.184 6.86512 325.592 7.2717 329.242C7.67828 332.892 8.74672 337.865 11.4887 338.385C14.2308 338.905 21.6721 337.799 21.6721 337.799L24.953 336.125L27.6005 326.67L22.2394 320.439L17.6914 316.184Z" fill="white"/>
<path d="M60.3441 326.159L58.8785 329.232L58.0464 333.222L59.1905 339.188L61.4693 342.025L65.327 340.957L69.8088 340.531L78.4887 339.784L82.4788 338.129L84.6063 335.69L85.3438 328.542L83.6135 324.192H79.1222L77.7985 326.159L76.7962 328.542L76.4653 326.66L74.5175 327.615L73.4018 328.305L60.3441 326.159Z" fill="white"/>
<path d="M23.5064 342.025L16.8688 358.6L12.1412 355.575L3.87728 353.372L0.643585 355.575V361.049L3.30051 369.086L8.02814 376.48L14.2119 380.839L19.1759 378.655L32.7063 366.694L38.5497 360.7L40.3746 363.243L45.7546 366.949L54.9546 367.507L66.6034 365.418C66.6034 365.418 69.2036 371.223 70.0546 371.696C70.9056 372.169 73.5341 372.67 73.5341 372.67L75.9736 370.505L77.8741 367.044L78.7534 359.196L77.685 353.863L75.3874 349.892L71.9551 349.315L67.6624 350.866L65.7525 351.793L65.0906 352.379L63.9087 347.472L63.0199 346.46L47.2864 351.793L36.7248 349.315L23.5158 342.044L23.5064 342.025Z" fill="white"/>
<path d="M65.7335 355.338C65.7335 355.338 56.8361 369.001 18.8449 354.137L28.4798 325.932L32.8387 328.542C32.8387 328.542 36.4412 331.047 36.7721 331.936C37.103 332.825 39.4858 333.042 39.4858 333.042L44.4781 331.435L58.7461 327.483C55.6448 339.463 62.7268 342.025 62.7268 342.025L63.7763 346.441" fill="#4252E2"/>
<path d="M60.4024 326.037L60.287 327.261L73.2117 328.481L73.3271 327.257L60.4024 326.037Z" fill="black"/>
<path d="M15.9611 339.662C15.2047 339.662 14.4482 339.586 13.6918 339.416C11.2807 338.858 9.36132 337.383 7.9714 335.01C6.65712 332.778 6.32619 330.395 6.98805 327.937C8.84128 321.025 17.871 315.853 18.2493 315.636L18.8544 316.704C18.7693 316.751 9.89082 321.848 8.16996 328.259C7.60265 330.386 7.8863 332.447 9.03039 334.386C10.2407 336.447 11.9048 337.733 13.966 338.215C18.8733 339.35 24.5559 335.634 24.6126 335.596L25.2934 336.617C25.076 336.759 20.6509 339.652 15.9611 339.662Z" fill="black"/>
<path d="M14.2402 380.867C10.9971 380.867 7.5081 377.955 4.47297 372.575C0.80433 366.051 -1.98497 355.612 1.81604 353.419C6.7895 350.554 14.1079 355.82 16.3488 357.589L22.9296 341.259L27.0994 325.762L28.2813 326.084L24.0737 341.685L16.8404 359.621L16.188 359.054C16.1029 358.979 7.46083 351.566 2.42118 354.478C-0.0939192 355.924 1.47565 364.756 5.54141 371.97C6.85569 374.305 11.5266 381.728 16.3109 379.09C26.239 373.625 37.954 359.744 38.0675 359.603L39.0036 360.387C38.5213 360.964 27.0143 374.589 16.8972 380.158C16.0367 380.631 15.1479 380.858 14.2308 380.858L14.2402 380.867Z" fill="black"/>
<path d="M72.3428 373.275C71.7282 373.275 71.1325 373.142 70.5557 372.887C67.7759 371.639 66.3576 367.677 65.9037 366.145C45.5277 371.166 39.4385 365.682 37.9256 360.16L39.1076 359.839C40.488 364.878 46.303 369.833 66.1874 364.812L66.7925 364.661L66.9344 365.266C66.9438 365.323 68.2203 370.485 71.0569 371.771C72.0591 372.216 73.1181 372.131 74.3189 371.497C76.7111 370.221 78.101 365.777 77.8457 360.179C77.6188 355.196 76.1249 350.885 74.3756 350.138C70.4139 348.464 65.4121 352.397 65.3648 352.435L64.5989 351.48C64.8258 351.301 70.2342 347.055 74.8579 349.013C77.477 350.119 78.8669 355.385 79.0844 360.122C79.3018 364.954 78.3185 370.76 74.9146 372.575C74.0353 373.048 73.1748 373.275 72.3522 373.275H72.3428Z" fill="black"/>
<path d="M62.6039 342.129C60.2968 341.335 58.7178 339.926 57.8952 337.931C55.9568 333.194 59.0676 326.887 59.2 326.623L60.2968 327.171C60.2684 327.228 57.2995 333.251 59.0298 337.477C59.7011 339.132 61.0438 340.304 62.9915 340.976L62.5944 342.139L62.6039 342.129Z" fill="black"/>
<path d="M61.5449 342.072L61.3841 340.853L68.9578 339.869H69.024C69.1658 339.888 83.2825 340.919 84.3415 334.404C85.079 329.904 84.7386 326.84 83.377 325.554C82.5923 324.807 81.4387 324.618 79.8597 324.968C77.6755 325.45 76.8624 328.022 76.5693 329.506C76.3707 330.528 76.5787 331.558 77.146 332.334C77.8835 333.345 78.9142 333.601 80.3135 333.137L80.7012 334.3C78.8196 334.924 77.2028 334.489 76.1532 333.052C75.3874 332.003 75.0942 330.622 75.359 329.27C75.7088 327.483 76.7205 324.401 79.5855 323.767C81.5616 323.332 83.1218 323.635 84.2091 324.656C85.9016 326.263 86.3555 329.601 85.5423 334.593C84.332 342.044 70.2153 341.184 68.9767 341.089L61.526 342.054L61.5449 342.072Z" fill="black"/>
<path d="M72.3806 331.133L71.2365 330.698C71.3122 330.509 73.0709 325.942 77.1744 325.554L77.2879 326.774C73.9502 327.095 72.3995 331.095 72.3806 331.133Z" fill="black"/>
<path d="M14.9021 377.331L13.7675 376.877C13.9282 376.48 17.5212 367.063 6.75169 359.3L7.47029 358.307C19.0435 366.647 14.9494 377.227 14.9116 377.331H14.9021Z" fill="black"/>
<path d="M23.4483 322.87L21.7948 324.702L22.7072 325.526L24.3607 323.694L23.4483 322.87Z" fill="black"/>
<path d="M71.3689 313.593L67.3409 317.413L66.1212 321.555L69.9979 317.328L71.3689 313.593Z" fill="black"/>
<path d="M49.0639 361.021C38.1904 361.021 24.953 358.628 18.1358 354.704L18.7504 353.645C28.5933 359.319 53.3661 361.749 62.2067 357.91C63.833 357.201 64.8164 356.331 65.1095 355.329L61.838 341.552L63.0293 341.269L66.3671 355.338L66.3387 355.48C65.9983 356.945 64.7691 358.137 62.6984 359.044C59.5593 360.406 54.6236 361.03 49.0734 361.03L49.0639 361.021Z" fill="black"/>
<path d="M35.5807 329.677L36.4034 331.615L38.8901 332.674L41.7645 332.466L43.3057 331.369L42.0103 330.859L35.5807 329.677Z" fill="white"/>
<path d="M39.4668 333.421C39.0414 333.421 38.6159 333.364 38.2093 333.251C35.524 332.504 34.4272 329.573 34.3799 329.45L35.5335 329.024C35.5335 329.024 36.4695 331.502 38.5497 332.069C39.9963 332.466 41.6983 331.889 43.6271 330.339L44.393 331.294C42.6343 332.703 40.9797 333.412 39.4668 333.412V333.421Z" fill="black"/>
<path d="M26.5982 330.046C26.5982 330.046 42.5965 344.588 47.5984 348.861L49.9622 345.684C49.9622 345.684 34.4177 332.598 29.5105 327.502L27.6478 326.226L26.5982 330.046Z" fill="#E8C221"/>
<path d="M47.693 349.76L47.1918 349.334C42.2467 345.108 26.343 330.651 26.1823 330.509L25.9081 330.253L27.2791 325.242L29.9454 327.077C34.7771 332.088 50.1986 345.079 50.3499 345.212L50.7943 345.58L47.693 349.75V349.76ZM27.2885 329.847C29.3687 331.738 42.4831 343.642 47.4944 347.963L49.1207 345.77C46.5583 343.604 33.5574 332.57 29.1134 327.965L28.0166 327.209L27.298 329.837L27.2885 329.847Z" fill="black"/>
<path d="M60.2684 341.685H51.2198C48.7654 341.685 46.7758 343.674 46.7758 346.129V351.301C46.7758 353.755 48.7654 355.745 51.2198 355.745H60.2684C62.7228 355.745 64.7124 353.755 64.7124 351.301V346.129C64.7124 343.674 62.7228 341.685 60.2684 341.685Z" fill="#E8C221"/>
<path d="M60.1077 356.35H51.3805C48.5061 356.35 46.1612 354.005 46.1612 351.13V346.28C46.1612 343.405 48.5061 341.061 51.3805 341.061H60.1077C62.9821 341.061 65.327 343.405 65.327 346.28V351.13C65.327 354.005 62.9821 356.35 60.1077 356.35ZM51.3805 342.299C49.1774 342.299 47.3904 344.086 47.3904 346.289V351.14C47.3904 353.343 49.1774 355.13 51.3805 355.13H60.1077C62.3108 355.13 64.0978 353.343 64.0978 351.14V346.289C64.0978 344.086 62.3108 342.299 60.1077 342.299H51.3805Z" fill="black"/>
<path d="M64.5233 350.175H50.7092C49.064 350.175 47.7213 348.899 47.7213 347.32V345.807H48.9505V347.32C48.9505 348.218 49.7448 348.946 50.7186 348.946H64.5328V350.175H64.5233Z" fill="black"/>
<path d="M17.1714 297.822L13.1718 313.092L4.08531 303.098L17.1714 297.822Z" fill="black"/>
<path d="M14.8643 302.795C16.6711 302.795 18.1358 301.331 18.1358 299.524C18.1358 297.717 16.6711 296.252 14.8643 296.252C13.0575 296.252 11.5928 297.717 11.5928 299.524C11.5928 301.331 13.0575 302.795 14.8643 302.795Z" fill="white"/>
<path d="M14.8643 303.41C12.7179 303.41 10.9782 301.67 10.9782 299.524C10.9782 297.377 12.7179 295.638 14.8643 295.638C17.0106 295.638 18.7504 297.377 18.7504 299.524C18.7504 301.67 17.0106 303.41 14.8643 303.41ZM14.8643 296.867C13.3987 296.867 12.2073 298.058 12.2073 299.524C12.2073 300.989 13.3987 302.181 14.8643 302.181C16.3298 302.181 17.5212 300.989 17.5212 299.524C17.5212 298.058 16.3298 296.867 14.8643 296.867Z" fill="#040000"/>
<path d="M73.8745 298.777C76.8623 312.771 66.5845 326.831 50.9077 330.187C35.2308 333.535 20.093 324.911 17.1051 310.918C16.8404 309.66 16.6702 308.403 16.6135 307.145C16.0083 294.475 25.804 282.561 40.0719 279.507C55.7487 276.16 70.8866 284.783 73.8745 298.777Z" fill="white"/>
<path d="M44.1472 331.511C30.8153 331.511 19.1191 323.266 16.5 311.04C16.2258 309.764 16.0556 308.469 15.9989 307.173C15.6963 300.848 17.9278 294.513 22.2961 289.322C26.6928 284.102 32.9522 280.396 39.9491 278.902C55.9284 275.489 71.4256 284.339 74.4796 298.645C77.5337 312.95 67.0195 327.36 51.0401 330.783C48.7235 331.275 46.4165 331.52 44.1567 331.52L44.1472 331.511ZM46.8325 279.403C44.6578 279.403 42.4358 279.63 40.1949 280.112C26.4942 283.043 16.623 294.654 17.2186 307.116C17.2754 308.346 17.4361 309.575 17.7009 310.785C20.1876 322.434 31.3826 330.291 44.1377 330.291C46.3125 330.291 48.5344 330.064 50.7753 329.582C66.0928 326.311 76.191 312.544 73.2788 298.909C70.7921 287.26 59.5971 279.403 46.8419 279.403H46.8325Z" fill="black"/>
<path d="M33.8788 286.598C33.8788 286.598 32.4416 298.786 41.1783 301.368C41.1783 301.368 39.0035 292.924 43.5042 288.972C48.0049 285.019 50 301.85 58.1221 306.407C61.9798 308.572 64.5327 308.393 66.159 307.608C68.7309 306.36 67.1707 311.56 66.9627 314.416C66.7831 316.959 66.9155 316.713 66.2063 321.838C66.2063 321.838 84.4171 311.948 79.368 289.199C74.2055 265.967 53.1864 265.627 47.154 264.946C41.6699 264.322 12.7274 269.087 14.609 299.089L15.8476 306.662C15.8476 306.662 19.157 294.919 26.7023 289.492C33.9639 284.253 33.8693 286.589 33.8693 286.589L33.8788 286.598Z" fill="black"/>
<path d="M31.0422 314.557C30.5789 313.48 31.5433 312.345 32.6874 312.61C36.1197 313.423 39.9774 314.028 44.2039 313.054C48.6195 312.033 42.7951 324.873 37.85 323.029C33.8882 321.545 32.2147 317.309 31.0422 314.557Z" fill="black"/>
<path d="M38.8712 323.824C38.4551 323.824 38.0391 323.748 37.6325 323.597C33.5857 322.084 31.7986 317.895 30.6167 315.116L30.4749 314.785C30.1723 314.075 30.2952 313.262 30.7869 312.676C31.2881 312.08 32.0634 311.825 32.8198 312.005C36.0251 312.771 39.8734 313.414 44.0621 312.449C45.2724 312.175 45.8302 312.752 46.0666 313.12C47.0594 314.718 45.5087 318.567 43.5042 321.016C41.9914 322.859 40.384 323.824 38.8712 323.824ZM31.6095 314.312L31.7514 314.643C32.9144 317.375 34.5123 321.12 38.0675 322.453C39.9112 323.143 41.8212 321.139 42.5587 320.24C44.5159 317.858 45.5655 314.643 45.0265 313.773C44.9887 313.707 44.8752 313.527 44.3458 313.65C39.9112 314.671 35.8928 314 32.5456 313.206C32.243 313.13 31.9405 313.234 31.7324 313.47C31.5339 313.707 31.4866 314.019 31.6095 314.312Z" fill="black"/>
<mask id="mask1_77_9796" style="mask-type:luminance" maskUnits="userSpaceOnUse" x="30" y="312" width="16" height="12">
<path d="M31.0422 314.557C30.5789 313.48 31.5433 312.345 32.6874 312.61C36.1197 313.423 39.9774 314.028 44.2039 313.054C48.6195 312.033 42.7951 324.873 37.85 323.029C33.8882 321.545 32.2147 317.309 31.0422 314.557Z" fill="white"/>
</mask>
<g mask="url(#mask1_77_9796)">
<path d="M34.2003 320.344C34.2003 320.344 42.9558 316.864 44.5821 319.011C44.5821 319.011 41.4808 323.237 39.1926 323.351C36.9045 323.464 34.2003 320.344 34.2003 320.344Z" fill="#F74D5A"/>
</g>
<path d="M71.33 312.437C73.2924 310.87 73.8581 308.316 72.5935 306.733C71.3289 305.149 68.7128 305.137 66.7504 306.705C64.7879 308.273 64.2222 310.827 65.4868 312.41C66.7514 313.993 69.3675 314.005 71.33 312.437Z" fill="white"/>
<path d="M29.7752 308.497C30.5794 308.497 31.2313 307.54 31.2313 306.36C31.2313 305.18 30.5794 304.223 29.7752 304.223C28.971 304.223 28.3191 305.18 28.3191 306.36C28.3191 307.54 28.971 308.497 29.7752 308.497Z" fill="black"/>
<path d="M47.2296 309.556C48.0338 309.556 48.6857 308.599 48.6857 307.419C48.6857 306.239 48.0338 305.282 47.2296 305.282C46.4254 305.282 45.7735 306.239 45.7735 307.419C45.7735 308.599 46.4254 309.556 47.2296 309.556Z" fill="black"/>
<path d="M29.201 298.604L28.8841 299.792L30.7021 300.277L31.0189 299.089L29.201 298.604Z" fill="black"/>
<path d="M47.2564 299.374L44.8346 299.738L45.0171 300.953L47.4389 300.59L47.2564 299.374Z" fill="black"/>
<path d="M78.432 303.4L82.4315 318.671L91.518 308.667L78.432 303.4Z" fill="black"/>
<path d="M78.2524 307.4C80.0592 307.4 81.5239 305.935 81.5239 304.128C81.5239 302.322 80.0592 300.857 78.2524 300.857C76.4455 300.857 74.9808 302.322 74.9808 304.128C74.9808 305.935 76.4455 307.4 78.2524 307.4Z" fill="white"/>
<path d="M78.2523 308.014C76.106 308.014 74.3662 306.275 74.3662 304.128C74.3662 301.982 76.106 300.242 78.2523 300.242C80.3987 300.242 82.1384 301.982 82.1384 304.128C82.1384 306.275 80.3987 308.014 78.2523 308.014ZM78.2523 301.471C76.7868 301.471 75.5954 302.663 75.5954 304.128C75.5954 305.594 76.7868 306.785 78.2523 306.785C79.7179 306.785 80.9093 305.594 80.9093 304.128C80.9093 302.663 79.7179 301.471 78.2523 301.471Z" fill="#040000"/>
<path d="M28.5271 312.506C28.4042 312.506 28.2718 312.468 28.1678 312.392C27.8936 312.194 27.8369 311.806 28.0355 311.532L29.1984 309.925C29.397 309.65 29.7847 309.584 30.0589 309.792C30.3331 309.991 30.3898 310.378 30.1912 310.653L29.0283 312.26C28.9053 312.421 28.7257 312.515 28.5271 312.515V312.506Z" fill="#EFA0B5"/>
<path d="M48.1373 313.376C48.0239 313.376 47.901 313.347 47.797 313.272C47.5133 313.082 47.4377 312.704 47.6173 312.421L48.7047 310.766C48.8938 310.482 49.272 310.407 49.5556 310.586C49.8393 310.775 49.9149 311.154 49.7353 311.437L48.6479 313.092C48.5345 313.272 48.3359 313.366 48.1373 313.366V313.376Z" fill="#EFA0B5"/>
<path d="M52.4678 313.206C52.3543 313.206 52.2314 313.177 52.1274 313.102C51.8438 312.913 51.7681 312.534 51.9478 312.251L53.0351 310.596C53.2242 310.312 53.6024 310.237 53.8861 310.416C54.1698 310.605 54.2454 310.984 54.0657 311.267L52.9784 312.922C52.8649 313.102 52.6664 313.196 52.4678 313.196V313.206Z" fill="#EFA0B5"/>
<path d="M79.5666 293.529C79.3302 293.529 79.1033 293.482 78.8858 293.387C62.3864 286.164 39.7978 283.601 25.4731 283.601C22.0881 283.601 19.2042 283.743 17.1335 284.017H17.0957H17.0295C16.935 284.017 16.8499 283.998 16.8026 283.989C15.8098 283.8 15.1196 282.921 15.1857 281.928C15.2519 280.897 16.1124 280.084 17.143 280.084C17.1808 280.084 17.2281 280.084 17.2659 280.084C17.2943 280.084 17.4645 280.093 17.7859 280.122C23.7428 270.392 34.7581 264.36 46.6056 264.36C48.7897 264.36 50.9928 264.568 53.158 264.965C66.4238 267.433 77.0231 277.124 80.2568 289.709C80.7012 289.88 81.0605 290.201 81.278 290.627C81.5238 291.09 81.5711 291.629 81.4103 292.12C81.1456 292.943 80.3892 293.52 79.5666 293.52V293.529Z" fill="#F2C873"/>
<path d="M46.6056 264.974C48.7235 264.974 50.8793 265.173 53.0446 265.57C66.594 268.095 76.7678 278.079 79.7462 290.182C79.8124 290.201 79.8786 290.22 79.9448 290.239C80.6539 290.466 81.0511 291.222 80.8241 291.931C80.6445 292.499 80.115 292.905 79.5666 292.905C79.4153 292.905 79.2735 292.877 79.1316 292.811C62.0082 285.313 39.0981 282.977 25.4731 282.977C21.9652 282.977 19.0719 283.128 17.0484 283.393C17.0484 283.393 17.0295 283.393 17.0201 283.393C16.9728 283.393 16.9255 283.384 16.8783 283.374C16.2164 283.251 15.7342 282.646 15.7814 281.965C15.8287 281.247 16.4244 280.698 17.1241 280.698C17.1525 280.698 17.1808 280.698 17.2092 280.698C17.247 280.698 17.5496 280.717 18.098 280.755C23.8657 271.111 34.6919 264.974 46.6056 264.974ZM46.6056 263.745C34.673 263.745 23.5726 269.759 17.4361 279.488C17.3416 279.488 17.2848 279.479 17.2754 279.479C17.2281 279.479 17.1714 279.479 17.1241 279.479C15.7625 279.479 14.6374 280.538 14.5523 281.899C14.4672 283.195 15.3749 284.358 16.6513 284.594C16.7175 284.613 16.8499 284.641 17.0106 284.641C17.0768 284.641 17.1335 284.641 17.1997 284.632C19.2515 284.367 22.107 284.225 25.4636 284.225C39.7316 284.225 62.2256 286.778 78.6305 293.955C78.9236 294.087 79.2356 294.153 79.5571 294.153C80.6445 294.153 81.6467 293.397 81.9871 292.319C82.1951 291.666 82.1289 290.967 81.8169 290.352C81.5805 289.898 81.2118 289.53 80.7768 289.284C77.4013 276.614 66.6696 266.865 53.2715 264.369C51.0684 263.963 48.8275 263.755 46.6056 263.755V263.745Z" fill="black"/>
<path d="M77.7511 284.858C51.371 276.491 29.8886 276.311 21.1331 276.708C20.4618 277.493 19.8283 278.306 19.242 279.148C26.1349 278.675 49.5839 278.032 78.8763 287.676C78.5454 286.721 78.1766 285.776 77.7511 284.858Z" fill="white"/>
<path d="M24.1872 312.477C24.0643 312.477 23.9319 312.439 23.8279 312.364C23.5537 312.165 23.497 311.778 23.6955 311.503L24.8585 309.896C25.0571 309.622 25.4447 309.565 25.7189 309.764C25.9931 309.962 26.0499 310.35 25.8513 310.624L24.6883 312.231C24.5654 312.392 24.3857 312.487 24.1872 312.487V312.477Z" fill="#EFA0B5"/>
<path d="M26.2012 312.525C26.0782 312.525 25.9459 312.487 25.8419 312.411C25.5677 312.213 25.5109 311.825 25.7095 311.551L26.8725 309.944C27.071 309.669 27.4587 309.603 27.7329 309.811C28.0071 310.01 28.0638 310.397 27.8653 310.672L26.7023 312.279C26.5794 312.44 26.3997 312.534 26.2012 312.534V312.525Z" fill="#EFA0B5"/>
<path d="M50.1513 313.329C50.0379 313.329 49.9149 313.3 49.8109 313.225C49.5273 313.036 49.4516 312.657 49.6313 312.374L50.7186 310.719C50.9077 310.435 51.2859 310.36 51.5696 310.539C51.8533 310.728 51.9289 311.107 51.7493 311.39L50.6619 313.045C50.5484 313.225 50.3499 313.319 50.1513 313.319V313.329Z" fill="#EFA0B5"/>
<path d="M66.802 311.107C66.802 311.107 68.2014 308.043 70.7259 309.348" stroke="#1C1C1C" stroke-width="0.8" stroke-miterlimit="10"/>
<g clip-path="url(#clip0_77_9796)">
<path d="M79.7179 323.767C79.7179 323.767 80.3797 316.222 83.1974 310.322C86.7337 302.928 81.5806 286.438 85.8922 266.903" stroke="#0C0C0C" stroke-width="1.2" stroke-miterlimit="10"/>
<path d="M84.8048 262.686C96.3924 262.686 105.786 253.292 105.786 241.705C105.786 230.117 96.3924 220.724 84.8048 220.724C73.2172 220.724 63.8236 230.117 63.8236 241.705C63.8236 253.292 73.2172 262.686 84.8048 262.686Z" fill="#00DDDD" stroke="black" stroke-width="1.2" stroke-miterlimit="10"/>
<path d="M85.2397 262.686L84.2564 267.073C84.1524 267.555 84.5495 268 85.0412 267.934L87.8683 267.546C88.3883 267.48 88.6531 266.884 88.36 266.449L85.8543 262.686H85.2303H85.2397Z" fill="#00DDDD" stroke="black" stroke-width="1.2" stroke-miterlimit="10"/>
<path d="M100.486 241.18C102.449 240.123 102.421 236.258 100.422 232.548C98.4236 228.838 95.2121 226.688 93.249 227.745C91.2859 228.802 91.3146 232.667 93.3132 236.377C95.3117 240.088 98.5232 242.238 100.486 241.18Z" fill="white"/>
<path d="M79.2167 333.591C79.2167 333.591 78.0916 344.285 80.966 345.562" stroke="#0C0C0C" stroke-miterlimit="10"/>
<path d="M102.392 246.007C102.645 244.646 102.337 243.448 101.706 243.331C101.074 243.214 100.358 244.222 100.105 245.583C99.8532 246.943 100.161 248.141 100.792 248.258C101.424 248.375 102.14 247.367 102.392 246.007Z" fill="white"/>
</g>
<g clip-path="url(#clip1_77_9796)">
<path d="M190.5 262C219.495 262 243 258.898 243 255.071C243 251.244 219.495 248.142 190.5 248.142C161.505 248.142 138 251.244 138 255.071C138 258.898 161.505 262 190.5 262Z" fill="#EAEDF3"/>
<path d="M209.778 227.646H231.548V248.159C231.548 251.312 229.023 253.876 225.919 253.876H209.786V227.646H209.778Z" fill="white" stroke="black" stroke-miterlimit="10"/>
<path d="M149.273 227.646H171.042V253.876H154.909C151.805 253.876 149.281 251.312 149.281 248.159V227.646H149.273Z" fill="white" stroke="black" stroke-miterlimit="10"/>
<path d="M153.055 204.469L144.894 227.646H236.114L227.839 204.452C227.185 202.627 225.478 201.415 223.575 201.415H157.327C155.407 201.415 153.7 202.635 153.055 204.469Z" fill="#4252E2" stroke="black" stroke-miterlimit="10"/>
<path d="M206.167 258.938H174.661C172.668 258.938 171.042 257.295 171.042 255.262V227.645L188.417 212.02C189.348 211.182 190.745 211.165 191.693 211.987L209.778 227.645V255.262C209.778 257.287 208.161 258.938 206.159 258.938H206.167Z" fill="white" stroke="black" stroke-miterlimit="10"/>
<path d="M162.514 227.646L187.429 203.706C188.768 202.419 190.851 202.419 192.199 203.689L218.126 227.646H209.786L191.415 212.062C190.418 211.199 188.956 211.232 188 212.136L171.05 227.646H162.522H162.514Z" fill="white" stroke="black" stroke-miterlimit="10"/>
<path d="M162.89 235.844H157.425C156.545 235.844 155.832 236.569 155.832 237.462V243.014C155.832 243.908 156.545 244.632 157.425 244.632H162.89C163.77 244.632 164.483 243.908 164.483 243.014V237.462C164.483 236.569 163.77 235.844 162.89 235.844Z" fill="white" stroke="black" stroke-miterlimit="10"/>
<path d="M199.886 232.898C199.886 232.898 196.218 230.367 192.583 234.608L190.508 237.006L188.303 234.583C187.371 233.562 186.195 232.79 184.864 232.483C182.585 231.952 181.131 232.907 181.131 232.907C179.276 233.869 178.084 236.043 178.084 238.442C178.084 240.483 178.958 242.391 180.395 243.503L190.516 251.32L200.637 243.503C202.083 242.391 202.949 240.483 202.949 238.442C202.949 236.043 201.748 233.869 199.902 232.907L199.886 232.898Z" fill="#4252E2" stroke="black" stroke-miterlimit="10"/>
<path d="M175.069 248.449V252.134C175.069 253.362 176.05 254.349 177.25 254.349H181.465" stroke="black" stroke-miterlimit="10"/>
<path d="M189.953 229.994C193.205 229.994 195.842 227.315 195.842 224.011C195.842 220.707 193.205 218.028 189.953 218.028C186.7 218.028 184.063 220.707 184.063 224.011C184.063 227.315 186.7 229.994 189.953 229.994Z" fill="white" stroke="black" stroke-miterlimit="10"/>
<path d="M189.699 220.849V224.011L192.73 223.256" fill="white"/>
<path d="M189.699 220.849V224.011L192.73 223.256" stroke="black" stroke-miterlimit="10"/>
<path d="M223.363 235.844H217.963C217.065 235.844 216.337 236.584 216.337 237.496V242.981C216.337 243.893 217.065 244.632 217.963 244.632H223.363C224.26 244.632 224.988 243.893 224.988 242.981V237.496C224.988 236.584 224.26 235.844 223.363 235.844Z" fill="white" stroke="black" stroke-miterlimit="10"/>
<path d="M198.701 254.349H203.21C204.419 254.349 205.391 253.353 205.391 252.134V248.449" stroke="black" stroke-miterlimit="10"/>
</g>
<path d="M182.431 283.159C182.329 283.021 179.924 280.218 178.167 278.164C177.168 276.998 175.401 276.915 174.291 277.979C173.144 279.08 173.208 280.93 174.42 281.957L179.268 286.027" fill="#4252E2"/>
<path d="M178.99 286.351L174.143 282.281C173.467 281.716 173.06 280.884 173.033 280.005C173.005 279.126 173.356 278.266 173.985 277.655C174.605 277.054 175.429 276.749 176.289 276.795C177.149 276.841 177.935 277.221 178.5 277.877C182.662 282.734 182.746 282.854 182.783 282.9L182.07 283.419C181.996 283.326 181.201 282.382 177.824 278.442C177.417 277.97 176.862 277.692 176.243 277.665C175.623 277.637 175.04 277.85 174.587 278.284C174.133 278.719 173.884 279.339 173.902 279.968C173.921 280.597 174.217 281.198 174.698 281.605L179.545 285.676L178.981 286.351H178.99Z" fill="black"/>
<path d="M212.958 287.896C214.512 270.079 199.998 268.636 197.704 268.516C197.537 268.516 197.371 268.498 197.204 268.47C194.919 268.192 180.378 267.101 178.823 284.917C178.823 284.917 176.779 298.479 194.651 300.088C194.651 300.088 194.688 300.088 194.707 300.088C194.725 300.088 194.744 300.088 194.762 300.088C212.644 301.587 212.967 287.877 212.967 287.877L212.958 287.896Z" fill="#4252E2"/>
<path d="M197.408 300.662C196.668 300.662 195.9 300.634 195.104 300.578L194.133 300.504C188.139 299.866 183.754 297.831 181.081 294.427C177.649 290.051 178.352 285.065 178.379 284.853C178.907 278.803 180.979 274.261 184.55 271.374C189.434 267.424 195.502 267.813 197.251 268.035C197.408 268.053 197.565 268.072 197.722 268.072C199.48 268.165 205.53 268.821 209.656 273.558C212.671 277.017 213.929 281.846 213.402 287.914C213.393 288.284 213.162 293.206 209.091 296.86C206.279 299.385 202.357 300.652 197.408 300.652V300.662ZM194.753 299.663H194.79C200.766 300.171 205.382 299.006 208.49 296.221C212.348 292.762 212.514 287.933 212.523 287.887V287.859C213.032 282.031 211.848 277.415 208.99 274.14C204.993 269.552 198.869 269.016 197.676 268.96C197.5 268.96 197.325 268.932 197.14 268.914C195.956 268.766 189.832 268.239 185.105 272.068C181.728 274.797 179.767 279.136 179.258 284.964C179.249 285.038 178.583 289.829 181.784 293.9C184.365 297.184 188.712 299.126 194.688 299.663H194.753Z" fill="black"/>
<path d="M195.493 291.873C194.614 291.873 193.661 291.827 192.681 291.725H192.607C187.648 291.217 184.115 289.746 182.394 287.47C180.942 285.546 181.247 283.724 181.256 283.65V283.613C181.959 276.536 188.24 275.481 191.913 275.481C193.152 275.481 194.041 275.602 194.207 275.629H194.253C194.892 275.666 200.553 276.046 203.587 279.57C205.039 281.254 205.641 283.418 205.391 285.999V286.036C205.391 286.277 205.16 291.873 195.502 291.873H195.493Z" fill="white"/>
<path d="M191.913 275.935C193.116 275.935 193.976 276.055 194.142 276.074H194.189H194.235C194.485 276.083 200.294 276.416 203.254 279.857C204.623 281.448 205.197 283.502 204.956 285.953V285.99V286.027C204.956 286.083 204.781 291.43 195.502 291.43C194.633 291.43 193.698 291.383 192.727 291.291H192.699H192.653C187.834 290.801 184.411 289.404 182.764 287.239C181.423 285.472 181.682 283.807 181.691 283.742V283.705L181.7 283.668C181.996 280.699 183.338 278.553 185.687 277.285C187.759 276.166 190.22 275.935 191.913 275.935ZM191.913 275.047C188.241 275.047 181.562 276.092 180.822 283.576C180.822 283.576 179.471 290.838 192.561 292.16C192.561 292.16 192.588 292.16 192.598 292.16C192.607 292.16 192.625 292.16 192.635 292.16C193.661 292.262 194.614 292.308 195.493 292.308C205.743 292.308 205.826 286.037 205.826 286.037C206.816 275.981 195.021 275.223 194.272 275.186C194.078 275.158 193.171 275.038 191.913 275.038V275.047Z" fill="#2942AA"/>
<path d="M194.605 285.639C194.522 286.462 193.476 287.036 192.255 286.915C191.034 286.795 190.118 286.027 190.202 285.204" fill="white"/>
<path d="M192.588 287.369C192.468 287.369 192.338 287.369 192.218 287.35C191.543 287.286 190.923 287.036 190.47 286.656C189.97 286.24 189.721 285.694 189.776 285.158C189.804 284.917 190.017 284.742 190.257 284.76C190.498 284.788 190.673 285.001 190.655 285.241C190.618 285.574 190.877 285.842 191.043 285.981C191.358 286.24 191.82 286.425 192.311 286.471C193.245 286.564 194.124 286.157 194.17 285.593C194.198 285.352 194.411 285.176 194.651 285.195C194.892 285.223 195.067 285.435 195.049 285.676C194.947 286.666 193.902 287.369 192.598 287.369H192.588Z" fill="black"/>
<path d="M182.533 286.601C182.431 286.601 182.329 286.564 182.246 286.499C182.061 286.342 182.033 286.064 182.191 285.879L183.005 284.917C183.162 284.732 183.439 284.705 183.624 284.862C183.809 285.019 183.837 285.297 183.68 285.482L182.866 286.444C182.783 286.545 182.653 286.601 182.524 286.601H182.533Z" fill="#EFA0B5"/>
<path d="M183.809 286.712C183.708 286.712 183.606 286.675 183.523 286.61C183.338 286.453 183.31 286.175 183.467 285.99L184.281 285.028C184.438 284.843 184.716 284.815 184.901 284.973C185.086 285.13 185.114 285.407 184.957 285.592L184.142 286.554C184.059 286.656 183.93 286.712 183.8 286.712H183.809Z" fill="#EFA0B5"/>
<path d="M185.28 286.804C185.179 286.804 185.077 286.767 184.994 286.703C184.809 286.545 184.781 286.268 184.938 286.083L185.743 285.121C185.9 284.936 186.178 284.908 186.363 285.065C186.548 285.223 186.575 285.5 186.418 285.685L185.613 286.647C185.53 286.749 185.401 286.804 185.271 286.804H185.28Z" fill="#EFA0B5"/>
<path d="M198.472 288.201C198.37 288.201 198.268 288.164 198.185 288.099C198 287.942 197.972 287.664 198.129 287.479L198.934 286.517C199.091 286.332 199.369 286.305 199.554 286.462C199.739 286.619 199.767 286.897 199.609 287.082L198.805 288.044C198.721 288.145 198.592 288.201 198.462 288.201H198.472Z" fill="#EFA0B5"/>
<path d="M199.748 288.312C199.646 288.312 199.545 288.275 199.461 288.21C199.276 288.053 199.249 287.775 199.406 287.59L200.211 286.628C200.368 286.443 200.646 286.415 200.831 286.573C201.016 286.73 201.043 287.007 200.886 287.192L200.081 288.155C199.998 288.256 199.868 288.312 199.739 288.312H199.748Z" fill="#EFA0B5"/>
<path d="M201.219 288.405C201.117 288.405 201.015 288.368 200.932 288.303C200.747 288.146 200.719 287.868 200.877 287.683L201.691 286.721C201.848 286.536 202.126 286.508 202.311 286.665C202.496 286.823 202.523 287.1 202.366 287.285L201.552 288.247C201.469 288.349 201.339 288.405 201.21 288.405H201.219Z" fill="#EFA0B5"/>
<path d="M186.64 280.736L188.657 281.856C188.99 282.041 188.944 282.531 188.583 282.651L186.178 283.474" fill="white"/>
<path d="M186.178 283.918C185.993 283.918 185.826 283.807 185.761 283.622C185.678 283.391 185.808 283.141 186.039 283.067L188.444 282.244L186.427 281.125C186.215 281.004 186.141 280.736 186.261 280.523C186.381 280.311 186.649 280.237 186.862 280.357L188.879 281.476C189.184 281.652 189.36 281.976 189.323 282.318C189.295 282.67 189.064 282.956 188.731 283.067L186.326 283.891C186.279 283.909 186.233 283.918 186.187 283.918H186.178Z" fill="black"/>
<path d="M198.518 284.825L196.501 283.705C196.168 283.52 196.215 283.03 196.575 282.91L198.98 282.086" fill="white"/>
<path d="M198.518 285.26C198.444 285.26 198.37 285.241 198.305 285.204L196.289 284.085C195.983 283.918 195.807 283.585 195.844 283.243C195.872 282.891 196.103 282.605 196.437 282.494L198.842 281.67C199.073 281.587 199.323 281.717 199.397 281.948C199.48 282.179 199.35 282.429 199.119 282.503L196.714 283.326L198.731 284.446C198.943 284.566 199.017 284.834 198.897 285.047C198.814 285.195 198.666 285.269 198.509 285.269L198.518 285.26Z" fill="black"/>
<path d="M209.942 288.95C210.109 288.932 213.726 288.164 216.371 287.6C217.87 287.285 218.795 285.768 218.397 284.288C217.981 282.752 216.325 281.92 214.845 282.493L208.953 284.797" fill="#4252E2"/>
<path d="M209.998 289.385L209.887 288.516L209.942 288.951L209.878 288.516C209.961 288.507 210.747 288.349 216.279 287.174C216.88 287.045 217.398 286.684 217.722 286.157C218.046 285.63 218.138 285.01 217.972 284.409C217.805 283.798 217.389 283.28 216.825 283.002C216.26 282.716 215.594 282.688 215.012 282.919L209.119 285.223L208.795 284.399L214.688 282.096C215.511 281.772 216.436 281.818 217.223 282.216C218.009 282.614 218.592 283.326 218.823 284.187C219.045 285.019 218.925 285.889 218.471 286.619C218.018 287.359 217.306 287.859 216.464 288.035C210.22 289.358 210.053 289.376 209.998 289.385Z" fill="black"/>
<path d="M206.039 272.503L209.35 265.334C210.007 264.52 209.961 263.391 209.249 262.809C208.536 262.226 207.417 262.411 206.76 263.225L200.821 269.95" fill="#4252E2"/>
<path d="M206.436 272.688L205.641 272.318L208.98 265.102L209.017 265.056C209.267 264.751 209.397 264.372 209.387 264.002C209.369 263.65 209.23 263.354 208.98 263.151C208.453 262.725 207.611 262.882 207.112 263.502L201.164 270.237L200.507 269.654L206.446 262.929C207.25 261.948 208.638 261.735 209.545 262.466C209.989 262.827 210.248 263.363 210.275 263.965C210.294 264.529 210.109 265.093 209.748 265.565L206.455 272.679L206.436 272.688Z" fill="black"/>
<path d="M208.647 266.092C209.955 266.092 211.015 265.032 211.015 263.724C211.015 262.416 209.955 261.356 208.647 261.356C207.339 261.356 206.279 262.416 206.279 263.724C206.279 265.032 207.339 266.092 208.647 266.092Z" fill="#4252E2"/>
<path d="M208.657 266.527C207.713 266.527 206.797 266.055 206.261 265.195C205.863 264.557 205.743 263.807 205.918 263.077C206.094 262.346 206.538 261.726 207.176 261.328C208.49 260.514 210.229 260.921 211.043 262.235C211.857 263.548 211.45 265.287 210.137 266.101C209.674 266.388 209.165 266.518 208.666 266.518L208.657 266.527ZM208.647 261.791C208.305 261.791 207.953 261.883 207.639 262.077C207.204 262.346 206.899 262.771 206.779 263.271C206.658 263.77 206.742 264.288 207.019 264.723C207.583 265.63 208.768 265.907 209.674 265.343C210.581 264.788 210.858 263.595 210.294 262.688C209.933 262.096 209.295 261.772 208.657 261.772L208.647 261.791Z" fill="black"/>
<path d="M209.736 264.108C210.017 264.015 210.149 263.652 210.031 263.298C209.913 262.944 209.59 262.733 209.308 262.827C209.027 262.921 208.895 263.284 209.013 263.638C209.131 263.991 209.455 264.202 209.736 264.108Z" fill="white"/>
<path d="M195.623 310.476C203.066 310.476 209.101 309.511 209.101 308.321C209.101 307.131 203.066 306.166 195.623 306.166C188.179 306.166 182.144 307.131 182.144 308.321C182.144 309.511 188.179 310.476 195.623 310.476Z" fill="#EAEDF3"/>
<path d="M141.577 324.558C154.249 324.558 164.521 322.918 164.521 320.893C164.521 318.869 154.249 317.229 141.577 317.229C128.905 317.229 118.632 318.869 118.632 320.893C118.632 322.918 128.905 324.558 141.577 324.558Z" fill="#EAEDF3"/>
<path d="M121.944 307.459L124.851 314.197L124.903 315.318L121.539 316.979L120.532 317.976L120.584 319.637L124.072 320.82H131.413L135.254 319.876L137.445 318.568L138.036 316.501L137.144 310.116L136.791 308.756L148.439 312.816L148.73 316.024L149.623 317.446L151.16 318.806L153.288 318.744L155.354 316.564L157.835 311.715L158.375 307.573L158.136 303.794L155.302 302.018L152.696 301.074L149.914 300.419L142.885 306.099L138.742 307.988L126.149 309.286L121.944 307.459Z" fill="white"/>
<path d="M115.922 262.026C115.922 262.026 115.985 261.144 114.562 261.258C113.14 261.372 111.323 262.857 110.794 264.746C110.264 266.636 110.129 270.602 110.897 272.782C111.666 274.973 114.677 281.887 116.275 283.777C117.874 285.666 118.871 286.943 118.871 286.943C118.871 286.943 120.48 275.44 120.947 275.44C120.947 275.44 115.922 273.249 115.922 262.016V262.026Z" fill="white"/>
<path d="M120.76 276.385C120.76 276.385 118.321 280.558 119.027 295.228L121.238 306.504C121.238 306.504 124.654 311.726 135.534 308.497C136.271 308.279 135.316 307.926 136.168 308.102C142.314 309.359 149.457 300.118 149.457 300.118L147.017 298.146L142.283 279.229C142.283 279.229 132.233 284.431 120.76 276.395V276.385Z" fill="#4252E2"/>
<path d="M152.032 319.626C151.917 319.626 151.793 319.616 151.679 319.595C148.097 318.92 147.983 314.404 148.024 313.117C146.778 312.764 141.961 311.362 136.884 309.265C130.8 306.752 130.572 302.464 130.572 302.288L131.371 302.257C131.371 302.412 131.62 306.223 137.196 308.528C143.02 310.936 148.491 312.421 148.543 312.431L148.865 312.514L148.834 312.847C148.834 312.899 148.439 318.173 151.824 318.806C153.122 319.055 154.991 316.916 156.465 313.511C158.178 309.555 158.925 304.707 157.192 303.44C155.686 302.34 153.994 301.893 152.343 301.468C150.163 300.897 148.097 300.357 146.695 298.384L147.349 297.917C148.585 299.651 150.516 300.16 152.551 300.689C154.264 301.135 156.039 301.603 157.669 302.797C159.818 304.375 159.06 309.545 157.202 313.833C155.956 316.698 153.984 319.626 152.032 319.626Z" fill="black"/>
<path d="M128.807 321.298C125.225 321.298 121.716 320.613 120.532 319.751C119.836 319.242 119.753 318.702 119.805 318.329C120.044 316.771 123.314 315.442 124.685 314.944C119.058 304.541 118.165 294.533 118.414 287.919C118.684 280.662 120.366 275.814 120.387 275.772L121.145 276.042C121.145 276.042 119.483 280.838 119.214 287.992C118.964 294.574 119.878 304.603 125.609 314.986L125.837 315.401L125.381 315.557C123.481 316.19 120.74 317.508 120.594 318.464C120.584 318.547 120.542 318.785 120.999 319.118C122.878 320.488 131.651 321.371 135.617 319.253C136.863 318.588 137.445 317.726 137.403 316.626C137.175 311.103 136.282 308.756 136.282 308.735L137.029 308.445C137.071 308.538 137.974 310.916 138.213 316.595C138.275 317.996 137.507 319.159 136.012 319.959C134.195 320.935 131.485 321.308 128.827 321.308L128.807 321.298Z" fill="black"/>
<path d="M118.632 287.265C118.539 287.203 110.171 280.548 110.088 268.172C110.067 264.767 110.835 262.514 112.382 261.465C114.074 260.313 116.016 261.081 116.099 261.123L115.798 261.86C115.798 261.86 114.157 261.216 112.818 262.13C111.531 263.012 110.856 265.099 110.877 268.172C110.96 280.153 119.027 286.58 119.11 286.642L118.622 287.275L118.632 287.265Z" fill="black"/>
<path d="M129.43 298.81C127.447 298.81 125.63 298.519 124 297.948C119.982 296.526 118.653 293.858 118.601 293.743L119.317 293.401C119.317 293.401 120.584 295.924 124.332 297.222C127.831 298.436 134.257 298.81 145.044 293.764L145.387 294.491C139.241 297.377 133.894 298.82 129.44 298.82L129.43 298.81Z" fill="black"/>
<path d="M129.637 309.639C123.937 309.639 121.477 307.158 121.342 307.012L121.923 306.462C121.923 306.462 126.138 310.656 136.271 307.853L136.49 308.621C133.821 309.359 131.548 309.639 129.637 309.639Z" fill="black"/>
<path d="M135.773 308.601C135.482 308.601 135.316 308.59 135.264 308.58L135.337 307.78C135.41 307.78 142.708 308.331 148.907 300.149L149.54 300.627C143.934 308.019 137.59 308.59 135.763 308.59L135.773 308.601Z" fill="black"/>
<path d="M119.878 279.385C119.878 279.385 127.156 289.237 131.641 293.909L133.479 291.895C133.479 291.895 123.896 280.423 120.76 275.907L119.878 279.385Z" fill="#E8C221"/>
<path d="M131.651 294.501L131.361 294.19C126.896 289.549 119.629 279.727 119.556 279.624L119.442 279.468L120.594 274.962L121.093 275.678C124.176 280.132 133.686 291.522 133.78 291.636L133.998 291.906L131.641 294.491L131.651 294.501ZM120.314 279.302C121.228 280.537 127.509 288.947 131.641 293.328L132.949 291.895C131.568 290.234 124.145 281.285 120.937 276.851L120.314 279.302Z" fill="black"/>
<path d="M139.417 289.756H133.936C132.227 289.756 130.842 291.142 130.842 292.85V295.809C130.842 297.518 132.227 298.903 133.936 298.903H139.417C141.126 298.903 142.511 297.518 142.511 295.809V292.85C142.511 291.142 141.126 289.756 139.417 289.756Z" fill="#E8C221"/>
<path d="M139.511 299.298H133.832C131.963 299.298 130.437 297.772 130.437 295.903V292.747C130.437 290.878 131.963 289.352 133.832 289.352H139.511C141.379 289.352 142.906 290.878 142.906 292.747V295.903C142.906 297.772 141.379 299.298 139.511 299.298ZM133.832 290.151C132.399 290.151 131.236 291.314 131.236 292.747V295.903C131.236 297.335 132.399 298.498 133.832 298.498H139.511C140.943 298.498 142.106 297.335 142.106 295.903V292.747C142.106 291.314 140.943 290.151 139.511 290.151H133.832Z" fill="black"/>
<path d="M142.387 295.28H133.396C132.326 295.28 131.454 294.449 131.454 293.421V292.435H132.254V293.421C132.254 294.003 132.773 294.48 133.406 294.48H142.397V295.28H142.387Z" fill="black"/>
<path d="M146.861 277.07L152.302 285.905L153.485 290.608L152.146 295.166L146.861 298.634L141.027 299.329L138.421 298.945L135.825 296.858L135.348 293.702L137.32 290.536L142.688 287.909L144.494 287.296L142.293 279.655L146.861 277.07Z" fill="white"/>
<path d="M140.892 299.838C137.507 299.838 136.116 298.146 135.597 297.128C134.268 294.574 135.327 291.075 137.112 289.995C140.352 288.054 142.657 287.327 143.56 287.088L141.421 279.333L142.189 279.125L144.557 287.701L144.131 287.784C144.131 287.784 141.535 288.282 137.528 290.691C136.053 291.574 135.181 294.616 136.303 296.775C137.829 299.713 142.231 299.817 148.388 297.087C150.962 295.944 152.499 294.252 152.956 292.051C154.274 285.687 146.332 276.997 146.249 276.914L146.83 276.374C147.173 276.737 155.126 285.448 153.734 292.217C153.226 294.678 151.533 296.567 148.709 297.824C145.335 299.319 142.792 299.859 140.892 299.859V299.838Z" fill="black"/>
<path d="M152.561 263.687C152.873 272.99 144.681 280.818 134.257 281.171C123.834 281.524 115.133 274.267 114.822 264.954C114.791 264.113 114.832 263.293 114.936 262.483C115.995 254.302 123.636 247.792 133.126 247.47C143.549 247.117 152.25 254.375 152.561 263.687Z" fill="white"/>
<path d="M133.531 281.576C128.661 281.576 124.062 279.956 120.491 276.987C116.732 273.851 114.573 269.584 114.417 264.964C114.386 264.123 114.427 263.262 114.542 262.431C115.071 258.351 117.231 254.541 120.615 251.727C124.031 248.882 128.464 247.231 133.115 247.076C143.747 246.712 152.644 254.167 152.966 263.677C153.122 268.287 151.253 272.699 147.713 276.073C144.183 279.447 139.407 281.389 134.268 281.565C134.019 281.565 133.769 281.576 133.531 281.576ZM133.842 247.865C133.603 247.865 133.375 247.865 133.136 247.875C124.031 248.176 116.369 254.489 115.331 262.535C115.227 263.324 115.185 264.134 115.216 264.943C115.362 269.325 117.417 273.384 120.999 276.374C124.592 279.375 129.295 280.942 134.237 280.766C139.179 280.6 143.767 278.731 147.152 275.492C150.526 272.273 152.302 268.079 152.156 263.698C151.855 254.842 143.705 247.854 133.832 247.854L133.842 247.865Z" fill="black"/>
<path d="M157.244 256.845C157.358 241.376 142.044 239.704 138.192 238.822C134.693 238.022 115.642 238.988 114.666 258.517L114.915 263.511C114.915 263.511 117.303 252.786 122.878 251.093L120.065 255.911L142.605 261.953L143.113 256.97L144.131 262.815C144.131 262.815 148.429 271.723 146.456 276.841C146.456 276.841 157.119 274.049 157.254 256.845H157.244Z" fill="black"/>
<path d="M148.43 270.427C149.866 269.648 150.521 268.076 149.892 266.917C149.263 265.758 147.589 265.45 146.152 266.229C144.716 267.008 144.061 268.58 144.69 269.739C145.319 270.898 146.993 271.206 148.43 270.427Z" fill="white"/>
<path d="M152.177 260.458C154.087 269.574 147.349 278.689 137.144 280.828C126.938 282.967 117.116 277.309 115.206 268.193C115.03 267.373 114.936 266.553 114.895 265.743C114.531 257.499 118.497 247.678 127.789 245.736C137.995 243.598 150.267 251.353 152.167 260.469L152.177 260.458Z" fill="white"/>
<path d="M133.531 281.575C128.661 281.575 124.062 279.956 120.491 276.987C116.732 273.851 114.573 269.584 114.417 264.964C114.386 264.123 114.427 263.261 114.542 262.431C115.071 258.351 117.231 254.54 120.615 251.727C124.031 248.882 128.464 247.231 133.115 247.075C143.747 246.712 152.644 254.166 152.966 263.677C153.122 268.286 151.253 272.699 147.713 276.073C144.183 279.447 139.407 281.389 134.268 281.565C134.019 281.565 133.769 281.575 133.531 281.575ZM133.842 247.864C133.603 247.864 131.018 245.508 130.79 245.518C121.685 245.819 116.379 254.488 115.331 262.535C115.227 263.324 115.185 264.133 115.216 264.943C115.362 269.324 117.417 273.384 120.999 276.374C124.592 279.374 129.295 280.942 134.237 280.766C139.179 280.6 143.767 278.731 147.152 275.492C150.526 272.273 152.302 268.079 152.156 263.697C151.855 254.841 143.705 247.854 133.832 247.854L133.842 247.864Z" fill="black"/>
<path d="M157.244 256.845C157.358 241.376 142.044 239.704 138.192 238.822C134.693 238.022 115.642 238.988 114.666 258.517L114.915 263.511C114.915 263.511 116.462 257.261 120.418 251.633L117.853 256.378L144.588 262.327L145.968 256.876L144.91 262.846C144.91 262.846 144.432 266.958 144.691 267.757C145.574 270.394 147.183 272.086 148.813 275.149C148.813 275.149 157.119 274.049 157.254 256.856L157.244 256.845Z" fill="black"/>
<path d="M148.43 270.427C149.866 269.648 150.521 268.076 149.892 266.917C149.263 265.758 147.589 265.45 146.152 266.229C144.716 267.008 144.061 268.58 144.69 269.739C145.319 270.898 146.993 271.206 148.43 270.427Z" fill="white"/>
<path d="M122.881 259.729L122.565 260.463L123.69 260.947L124.006 260.213L122.881 259.729Z" fill="black"/>
<path d="M134.422 261.924L132.824 261.93L132.826 262.729L134.425 262.724L134.422 261.924Z" fill="black"/>
<path d="M122.827 270.571C122.577 269.854 123.252 269.159 123.979 269.377C126.17 270.062 128.651 270.622 131.433 270.186C134.351 269.719 129.99 277.797 126.865 276.374C124.363 275.232 123.47 272.408 122.827 270.571Z" fill="black"/>
<path d="M127.654 276.945C127.322 276.945 127 276.872 126.699 276.738C124.135 275.575 123.169 272.772 122.525 270.923L122.453 270.705C122.287 270.228 122.401 269.709 122.754 269.345C123.107 268.982 123.626 268.847 124.104 269.003C126.149 269.636 128.62 270.238 131.381 269.792C132.181 269.667 132.513 270.062 132.648 270.311C133.219 271.391 132.046 273.82 130.634 275.315C129.627 276.385 128.599 276.935 127.665 276.935L127.654 276.945ZM123.699 269.73C123.564 269.73 123.429 269.781 123.325 269.896C123.18 270.041 123.138 270.238 123.211 270.436L123.283 270.654C123.917 272.481 124.789 274.983 127.031 276C128.194 276.53 129.523 275.315 130.042 274.765C131.413 273.311 132.243 271.266 131.932 270.674C131.911 270.633 131.849 270.508 131.496 270.57C128.568 271.038 125.993 270.415 123.854 269.75C123.802 269.73 123.751 269.73 123.688 269.73H123.699Z" fill="black"/>
<mask id="mask2_77_9796" style="mask-type:luminance" maskUnits="userSpaceOnUse" x="122" y="269" width="11" height="8">
<path d="M122.827 270.571C122.577 269.854 123.252 269.159 123.979 269.377C126.17 270.062 128.651 270.622 131.433 270.186C134.351 269.719 129.99 277.797 126.865 276.374C124.363 275.232 123.47 272.408 122.827 270.571Z" fill="white"/>
</mask>
<g mask="url(#mask2_77_9796)">
<path d="M124.612 274.464C124.612 274.464 130.457 272.595 131.413 274.069C131.413 274.069 129.212 276.675 127.716 276.644C126.221 276.613 124.612 274.464 124.612 274.464Z" fill="#F74D5A"/>
</g>
<path d="M122.775 265.795C123.296 265.795 123.719 265.172 123.719 264.403C123.719 263.635 123.296 263.012 122.775 263.012C122.253 263.012 121.83 263.635 121.83 264.403C121.83 265.172 122.253 265.795 122.775 265.795Z" fill="black"/>
<path d="M132.804 267.124C133.326 267.124 133.749 266.501 133.749 265.733C133.749 264.964 133.326 264.341 132.804 264.341C132.282 264.341 131.859 264.964 131.859 265.733C131.859 266.501 132.282 267.124 132.804 267.124Z" fill="black"/>
<path d="M118.186 268.152C118.103 268.152 118.02 268.131 117.947 268.068C117.77 267.933 117.729 267.684 117.864 267.508L118.632 266.47C118.767 266.293 119.016 266.252 119.193 266.387C119.369 266.522 119.411 266.771 119.276 266.947L118.508 267.985C118.424 268.089 118.31 268.152 118.186 268.152Z" fill="#EFA0B5"/>
<path d="M119.494 268.193C119.411 268.193 119.328 268.172 119.255 268.11C119.079 267.975 119.037 267.726 119.172 267.549L119.94 266.511C120.075 266.335 120.324 266.293 120.501 266.428C120.677 266.563 120.719 266.812 120.584 266.989L119.816 268.027C119.733 268.131 119.618 268.193 119.494 268.193Z" fill="#EFA0B5"/>
<path d="M121.01 268.183C120.927 268.183 120.843 268.162 120.771 268.1C120.594 267.965 120.553 267.716 120.688 267.539L121.456 266.501C121.591 266.324 121.84 266.283 122.017 266.418C122.193 266.553 122.235 266.802 122.1 266.978L121.331 268.017C121.248 268.12 121.134 268.183 121.01 268.183Z" fill="#EFA0B5"/>
<path d="M133.884 269.543C133.8 269.543 133.717 269.522 133.645 269.47C133.468 269.335 133.427 269.086 133.562 268.91L134.33 267.871C134.465 267.695 134.714 267.653 134.891 267.788C135.067 267.923 135.109 268.173 134.974 268.349L134.205 269.387C134.122 269.491 134.008 269.553 133.884 269.553V269.543Z" fill="#EFA0B5"/>
<path d="M135.192 269.584C135.109 269.584 135.026 269.564 134.953 269.512C134.776 269.377 134.735 269.128 134.87 268.951L135.638 267.913C135.773 267.736 136.022 267.695 136.199 267.83C136.375 267.965 136.417 268.214 136.282 268.391L135.514 269.429C135.431 269.533 135.316 269.595 135.192 269.595V269.584Z" fill="#EFA0B5"/>
<path d="M136.697 269.574C136.614 269.574 136.531 269.553 136.458 269.502C136.282 269.367 136.24 269.117 136.375 268.941L137.144 267.903C137.279 267.726 137.528 267.685 137.704 267.82C137.881 267.955 137.922 268.204 137.787 268.38L137.019 269.419C136.936 269.522 136.822 269.585 136.697 269.585V269.574Z" fill="#EFA0B5"/>
<path d="M157.586 260.386C157.358 260.386 157.15 260.323 156.963 260.199C144.079 251.571 124.498 247.398 118.497 247.107C118.404 247.107 118.331 247.076 118.29 247.055C117.677 246.827 117.334 246.173 117.49 245.55C117.625 244.979 118.144 244.574 118.736 244.574C118.84 244.574 118.944 244.584 119.037 244.615C119.058 244.615 119.162 244.646 119.369 244.698C123.398 240.151 129.315 237.545 135.617 237.545C138.389 237.545 141.13 238.054 143.757 239.04C151.969 242.144 157.638 249.568 158.271 257.987C158.531 258.154 158.728 258.392 158.822 258.693C158.925 259.015 158.894 259.368 158.739 259.669C158.51 260.095 158.064 260.375 157.597 260.375L157.586 260.386Z" fill="#F2C873"/>
<path d="M135.617 237.95C138.265 237.95 140.975 238.427 143.622 239.424C152.011 242.591 157.378 250.159 157.898 258.247C157.939 258.268 157.981 258.289 158.012 258.309C158.437 258.538 158.604 259.067 158.386 259.493C158.23 259.794 157.918 259.981 157.596 259.981C157.462 259.981 157.316 259.939 157.192 259.856C144.484 251.364 124.976 247.024 118.518 246.712C118.487 246.712 118.445 246.692 118.414 246.681C118.009 246.526 117.77 246.089 117.874 245.653C117.968 245.249 118.331 244.979 118.726 244.979C118.798 244.979 118.86 244.979 118.933 244.999C118.954 244.999 119.151 245.051 119.494 245.134C123.46 240.577 129.378 237.95 135.617 237.95ZM135.617 237.15C129.284 237.15 123.346 239.736 119.224 244.252C119.162 244.241 119.13 244.231 119.12 244.231C118.995 244.2 118.86 244.179 118.726 244.179C117.947 244.179 117.282 244.709 117.096 245.456C116.898 246.276 117.345 247.128 118.134 247.418C118.186 247.439 118.31 247.491 118.476 247.501C124.446 247.792 143.923 251.945 156.745 260.521C156.994 260.687 157.285 260.78 157.586 260.78C158.199 260.78 158.79 260.417 159.081 259.856C159.289 259.462 159.33 259.005 159.195 258.579C159.092 258.257 158.905 257.977 158.645 257.78C157.939 249.277 152.187 241.812 143.892 238.677C141.213 237.67 138.431 237.15 135.607 237.15H135.617Z" fill="black"/>
<path d="M157.223 254.603C141.297 246.224 127.55 243.639 121.903 242.892C121.383 243.317 120.885 243.764 120.408 244.241C124.872 244.729 139.968 247.013 157.617 256.544C157.514 255.89 157.389 255.246 157.223 254.613V254.603Z" fill="white"/>
<path d="M145.958 269.024C145.958 269.024 146.726 267.134 148.387 267.986" stroke="#1C1C1C" stroke-width="0.5" stroke-miterlimit="10"/>
<defs>
<clipPath id="clip0_77_9796">
<rect width="42.9079" height="125.745" fill="white" transform="translate(63.3508 220.251)"/>
</clipPath>
<clipPath id="clip1_77_9796">
<rect width="105" height="61" fill="white" transform="translate(138 201)"/>
</clipPath>
</defs>
</svg>
