<svg width="134" height="134" viewBox="0 0 134 134" fill="none" xmlns="http://www.w3.org/2000/svg">
<path d="M45.5482 84.84C45.2782 84.59 38.9782 79.63 34.3682 76.01C31.7482 73.96 27.9482 74.52 26.0482 77.25C24.0682 80.07 24.9882 83.99 28.0082 85.65L40.0382 92.26" fill="#4252E2"/>
<path d="M45.5482 84.84C45.2782 84.59 38.9782 79.63 34.3682 76.01C31.7482 73.96 27.9482 74.52 26.0482 77.25C24.0682 80.07 24.9882 83.99 28.0082 85.65L40.0382 92.26" stroke="black" stroke-width="1.3" stroke-miterlimit="10"/>
<path d="M109.598 76.62C109.118 37.83 77.4782 37.83 72.4982 38.07C72.1282 38.09 71.7682 38.09 71.4082 38.08C66.4182 37.96 34.7982 38.75 35.2782 77.54C35.2782 77.54 33.7682 107.26 72.6982 106.89C72.6982 106.89 72.7682 106.89 72.8082 106.89C72.8482 106.89 72.8782 106.89 72.9182 106.89C111.838 106.29 109.598 76.61 109.598 76.61V76.62Z" fill="#4252E2" stroke="black" stroke-width="1.3" stroke-miterlimit="10"/>
<path d="M63.8882 89.83C52.6082 89.83 44.6582 87.44 40.2682 82.72C36.6582 78.84 36.9082 74.73 36.9182 74.69C36.8482 69.13 38.5282 64.6 41.8982 61.19C48.6382 54.37 60.1782 53.84 63.5582 53.84C63.9482 53.84 64.2082 53.84 64.3382 53.85C64.5882 53.84 65.1782 53.81 66.0482 53.81C72.1482 53.81 92.0782 55.26 92.3082 73.96C92.3082 74.04 92.6682 78.19 89.1082 82.17C84.7782 87.01 76.3982 89.66 64.8982 89.83H63.9082H63.8882Z" fill="white"/>
<path d="M66.0282 54.3C72.0182 54.3 91.5582 55.72 91.7882 73.96V74V74.04C91.7982 74.2 92.1182 78.04 88.6882 81.85C84.4482 86.57 76.2082 89.15 64.8582 89.32H64.8282H64.6982C64.4182 89.32 64.1482 89.32 63.8782 89.32C52.9182 89.32 44.8882 86.92 40.6482 82.39C37.1782 78.68 37.3882 74.87 37.4082 74.71V74.67V74.63C37.3382 69.25 38.9682 64.84 42.2382 61.53C48.8382 54.85 60.2082 54.33 63.5382 54.33C63.9182 54.33 64.1782 54.33 64.2982 54.34H64.3482H64.3982C64.6082 54.33 65.1782 54.3 66.0282 54.3ZM66.0282 53.3C65.1482 53.3 64.5482 53.33 64.3382 53.34C64.2082 53.34 63.9382 53.33 63.5482 53.33C58.7682 53.33 36.1582 54.4 36.4182 74.65C36.4182 74.65 35.2182 90.33 63.8982 90.33C64.1682 90.33 64.4482 90.33 64.7282 90.33C64.7282 90.33 64.7882 90.33 64.8182 90.33C64.8482 90.33 64.8782 90.33 64.8982 90.33C94.4282 89.9 92.8082 73.95 92.8082 73.95C92.5682 54.77 72.2482 53.3 66.0482 53.3H66.0282Z" fill="#2942AA"/>
<path d="M63.8582 75.08C63.8782 76.87 61.7482 78.36 59.1082 78.39C56.4682 78.42 54.2982 76.99 54.2782 75.2" fill="white"/>
<path d="M63.8582 75.08C63.8782 76.87 61.7482 78.36 59.1082 78.39C56.4682 78.42 54.2982 76.99 54.2782 75.2" stroke="black" stroke-width="1.3" stroke-miterlimit="10" stroke-linecap="round"/>
<path d="M45.0582 76.39L43.5482 78.67" stroke="#EFA0B5" stroke-width="1.3" stroke-miterlimit="10" stroke-linecap="round"/>
<path d="M47.8382 76.33L46.3182 78.61" stroke="#EFA0B5" stroke-width="1.3" stroke-miterlimit="10" stroke-linecap="round"/>
<path d="M51.0282 76.17L49.5182 78.45" stroke="#EFA0B5" stroke-width="1.3" stroke-miterlimit="10" stroke-linecap="round"/>
<path d="M76.5882 76.39L75.0782 78.67" stroke="#EFA0B5" stroke-width="1.3" stroke-miterlimit="10" stroke-linecap="round"/>
<path d="M79.3683 76.33L77.8483 78.61" stroke="#EFA0B5" stroke-width="1.3" stroke-miterlimit="10" stroke-linecap="round"/>
<path d="M82.5582 76.17L81.0482 78.45" stroke="#EFA0B5" stroke-width="1.3" stroke-miterlimit="10" stroke-linecap="round"/>
<path d="M71.478 78.1725C73.8858 78.1427 75.7965 74.7922 75.7456 70.6891C75.6948 66.5859 73.7017 63.2838 71.2939 63.3136C68.8861 63.3435 66.9754 66.6939 67.0263 70.7971C67.0771 74.9003 69.0702 78.2023 71.478 78.1725Z" fill="black"/>
<path d="M43.5482 70.04H52.1082" stroke="black" stroke-width="1.3" stroke-miterlimit="10"/>
<path opacity="0.22" d="M72.0482 83.93C79.3384 83.93 85.2482 78.0202 85.2482 70.73C85.2482 63.4399 79.3384 57.53 72.0482 57.53C64.7581 57.53 58.8482 63.4399 58.8482 70.73C58.8482 78.0202 64.7581 83.93 72.0482 83.93Z" fill="#BDE9FF"/>
<path d="M77.9682 83.84L83.7182 92.44C84.2682 93.26 85.3682 93.49 86.1882 92.96C87.0382 92.41 87.2782 91.27 86.7182 90.43L81.0082 81.92L77.9682 83.84Z" fill="white" stroke="black" stroke-width="1.3" stroke-miterlimit="10"/>
<path d="M72.4951 85.0001C65.3824 85.0001 59.15 79.7408 58.1396 72.5016C57.6094 68.6721 58.5998 64.8526 60.9307 61.7629C63.2616 58.6733 66.6629 56.6835 70.5043 56.1436C78.4173 55.0237 85.7601 60.5831 86.8605 68.5021C87.961 76.4212 82.4293 83.7503 74.5063 84.8501C74.0557 84.9106 73.678 85.0001 72.4951 85.0001Z" stroke="black" stroke-width="1.8" stroke-miterlimit="10"/>
<path d="M99.6182 82.48C99.2582 82.55 91.5482 84.75 85.9082 86.36C82.7082 87.27 80.9382 90.68 82.0282 93.83C83.1582 97.09 86.8582 98.65 89.9782 97.17L102.388 91.31" fill="#4252E2"/>
<path d="M99.6182 82.48C99.2582 82.55 91.5482 84.75 85.9082 86.36C82.7082 87.27 80.9382 90.68 82.0282 93.83C83.1582 97.09 86.8582 98.65 89.9782 97.17L102.388 91.31" stroke="black" stroke-width="1.3" stroke-miterlimit="10"/>
<path d="M87.7982 45.18L96.3482 32.79C97.8482 31.48 98.1282 29.34 96.9782 28.02C95.8182 26.69 93.6682 26.68 92.1682 27.99L78.8182 38.7" fill="#4252E2"/>
<path d="M87.7982 45.18L96.3482 32.79C97.8482 31.48 98.1282 29.34 96.9782 28.02C95.8182 26.69 93.6682 26.68 92.1682 27.99L78.8182 38.7" stroke="black" stroke-width="1.3" stroke-miterlimit="10"/>
<path d="M95.5682 34.04C98.0645 34.04 100.088 32.0163 100.088 29.52C100.088 27.0237 98.0645 25 95.5682 25C93.0719 25 91.0482 27.0237 91.0482 29.52C91.0482 32.0163 93.0719 34.04 95.5682 34.04Z" fill="#4252E2" stroke="black" stroke-width="1.3" stroke-miterlimit="10"/>
<path d="M97.4954 30.5947C98.0523 30.5099 98.4161 29.8657 98.308 29.1559C98.1999 28.4461 97.6608 27.9395 97.1039 28.0243C96.547 28.1092 96.1832 28.7533 96.2913 29.4631C96.3994 30.1729 96.9385 30.6795 97.4954 30.5947Z" fill="white"/>
<path d="M71.9476 126.22C89.1458 126.22 103.088 123.932 103.088 121.11C103.088 118.288 89.1458 116 71.9476 116C54.7495 116 40.8076 118.288 40.8076 121.11C40.8076 123.932 54.7495 126.22 71.9476 126.22Z" fill="#EAEDF3"/>
</svg>
