<svg width="134" height="134" viewBox="0 0 134 134" fill="none" xmlns="http://www.w3.org/2000/svg">
<mask id="mask0_109_13624" style="mask-type:luminance" maskUnits="userSpaceOnUse" x="56" y="112" width="67" height="10">
<path d="M122.888 112.627H56.5684V121.969H122.888V112.627Z" fill="white"/>
</mask>
<g mask="url(#mask0_109_13624)">
<path d="M89.7283 121.96C108.038 121.96 122.888 119.874 122.888 117.293C122.888 114.713 108.038 112.627 89.7283 112.627C71.4183 112.627 56.5684 114.713 56.5684 117.293C56.5684 119.874 71.4183 121.96 89.7283 121.96Z" fill="#EAEDF3"/>
</g>
<path d="M13.9383 75.2871L5.0783 33.6066C4.8083 32.2918 5.24825 31.0758 6.21825 30.4628L40.8483 8.74268C41.8583 8.10996 43.3783 9.17768 43.3783 10.5222V16.1079" fill="#F2C873"/>
<path d="M13.9383 75.2871L5.0783 33.6066C4.8083 32.2918 5.24825 31.0758 6.21825 30.4628L40.8483 8.74268C41.8583 8.10996 43.3783 9.17768 43.3783 10.5222V16.1079" stroke="black" stroke-width="1.3" stroke-miterlimit="10"/>
<path d="M125.018 79.8244C127.718 42.0985 96.6283 39.5379 91.7183 39.3699C91.3583 39.36 90.9983 39.3303 90.6383 39.2908C85.7483 38.7767 54.6083 36.9774 51.9083 74.7034C51.9083 74.7034 47.9983 103.453 86.2783 106.25L86.4983 106.27C124.798 108.841 125.018 79.8244 125.018 79.8244Z" fill="#4252E2" stroke="black" stroke-width="1.3" stroke-miterlimit="10"/>
<mask id="mask1_109_13624" style="mask-type:luminance" maskUnits="userSpaceOnUse" x="52" y="39" width="73" height="67">
<path d="M124.858 76.5817C124.208 39.4291 93.5583 39.5873 88.7383 39.8345C88.3783 39.8542 88.0383 39.8542 87.6783 39.8542C82.8483 39.7653 52.2083 40.6649 52.8683 77.8175C52.8683 77.8175 51.5483 106.29 89.2583 105.756C89.2583 105.756 89.3283 105.756 89.3683 105.756C89.4083 105.756 89.4383 105.756 89.4783 105.756C127.178 104.995 124.868 76.5817 124.868 76.5817H124.858Z" fill="white"/>
</mask>
<g mask="url(#mask1_109_13624)">
<path d="M78.1183 84.1737C74.0883 84.1737 69.4283 83.4619 64.2683 82.0482L64.1683 82.0185C53.1883 78.9637 45.8882 74.3764 42.9782 68.7314C40.5982 64.0848 41.9783 60.2786 41.9983 60.2391C45.2283 48.8007 54.5483 46.4082 61.8083 46.4082C67.8883 46.4082 73.1283 48.0592 73.7083 48.247C75.1683 48.5832 87.7883 51.6677 93.1283 60.5357C95.6083 64.6484 96.0983 69.4234 94.6083 74.7027C94.5283 75.1278 92.6183 84.1737 78.1383 84.1737H78.1183Z" fill="white"/>
<path d="M61.7983 46.893C67.8083 46.893 72.9682 48.5243 73.5382 48.7022H73.5783L73.6283 48.722C74.1883 48.8505 87.3583 51.9252 92.6783 60.7734C95.0783 64.7674 95.5683 69.4041 94.1083 74.5647V74.6042L94.0882 74.6438C94.0182 75.0096 92.1483 83.6798 78.1183 83.6798C74.1383 83.6798 69.5183 82.968 64.3983 81.5642H64.3583L64.2383 81.5246C53.4783 78.5291 46.2783 74.0407 43.4283 68.5341C41.1283 64.0951 42.3983 60.5559 42.4483 60.4076L42.4682 60.368V60.3285C44.9982 51.4111 51.4882 46.893 61.7882 46.893M61.7983 45.9044C54.0083 45.9044 44.7782 48.544 41.5282 60.0615C41.5282 60.0615 35.9482 74.6833 63.9782 82.4737C63.9782 82.4737 64.0283 82.4935 64.0583 82.4935C64.0883 82.4935 64.1083 82.5133 64.1383 82.5133C69.7483 84.0456 74.3483 84.6586 78.1283 84.6586C93.2383 84.6586 95.0882 74.8217 95.0882 74.8217C100.898 54.2385 75.4883 48.1288 73.8683 47.7531C73.1683 47.5258 67.9383 45.8945 61.8183 45.8945L61.7983 45.9044Z" fill="#2942AA"/>
<path d="M59.2383 69.3641C58.4383 70.9262 55.8983 71.2425 53.5783 70.0759C51.2583 68.9094 50.0183 66.6948 50.8183 65.1328" fill="white"/>
<path d="M59.2383 69.3641C58.4383 70.9262 55.8983 71.2425 53.5783 70.0759C51.2583 68.9094 50.0183 66.6948 50.8183 65.1328" stroke="black" stroke-width="1.3" stroke-miterlimit="10" stroke-linecap="round"/>
</g>
<path d="M65.3383 82.1683C65.0683 81.931 58.6983 77.2944 54.0483 73.9034C51.4083 71.9855 47.6783 72.6478 45.8883 75.3666C44.0283 78.1842 45.0483 81.9706 48.0783 83.4931L60.1383 89.5632" fill="#4252E2"/>
<path d="M65.3383 82.1683C65.0683 81.931 58.6983 77.2944 54.0483 73.9034C51.4083 71.9855 47.6783 72.6478 45.8883 75.3666C44.0283 78.1842 45.0483 81.9706 48.0783 83.4931L60.1383 89.5632" stroke="black" stroke-width="1.3" stroke-miterlimit="10"/>
<path d="M64.5383 66.4189L62.3383 67.9612" stroke="#EFA0B5" stroke-width="1.3" stroke-miterlimit="10" stroke-linecap="round"/>
<path d="M64.9083 68.8801L67.1083 67.3379" stroke="#EFA0B5" stroke-width="1.3" stroke-miterlimit="10" stroke-linecap="round"/>
<path d="M70.1083 68.3076L67.9083 69.8499" stroke="#EFA0B5" stroke-width="1.3" stroke-miterlimit="10" stroke-linecap="round"/>
<path d="M66.1668 61.383C67.2235 58.9675 66.9173 56.5121 65.4828 55.8987C64.0483 55.2853 62.0287 56.7461 60.9719 59.1616C59.9151 61.5771 60.2213 64.0324 61.6559 64.6459C63.0904 65.2593 65.11 63.7985 66.1668 61.383Z" fill="black"/>
<path d="M111.578 58.1547L123.828 47.2402C125.758 46.2417 126.598 44.0569 125.708 42.3663C124.808 40.6758 122.518 40.1221 120.588 41.1305L103.658 49.0593" fill="#4252E2"/>
<path d="M111.578 58.1547L123.828 47.2402C125.758 46.2417 126.598 44.0569 125.708 42.3663C124.808 40.6758 122.518 40.1221 120.588 41.1305L103.658 49.0593" stroke="black" stroke-width="1.3" stroke-miterlimit="10"/>
<path d="M123.818 48.4954C126.552 48.4954 128.768 46.3044 128.768 43.6017C128.768 40.899 126.552 38.708 123.818 38.708C121.084 38.708 118.868 40.899 118.868 43.6017C118.868 46.3044 121.084 48.4954 123.818 48.4954Z" fill="#4252E2" stroke="black" stroke-width="1.3" stroke-miterlimit="10"/>
<path d="M126.87 43.9231C126.934 43.1504 126.491 42.4836 125.88 42.4337C125.269 42.3838 124.722 42.9698 124.657 43.7425C124.593 44.5152 125.036 45.182 125.647 45.2319C126.258 45.2818 126.805 44.6958 126.87 43.9231Z" fill="white"/>
<path d="M50.6283 11.4906L15.0683 34.15C14.2483 34.6739 13.7683 35.6032 13.7683 36.6808L13.7083 74.0905C13.7083 76.8191 17.0383 78.8952 18.9583 77.3628L51.8883 50.8478C52.5483 50.314 52.9283 49.4934 52.9483 48.5542L53.5883 13.5272C53.6183 11.9948 51.7983 10.7492 50.6183 11.4906H50.6283Z" fill="white" stroke="black" stroke-width="1.3" stroke-miterlimit="10"/>
<path d="M15.7583 77.3928C16.1683 77.4817 29.6583 42.4053 29.6583 42.4053L43.3583 51.2238" stroke="black" stroke-width="1.3" stroke-miterlimit="10"/>
<path d="M39.5883 49.4345L44.3483 37.1953L53.0383 43.6016" stroke="black" stroke-width="1.3" stroke-miterlimit="10"/>
<path d="M42.3283 31.7188C41.1783 33.2413 39.5383 33.4588 38.6583 32.2131C37.7783 30.9674 38.0083 28.7233 39.1583 27.2008C40.3083 25.6783 41.9483 25.4608 42.8283 26.7065C43.7083 27.9521 43.4783 30.1963 42.3283 31.7188Z" stroke="black" stroke-width="1.3" stroke-miterlimit="10"/>
<path d="M34.6283 69.8105C34.6283 69.8105 35.0383 69.8105 35.6083 69.9694" stroke="black" stroke-width="1.3" stroke-miterlimit="10"/>
<path d="M37.3382 70.8389C38.7982 72.0252 39.9483 74.566 38.0783 80.043C34.7483 89.8304 29.2383 96.207 45.1983 101.575" stroke="black" stroke-width="1.3" stroke-miterlimit="10"/>
<path d="M46.1283 101.882C46.4383 101.981 46.7583 102.08 47.0783 102.178" stroke="black" stroke-width="1.3" stroke-miterlimit="10"/>
</svg>
