<svg width="134" height="134" viewBox="0 0 134 134" fill="none" xmlns="http://www.w3.org/2000/svg">
<mask id="mask0_109_13449" style="mask-type:luminance" maskUnits="userSpaceOnUse" x="44" y="25" width="87" height="86">
<path d="M130.51 25H44V110.77H130.51V25Z" fill="white"/>
</mask>
<g mask="url(#mask0_109_13449)">
<path d="M129.53 77.15C126.16 39.03 95.04 41.4 90.15 42C89.79 42.04 89.44 42.08 89.08 42.1C84.16 42.35 53.1101 45.49 56.4901 83.61C56.4901 83.61 57.2301 112.97 95.4901 109.69H95.71C133.95 106.19 129.53 77.16 129.53 77.16V77.14V77.15Z" fill="#4252E2" stroke="black" stroke-width="1.3" stroke-miterlimit="10"/>
<path d="M87.95 92.85C66.04 92.85 65.7 80.61 65.7 80.1C65.21 74.58 66.56 70.02 69.69 66.45C76.49 58.7 89.34 57.95 90.78 57.88C91.2 57.82 93.07 57.59 95.67 57.59C103.97 57.59 118.1 59.89 119.45 75.26C119.46 75.37 120.09 79.29 116.98 83.36C113.13 88.37 105.19 91.54 93.98 92.56H93.85C91.77 92.75 89.79 92.84 87.96 92.84L87.95 92.85Z" fill="white"/>
<path d="M95.6601 58.42C103.67 58.42 117.31 60.62 118.62 75.34V75.42L118.64 75.48C118.66 75.62 119.19 79.15 116.27 82.91C112.56 87.7 104.82 90.76 93.89 91.74H93.7401C91.7201 91.93 89.77 92.02 87.95 92.02C66.95 92.02 66.5301 80.57 66.5301 80.11V79.97C66.0701 74.76 67.34 70.4 70.32 67.01C77.01 59.39 90.26 58.75 90.82 58.73H90.9701C91.3001 58.67 93.1101 58.44 95.6701 58.44M95.6601 56.77C93.0301 56.77 91.1501 57 90.7401 57.06C89.0701 57.13 62.9501 58.56 64.8501 80.1C64.8501 80.1 64.8501 93.68 87.9301 93.68C89.7601 93.68 91.7301 93.59 93.8701 93.41H94.0501C123.06 90.78 120.28 75.22 120.28 75.22C118.84 58.98 103.74 56.78 95.6701 56.78V56.76L95.6601 56.77Z" fill="#2942AA"/>
<path d="M97.76 80.54C97.91 82.3 95.93 83.92 93.34 84.15C90.75 84.38 88.5 83.13 88.34 81.38" fill="white"/>
<path d="M97.76 80.54C97.91 82.3 95.93 83.92 93.34 84.15C90.75 84.38 88.5 83.13 88.34 81.38" stroke="black" stroke-width="1.3" stroke-miterlimit="10" stroke-linecap="round"/>
<path d="M73.92 83.9L72.59 86.25" stroke="#EFA0B5" stroke-width="1.3" stroke-miterlimit="10" stroke-linecap="round"/>
<path d="M76.65 83.63L75.32 85.98" stroke="#EFA0B5" stroke-width="1.3" stroke-miterlimit="10" stroke-linecap="round"/>
<path d="M79.78 83.25L78.45 85.6" stroke="#EFA0B5" stroke-width="1.3" stroke-miterlimit="10" stroke-linecap="round"/>
<path d="M106.81 80.99L105.48 83.34" stroke="#EFA0B5" stroke-width="1.3" stroke-miterlimit="10" stroke-linecap="round"/>
<path d="M109.54 80.73L108.21 83.08" stroke="#EFA0B5" stroke-width="1.3" stroke-miterlimit="10" stroke-linecap="round"/>
<path d="M112.67 80.33L111.34 82.68" stroke="#EFA0B5" stroke-width="1.3" stroke-miterlimit="10" stroke-linecap="round"/>
<path d="M80.47 82.07C82.03 81.93 83.1001 79.67 82.8601 77.02C82.6301 74.37 81.1701 72.33 79.6201 72.47C78.0601 72.61 76.99 74.87 77.23 77.52C77.47 80.17 78.92 82.21 80.47 82.07Z" fill="black"/>
<path d="M104.91 79.91C106.47 79.77 107.54 77.51 107.3 74.86C107.07 72.21 105.61 70.17 104.06 70.31C102.5 70.45 101.43 72.71 101.67 75.36C101.91 78.01 103.36 80.05 104.91 79.91Z" fill="black"/>
<path d="M63.8601 88.3C63.5001 88.31 55.64 89.21 49.89 89.87C46.63 90.25 44.3601 93.27 44.9201 96.51C45.4901 99.86 48.85 101.97 52.13 101.04L65.15 97.33" fill="#4252E2"/>
<path d="M63.8601 88.3C63.5001 88.31 55.64 89.21 49.89 89.87C46.63 90.25 44.3601 93.27 44.9201 96.51C45.4901 99.86 48.85 101.97 52.13 101.04L65.15 97.33" stroke="black" stroke-width="1.3" stroke-miterlimit="10"/>
<path d="M127.41 82.75C127.12 82.53 120.48 78.24 115.62 75.1C112.87 73.32 109.18 74.23 107.56 77.08C105.88 80.03 107.13 83.8 110.26 85.15L122.68 90.53" fill="#4252E2"/>
<path d="M127.41 82.75C127.12 82.53 120.48 78.24 115.62 75.1C112.87 73.32 109.18 74.23 107.56 77.08C105.88 80.03 107.13 83.8 110.26 85.15L122.68 90.53" stroke="black" stroke-width="1.3" stroke-miterlimit="10"/>
<path d="M98.76 49.68L104.81 34.15C106.09 32.36 105.85 29.98 104.27 28.84C102.69 27.7 100.36 28.24 99.08 30.03L87.44 44.96" fill="#4252E2"/>
<path d="M98.76 49.68L104.81 34.15C106.09 32.36 105.85 29.98 104.27 28.84C102.69 27.7 100.36 28.24 99.08 30.03L87.44 44.96" stroke="black" stroke-width="1.3" stroke-miterlimit="10"/>
<path d="M103.11 35.82C105.87 35.82 108.11 33.58 108.11 30.82C108.11 28.06 105.87 25.82 103.11 25.82C100.35 25.82 98.11 28.06 98.11 30.82C98.11 33.58 100.35 35.82 103.11 35.82Z" fill="#4252E2" stroke="black" stroke-width="1.3" stroke-miterlimit="10"/>
<path d="M105.47 31.51C106.05 31.28 106.28 30.49 105.98 29.76C105.68 29.02 104.97 28.62 104.4 28.85C103.82 29.08 103.59 29.87 103.89 30.6C104.19 31.34 104.9 31.74 105.47 31.51Z" fill="white"/>
</g>
<mask id="mask1_109_13449" style="mask-type:luminance" maskUnits="userSpaceOnUse" x="58" y="117" width="67" height="10">
<path d="M124.69 117.4H58.3701V126.85H124.69V117.4Z" fill="white"/>
</mask>
<g mask="url(#mask1_109_13449)">
<path d="M91.5301 126.84C109.84 126.84 124.69 124.73 124.69 122.12C124.69 119.51 109.84 117.4 91.5301 117.4C73.2201 117.4 58.3701 119.51 58.3701 122.12C58.3701 124.73 73.2201 126.84 91.5301 126.84Z" fill="#EAEDF3"/>
</g>
<mask id="mask2_109_13449" style="mask-type:luminance" maskUnits="userSpaceOnUse" x="2" y="28" width="50" height="80">
<path d="M51.85 28.3198H2V107.61H51.85V28.3198Z" fill="white"/>
</mask>
<g mask="url(#mask2_109_13449)">
<path d="M26.86 81.5198C26.86 81.5198 27.34 81.5198 27.93 81.7398" stroke="black" stroke-width="1.3" stroke-miterlimit="10"/>
<path d="M29.58 82.9798C30.36 84.1098 30.74 86.0898 29.56 89.5998C27.01 97.1998 22.8 102.2 34.53 106.4" stroke="black" stroke-width="1.3" stroke-miterlimit="10"/>
<path d="M35.54 106.75C35.88 106.86 36.23 106.97 36.59 107.08" stroke="black" stroke-width="1.3" stroke-miterlimit="10"/>
<path d="M49.54 28.8698H4.79999C3.82999 28.8698 3.04001 29.6598 3.04001 30.6298V41.6498C3.04001 42.6198 3.82999 43.4098 4.79999 43.4098H49.54C50.51 43.4098 51.3 42.6198 51.3 41.6498V30.6298C51.3 29.6598 50.51 28.8698 49.54 28.8698Z" stroke="#141414" stroke-width="1.3" stroke-miterlimit="10"/>
<path d="M12.04 36.4498C13.21 36.4498 14.15 35.4998 14.15 34.3398C14.15 33.1798 13.2 32.2298 12.04 32.2298C10.88 32.2298 9.92999 33.1798 9.92999 34.3398C9.92999 35.4998 10.88 36.4498 12.04 36.4498Z" stroke="black" stroke-width="1.3" stroke-miterlimit="10"/>
<path d="M7.72 40.0398C7.72 38.5798 9.64999 37.3998 12.05 37.3998C14.45 37.3998 16.38 38.5798 16.38 40.0398" stroke="black" stroke-width="1.3" stroke-miterlimit="10"/>
<path d="M49.54 46.0698H4.79999C3.82999 46.0698 3.04001 46.8598 3.04001 47.8298V58.8498C3.04001 59.8198 3.82999 60.6098 4.79999 60.6098H49.54C50.51 60.6098 51.3 59.8198 51.3 58.8498V47.8298C51.3 46.8598 50.51 46.0698 49.54 46.0698Z" stroke="#141414" stroke-width="1.3" stroke-miterlimit="10"/>
<path d="M12.04 53.6498C13.21 53.6498 14.15 52.6998 14.15 51.5398C14.15 50.3798 13.2 49.4298 12.04 49.4298C10.88 49.4298 9.92999 50.3798 9.92999 51.5398C9.92999 52.6998 10.88 53.6498 12.04 53.6498Z" stroke="black" stroke-width="1.3" stroke-miterlimit="10"/>
<path d="M7.72 57.2398C7.72 55.7798 9.64999 54.5998 12.05 54.5998C14.45 54.5998 16.38 55.7798 16.38 57.2398" stroke="black" stroke-width="1.3" stroke-miterlimit="10"/>
<path d="M49.05 63.2598H4.31C3.34 63.2598 2.54999 64.0498 2.54999 65.0198V76.0398C2.54999 77.0098 3.34 77.7998 4.31 77.7998H49.05C50.02 77.7998 50.81 77.0098 50.81 76.0398V65.0198C50.81 64.0498 50.02 63.2598 49.05 63.2598Z" stroke="#141414" stroke-width="1.3" stroke-miterlimit="10"/>
<path d="M12.04 70.8498C13.21 70.8498 14.15 69.8998 14.15 68.7398C14.15 67.5798 13.2 66.6298 12.04 66.6298C10.88 66.6298 9.92999 67.5798 9.92999 68.7398C9.92999 69.8998 10.88 70.8498 12.04 70.8498Z" stroke="black" stroke-width="1.3" stroke-miterlimit="10"/>
<path d="M7.72 74.4298C7.72 72.9698 9.64999 71.7898 12.05 71.7898C14.45 71.7898 16.38 72.9698 16.38 74.4298" stroke="black" stroke-width="1.3" stroke-miterlimit="10"/>
<path d="M21.78 36.2298H34.97" stroke="#141414" stroke-width="1.3" stroke-miterlimit="10"/>
<path d="M21.78 53.3398H34.97" stroke="#141414" stroke-width="1.3" stroke-miterlimit="10"/>
<path d="M21.78 70.8498H34.97" stroke="#141414" stroke-width="1.3" stroke-miterlimit="10"/>
</g>
</svg>
