<svg width="187" height="117" viewBox="0 0 187 117" fill="none" xmlns="http://www.w3.org/2000/svg">
<g clip-path="url(#clip0_109_13226)">
<path d="M96.8711 116.993C117.715 116.993 134.613 114.742 134.613 111.964C134.613 109.187 117.715 106.936 96.8711 106.936C76.0268 106.936 59.1292 109.187 59.1292 111.964C59.1292 114.742 76.0268 116.993 96.8711 116.993Z" fill="#EAEDF3"/>
</g>
<g clip-path="url(#clip1_109_13226)">
<path d="M136.198 70.0239C134.89 28.4448 100.972 29.0865 95.638 29.4513C95.248 29.4765 94.858 29.489 94.468 29.489C89.1213 29.4639 55.229 30.961 56.5374 72.54C56.5374 72.54 55.5309 104.432 97.2609 103.237C97.2609 103.237 97.3364 103.237 97.3867 103.237C97.4371 103.237 97.4622 103.237 97.5125 103.237C139.23 101.79 136.211 70.0239 136.211 70.0239H136.198Z" fill="#4252E2" stroke="black" stroke-width="1.3" stroke-miterlimit="10"/>
<path d="M95.9401 84.8565C83.6362 84.7936 74.6536 82.051 69.9736 76.9181C66.1365 72.7162 66.4762 68.3003 66.4762 68.2626C66.5391 47.9952 88.1149 46.4226 94.7197 46.4226C95.4368 46.4226 95.9275 46.4478 96.1162 46.4478C96.3426 46.4478 96.7452 46.4226 97.3365 46.4226C100.922 46.4226 113.176 46.9762 120.296 54.122C123.882 57.72 125.693 62.5133 125.681 68.3758C125.681 68.4765 125.995 72.8797 122.146 77.0691C117.453 82.1516 108.483 84.8439 96.2168 84.8439H96.1162H95.9401V84.8565Z" fill="white"/>
<path d="M94.7197 47.0516C95.4242 47.0516 95.9022 47.0768 96.0909 47.0768H96.1539H96.2168C96.3803 47.0768 96.7703 47.0516 97.349 47.0516C100.872 47.0516 112.911 47.5926 119.868 54.5749C123.341 58.0471 125.089 62.702 125.064 68.3884V68.4387V68.4891C125.077 68.6652 125.341 72.7162 121.655 76.6791C117.075 81.6233 108.282 84.2275 96.2168 84.2275H95.9526C83.85 84.1645 75.0435 81.4975 70.4768 76.5281C66.8158 72.54 67.1051 68.4891 67.1177 68.3255V68.2752V68.2249C67.1806 48.5991 88.2658 47.0768 94.7322 47.0768M94.7197 45.7936C88.5803 45.7936 65.91 47.2152 65.8471 68.1997C65.8471 68.1997 64.2745 85.322 95.9274 85.4855C95.9274 85.4855 95.9274 85.4855 95.94 85.4855C95.9651 85.4855 95.9903 85.4855 96.0155 85.4855C96.0406 85.4855 96.0784 85.4855 96.1035 85.4855C96.1035 85.4855 96.1664 85.4855 96.1916 85.4855C127.769 85.4855 126.297 68.3884 126.297 68.3884C126.36 47.1145 103.086 45.7936 97.3239 45.7936C96.72 45.7936 96.3048 45.8062 96.1413 45.8187C95.9526 45.8187 95.4493 45.7936 94.7071 45.7936H94.7197Z" fill="#2942AA"/>
<path d="M74.6787 71.0807L73.0935 73.5591" stroke="#EFA0B5" stroke-width="1.3" stroke-miterlimit="10" stroke-linecap="round"/>
<path d="M77.6478 70.9674L76.0752 73.4332" stroke="#EFA0B5" stroke-width="1.3" stroke-miterlimit="10" stroke-linecap="round"/>
<path d="M81.0697 70.7284L79.4971 73.1942" stroke="#EFA0B5" stroke-width="1.3" stroke-miterlimit="10" stroke-linecap="round"/>
<path d="M113.175 71.0178L111.603 73.4962" stroke="#EFA0B5" stroke-width="1.3" stroke-miterlimit="10" stroke-linecap="round"/>
<path d="M116.157 70.9045L114.584 73.3703" stroke="#EFA0B5" stroke-width="1.3" stroke-miterlimit="10" stroke-linecap="round"/>
<path d="M119.579 70.6655L118.006 73.1439" stroke="#EFA0B5" stroke-width="1.3" stroke-miterlimit="10" stroke-linecap="round"/>
<path d="M84.5432 70.5757C86.2447 70.5219 87.5498 68.1308 87.4582 65.2348C87.3667 62.3389 85.9133 60.0349 84.2118 60.0887C82.5104 60.1424 81.2053 62.5336 81.2968 65.4295C81.3883 68.3255 82.8418 70.6295 84.5432 70.5757Z" fill="black"/>
<path d="M107.366 70.572C109.067 70.5183 110.372 68.1271 110.281 65.2312C110.189 62.3353 108.736 60.0313 107.034 60.085C105.333 60.1388 104.028 62.53 104.119 65.4259C104.211 68.3218 105.664 70.6258 107.366 70.572Z" fill="black"/>
<path d="M134.399 78.0378C134.739 77.8491 141.859 73.0181 147.068 69.4955C150.024 67.4952 150.678 63.4316 148.515 60.5884C146.275 57.6445 141.973 57.3049 139.293 59.8462L128.625 69.9862" fill="#4252E2"/>
<path d="M134.399 78.0378C134.739 77.8491 141.859 73.0181 147.068 69.4955C150.024 67.4952 150.678 63.4316 148.515 60.5884C146.275 57.6445 141.973 57.3049 139.293 59.8462L128.625 69.9862" stroke="black" stroke-width="1.3" stroke-miterlimit="10"/>
<path d="M89.3913 69.4663L102.41 69.6981C102.863 69.7062 103.234 70.0903 103.226 70.5431L103.221 70.7947C103.152 74.6563 99.9648 77.7201 96.1157 77.6515L95.4113 77.639C91.5497 77.5702 88.4859 74.3826 88.5545 70.5335L88.5589 70.282C88.567 69.8291 88.9511 69.4585 89.4039 69.4666L89.3913 69.4663Z" fill="black"/>
<path d="M101.375 73.8736C100.117 75.6097 98.1417 76.7042 95.9275 76.6665C93.5372 76.6287 91.4614 75.2574 90.304 73.2194L101.375 73.8736Z" fill="#EFA0B5"/>
<path d="M124.246 34.5465C115.553 23.6013 100.519 18.1791 85.5357 21.9532C69.6841 25.9413 58.6383 39.0126 57.0279 53.7823C56.4492 53.9961 56.1347 54.122 56.097 54.1345C55.317 54.4365 54.927 55.3171 55.2289 56.0971C55.5057 56.8142 56.2731 57.2042 57.0154 57.0281C57.0783 57.0155 57.1412 57.0029 57.1915 56.9778C66.627 51.0649 98.5063 38.0062 124.85 37.5407C125.693 37.5281 126.272 36.6726 126.159 35.8423C126.058 35.012 125.291 34.4207 124.46 34.5339C124.292 34.5465 124.283 34.5465 124.246 34.5465Z" fill="#F2C873" stroke="black" stroke-width="1.3" stroke-miterlimit="10"/>
<path d="M118.837 30.2942C88.8947 33.8671 67.5831 43.5416 59.1163 47.97C58.8143 49.0771 58.5627 50.1968 58.374 51.329C64.9663 47.6806 88.0014 36.2952 121.403 32.6845C120.636 31.8542 119.68 31.0364 118.837 30.2942Z" fill="white"/>
<path d="M67.0799 75.6726C66.8282 75.3581 60.9657 69.0803 56.6631 64.4884C54.2224 61.8842 50.1086 61.859 47.6428 64.4381C45.0889 67.1052 45.416 71.4077 48.3473 73.6597L60.0221 82.6297" fill="#4252E2"/>
<path d="M67.0799 75.6726C66.8282 75.3581 60.9657 69.0803 56.6631 64.4884C54.2224 61.8842 50.1086 61.859 47.6428 64.4381C45.0889 67.1052 45.416 71.4077 48.3473 73.6597L60.0221 82.6297" stroke="black" stroke-width="1.3" stroke-miterlimit="10"/>
<path d="M68.1495 78.0377C66.8159 83.5858 66.1995 87.4858 66.275 91.109C67.8979 90.2913 69.6466 89.8006 71.2695 88.9829C71.5588 88.8319 71.8734 88.6935 72.2005 88.7564C72.4772 88.8193 72.6785 89.0206 72.8672 89.2345C73.9869 90.4297 75.0311 91.7129 75.9746 93.059C76.8427 88.5803 79.0569 79.95 79.0192 80.0884L73.4585 78.6542L68.1621 78.0503L68.1495 78.0377Z" fill="#FEC729"/>
<path d="M92.7068 80.6922C92.8326 86.3913 93.2352 90.3164 94.229 93.8139C95.5878 92.6187 97.1603 91.6751 98.519 90.48C98.7581 90.2661 99.0349 90.0397 99.3619 90.0271C99.6387 90.0271 99.8903 90.1655 100.129 90.3164C101.526 91.1845 102.847 92.1658 104.105 93.2226C103.803 88.681 103.727 79.7613 103.74 79.8997L97.802 80.0884L92.7194 80.6922H92.7068Z" fill="#FEC729"/>
<path d="M91.1971 80.7678C90.8322 86.2781 90.4297 89.5491 89.5364 93.8642C88.1903 92.6439 85.171 90.1403 84.8564 90.1278C84.5797 90.1152 80.9439 92.1155 79.6858 93.1597C80.038 88.6181 80.2016 79.6984 80.189 79.8368L85.5861 79.9626L91.1971 80.7426V80.7678Z" fill="#FEC729"/>
<path d="M139.645 70.7284C142.061 75.8865 143.306 79.3965 143.96 82.9694C142.212 82.4913 140.387 82.3529 138.639 81.8874C138.324 81.7994 137.985 81.7239 137.683 81.8497C137.431 81.9629 137.267 82.2145 137.116 82.441C136.261 83.8374 135.494 85.3094 134.852 86.8065C133.103 82.6045 129.392 74.8297 129.455 74.9681L134.185 72.7413L139.633 70.7284H139.645Z" fill="#FEC729"/>
<path d="M128.071 75.4209C129.43 80.9564 129.971 84.6299 129.92 88.2532C128.297 87.448 126.536 86.9574 124.913 86.1396C124.624 86.0012 124.297 85.8503 123.982 85.9132C123.718 85.9761 123.504 86.1899 123.316 86.3912C122.196 87.599 121.164 88.8822 120.233 90.2283C119.353 85.7622 117.101 77.1319 117.138 77.2703L122.473 76.1128L128.071 75.4083V75.4209Z" fill="#FEC729"/>
<path d="M55.7449 75.1316C54.2604 80.6293 53.6188 84.3784 53.5811 88.0142C55.2291 87.2468 56.9904 86.7938 58.6385 86.0264C58.9278 85.888 59.2549 85.7497 59.5694 85.8251C59.8336 85.888 60.0349 86.1145 60.2236 86.3158C61.3182 87.5487 62.312 88.8571 63.2178 90.2284C64.2117 85.7874 66.6649 77.2074 66.6272 77.3458L60.9282 75.8109L55.7449 75.1316Z" fill="#FEC729"/>
<path d="M105.3 79.8368C105.979 85.3094 106.495 88.1652 107.627 92.43C108.898 91.1342 111.766 88.4671 112.094 88.4294C112.37 88.4042 116.107 90.1907 117.428 91.1594C116.811 86.6429 116.207 78.0629 116.22 78.2139L110.521 78.7423L105.3 79.8368Z" fill="#FEC729"/>
<path d="M57.783 83.6487C57.4182 83.4097 57.2169 82.9191 57.1414 82.7303C56.4494 81.032 57.1665 78.7674 58.1856 77.4842C58.324 77.3081 58.5756 77.2829 58.7517 77.4213C58.9278 77.5597 58.953 77.8113 58.8146 77.9874C57.9214 79.0945 57.3301 81.0571 57.8836 82.4284C58.0975 82.9442 58.2485 82.9945 58.2485 82.9945C58.2485 82.9945 58.412 82.9694 58.7391 82.4536C58.9782 82.0636 59.192 81.5729 59.3682 81.1829C59.4185 81.0571 59.4814 80.9313 59.5191 80.8307C59.5443 80.7678 59.582 80.6923 59.6198 80.6294C59.7204 80.4281 59.972 80.3652 60.1607 80.4658C60.3494 80.5665 60.4249 80.8181 60.3243 81.0068C60.2991 81.0445 60.274 81.0949 60.2488 81.1578C59.972 81.7868 59.9594 82.5542 60.2488 83.1833C60.362 83.4474 60.5382 83.6236 60.6765 83.611C60.7772 83.611 60.9156 83.4978 61.0791 83.2965C62.0982 82.051 62.463 80.3149 62.0353 78.7549C61.9724 78.541 62.0982 78.3145 62.312 78.2642C62.5259 78.2013 62.7524 78.3271 62.8027 78.541C63.2933 80.34 62.8656 82.3529 61.6956 83.7997C61.4943 84.0513 61.1672 84.391 60.7017 84.4036C60.2111 84.4287 59.7707 84.0891 59.5065 83.4978C59.4311 83.3342 59.3682 83.1581 59.3304 82.982C59.0159 83.4726 58.6636 83.7745 58.2359 83.7745C58.0598 83.7745 57.9088 83.7116 57.783 83.6236V83.6487Z" fill="#1A1E22"/>
<path d="M84.3155 87.901C84.1645 87.8633 83.9884 87.7878 83.8626 87.6368C83.6235 87.36 83.6361 87.0078 83.6487 86.8191L83.85 82.1642C83.85 81.9378 84.0513 81.7742 84.2651 81.7868C84.4916 81.7868 84.6551 81.9881 84.6426 82.202L84.4413 86.8568C84.4413 86.9952 84.4413 87.0833 84.4539 87.1084C84.4539 87.1084 84.5168 87.1336 84.6803 87.1587C85.6113 87.2594 86.5422 87.2342 87.4732 87.1084C87.6871 87.0833 87.901 87.2342 87.9261 87.4481C87.9513 87.662 87.8003 87.8758 87.5864 87.901C86.6051 88.0394 85.5987 88.0646 84.6048 87.9639C84.5293 87.9639 84.4287 87.9513 84.3029 87.9136L84.3155 87.901Z" fill="#1A1E22"/>
<path d="M98.733 87.9638C98.0285 87.9638 97.3366 87.6997 96.8082 87.1964C95.8143 86.2529 95.5627 84.7558 96.1917 83.4977C96.783 82.3026 97.9907 81.6484 99.2488 81.8497C99.4627 81.8874 99.6136 82.0887 99.5885 82.3025C99.5507 82.5164 99.3495 82.6674 99.1356 82.6422C98.0285 82.4661 97.2611 83.158 96.9214 83.85C96.5566 84.5797 96.4559 85.7496 97.3743 86.6177C98.0914 87.2971 99.2614 87.3348 100.041 86.7058C100.218 86.5674 100.469 86.5926 100.608 86.7687C100.746 86.9448 100.721 87.1964 100.545 87.3348C100.016 87.7625 99.3746 87.9764 98.7456 87.9764L98.733 87.9638Z" fill="#1A1E22"/>
<path d="M112.207 87.0832C111.666 87.1964 111.062 87.1209 110.546 86.8567C109.653 86.3912 109.011 85.3974 108.823 84.2022C108.684 83.3467 108.848 82.139 109.527 81.3338C109.955 80.8306 110.521 80.5664 111.163 80.5664C113.037 80.5664 113.83 82.6674 113.943 84.479C113.968 84.9067 113.968 85.5358 113.666 86.0893C113.377 86.6177 112.823 86.97 112.207 87.0832ZM110.898 81.3841C110.609 81.447 110.345 81.598 110.144 81.8496C109.628 82.4535 109.515 83.4222 109.615 84.0764C109.766 85.02 110.257 85.8 110.924 86.1396C111.716 86.5548 112.66 86.2403 112.974 85.6867C113.125 85.41 113.188 85.0451 113.15 84.5167C113.125 84.1896 112.899 81.3464 111.175 81.359C111.075 81.359 110.986 81.359 110.898 81.3841Z" fill="#1A1E22"/>
<path d="M127.492 84.2022C127.291 84.2777 127.065 84.177 126.989 83.9758L126.901 83.7619C126.901 83.7619 126.876 83.699 126.876 83.6738L125.341 79.3083C125.303 79.2203 125.278 79.1448 125.24 79.107C125.24 79.1322 125.228 79.1825 125.215 79.2329C125.203 79.3083 125.19 79.497 125.165 79.6983C125.014 81.447 124.825 82.529 124.272 82.8435C124.07 82.9567 123.831 82.9693 123.605 82.8561C123.215 82.6674 123.014 82.0761 122.699 81.0319C122.548 80.5287 122.271 79.5977 122.058 79.409C121.957 79.4467 121.844 79.5474 121.781 79.6983C121.693 79.8996 121.667 80.1638 121.642 80.4029C121.504 81.8874 121.592 83.1454 121.718 84.7558C121.73 84.9822 121.567 85.1709 121.353 85.1835C121.127 85.1961 120.938 85.0325 120.925 84.8187C120.799 83.158 120.711 81.8748 120.85 80.3274C120.875 80.0254 120.913 79.6858 121.064 79.3587C121.252 78.9435 121.617 78.6541 122.007 78.6038C122.787 78.5032 123.102 79.5725 123.467 80.8054C123.592 81.2332 123.781 81.8496 123.919 82.0761C124.058 81.8748 124.221 81.2583 124.36 79.6229C124.385 79.3712 124.397 79.1951 124.41 79.0819C124.435 78.9183 124.523 78.4025 124.976 78.2516C125.429 78.1006 125.857 78.4151 126.083 79.0316L127.731 83.6864C127.807 83.8877 127.694 84.1141 127.492 84.2022Z" fill="#1A1E22"/>
<path d="M71.1185 86.4416C70.5272 86.127 70.1246 85.6238 70.0239 85.0451C69.961 84.6425 70.0365 84.2525 70.1246 83.9128L70.5523 82.0383C70.6152 81.7741 70.6907 81.447 70.892 81.1703C71.1814 80.7677 71.7098 80.5161 72.301 80.5286C72.7665 80.5286 73.5843 80.7928 74.0246 80.9438C74.2385 81.0193 74.3517 81.2457 74.2762 81.4596C74.2007 81.6735 73.9743 81.7867 73.7604 81.7112C73.1062 81.4848 72.5401 81.3464 72.2885 81.3464C72.0368 81.3464 71.6972 81.4219 71.5336 81.6609C71.433 81.8119 71.3827 82.0257 71.3323 82.2396L70.9046 84.1141C70.8417 84.3909 70.7788 84.6803 70.8165 84.9319C70.892 85.4225 71.3701 85.737 71.7601 85.8628C72.2759 86.039 72.8546 86.0138 73.4207 85.9886C73.6472 85.9886 73.8233 86.1522 73.8359 86.3787C73.8359 86.6051 73.6723 86.7812 73.4459 86.7938C72.842 86.819 72.1501 86.8441 71.4959 86.6177C71.3575 86.5674 71.2317 86.517 71.1059 86.4541L71.1185 86.4416Z" fill="#1A1E22"/>
<path d="M70.7913 83.6864C70.6403 83.5984 70.5397 83.4223 70.59 83.2461C70.6403 83.0323 70.8542 82.8939 71.0681 82.9442L73.2948 83.46C73.5087 83.5103 73.6471 83.7242 73.5968 83.9381C73.5464 84.1519 73.3326 84.2903 73.1187 84.24L70.8919 83.7242C70.8919 83.7242 70.829 83.699 70.7913 83.6864Z" fill="#1A1E22"/>
<path d="M139.268 79.5223C138.777 79.8871 138.211 80.3023 137.544 80.4784C136.739 80.6923 135.921 80.4784 135.443 79.95C135.167 79.6355 135.028 79.2581 134.902 78.9184L134.223 77.0313C134.122 76.7671 134.009 76.44 134.022 76.0878C134.047 75.572 134.349 75.0687 134.839 74.7291C135.229 74.4649 136.047 74.2258 136.513 74.1126C136.727 74.0623 136.94 74.1881 137.003 74.402C137.054 74.6158 136.928 74.8297 136.714 74.8926C136.047 75.0687 135.494 75.27 135.292 75.4084C135.078 75.5468 134.839 75.811 134.827 76.1255C134.827 76.3268 134.902 76.5407 134.978 76.7671L135.657 78.6542C135.758 78.9436 135.871 79.2329 136.047 79.4342C136.387 79.8116 136.953 79.8242 137.343 79.7236C137.871 79.5852 138.337 79.2329 138.802 78.8933C138.978 78.7675 139.23 78.8052 139.368 78.9813C139.494 79.1575 139.457 79.4091 139.28 79.5349L139.268 79.5223Z" fill="#1A1E22"/>
<path d="M137.67 77.4339C137.67 77.4339 137.607 77.4717 137.569 77.4842L135.431 78.302C135.229 78.3775 134.99 78.2768 134.915 78.0755C134.839 77.8742 134.94 77.6352 135.141 77.5597L137.28 76.742C137.481 76.6665 137.72 76.7671 137.796 76.9684C137.859 77.1446 137.796 77.3333 137.658 77.4339H137.67Z" fill="#1A1E22"/>
<path d="M145.772 65.7339C145.357 65.8974 144.879 66.0987 144.564 66.5768C144.35 66.9039 144.275 67.231 144.212 67.5329C144.162 67.7719 144.111 67.9732 144.011 68.1242C143.809 68.4135 143.394 68.6526 143.004 68.8413C142.501 69.0929 141.96 69.3068 141.407 69.5332C137.544 71.1058 132.348 73.1313 126.448 74.8926C120.17 76.7671 114.056 78.0629 107.791 78.8555C100.368 79.7864 92.6439 79.9877 84.8313 79.4468C75.9117 78.8303 66.5391 77.2326 56.9652 74.7039C56.3236 74.5277 55.5813 74.2006 54.8642 73.8735C54.4742 73.6974 54.0968 73.5213 53.7446 73.3829C52.6878 72.9552 52.0588 72.4393 51.9959 71.9235C51.9581 71.6216 52.0839 71.2819 52.2223 70.9171L52.3859 70.4768H51.0523L50.9768 70.6906C50.8259 71.1184 50.6749 71.5713 50.7378 72.0745C50.8636 73.0181 51.7317 73.8358 53.2288 74.4271C53.5559 74.5529 53.9207 74.7164 54.3107 74.9052C55.0655 75.2448 55.8455 75.5971 56.6004 75.7984C66.2623 78.3522 75.723 79.9626 84.7307 80.579C87.6117 80.7803 90.48 80.881 93.3359 80.881C98.2926 80.881 103.199 80.579 107.967 79.9752C114.32 79.17 120.497 77.8616 126.851 75.9745C132.827 74.1881 138.047 72.15 141.935 70.5648C142.463 70.351 143.055 70.1119 143.621 69.8352C144.149 69.571 144.728 69.2439 145.08 68.7281C145.306 68.401 145.382 68.0487 145.445 67.7593C145.495 67.5329 145.546 67.3316 145.646 67.1681C145.709 67.0674 145.822 66.9919 146.024 66.8913L146.212 66.8032V65.5703L145.772 65.7339Z" fill="#040000"/>
<path d="M53.8199 66.149L55.6818 68.2249C56.8015 69.4829 56.7512 71.4832 55.556 72.6658L54.0086 74.2007C52.6876 75.509 50.5615 75.4839 49.2908 74.1378L47.1018 72.301" fill="#4252E2"/>
<path d="M53.8199 66.149L55.6818 68.2249C56.8015 69.4829 56.7512 71.4832 55.556 72.6658L54.0086 74.2007C52.6876 75.509 50.5615 75.4839 49.2908 74.1378L47.1018 72.301" stroke="black" stroke-width="1.3" stroke-miterlimit="10"/>
<path d="M142.098 61.5194L140.236 63.5952C139.117 64.8533 139.167 66.8536 140.362 68.0362L141.91 69.571C143.231 70.8794 145.357 70.8542 146.627 69.5081L148.816 67.6713" fill="#4252E2"/>
<path d="M142.098 61.5194L140.236 63.5952C139.117 64.8533 139.167 66.8536 140.362 68.0362L141.91 69.571C143.231 70.8794 145.357 70.8542 146.627 69.5081L148.816 67.6713" stroke="black" stroke-width="1.3" stroke-miterlimit="10"/>
</g>
<rect x="6.29028" y="83.0322" width="3.77419" height="3.77419" fill="#E12424"/>
<rect x="181.161" y="83.0322" width="3.77419" height="3.77419" fill="#E8C221"/>
<rect x="150.968" y="26.4194" width="3.77419" height="3.77419" fill="#BA28ED"/>
<rect y="20.129" width="3.77419" height="3.77419" fill="#28D6ED"/>
<rect x="182.419" y="44.0322" width="3.77419" height="3.77419" fill="#ED289E"/>
<rect x="32.7097" y="39" width="3.77419" height="3.77419" fill="#2436E1"/>
<rect x="93.0967" width="3.77419" height="3.77419" fill="#2B9843"/>
<defs>
<clipPath id="clip0_109_13226">
<rect width="75.4839" height="10.0645" fill="white" transform="translate(59.1292 106.936)"/>
</clipPath>
<clipPath id="clip1_109_13226">
<rect width="105.124" height="83.7745" fill="white" transform="translate(45.2903 20.129)"/>
</clipPath>
</defs>
</svg>
