<svg width="149" height="105" viewBox="0 0 149 105" fill="none" xmlns="http://www.w3.org/2000/svg">
<mask id="mask0_109_13516" style="mask-type:luminance" maskUnits="userSpaceOnUse" x="0" y="0" width="149" height="105">
<path d="M149 0H0V105H149V0Z" fill="white"/>
</mask>
<g mask="url(#mask0_109_13516)">
<path d="M74.5 85.51C115.64 85.51 149 81.16 149 75.8C149 70.44 115.64 66.09 74.5 66.09C33.36 66.09 0 70.43 0 75.8C0 81.17 33.35 85.51 74.5 85.51Z" fill="#EAEDF3"/>
<path d="M109.8 105C123.02 105 133.74 103.23 133.74 101.06C133.74 98.89 123.02 97.12 109.8 97.12C96.58 97.12 85.86 98.89 85.86 101.06C85.86 103.23 96.58 105 109.8 105Z" fill="#EAEDF3"/>
<path d="M101.86 37.35H132.75V66.11C132.75 70.53 129.17 74.13 124.76 74.13H101.87V37.36H101.86V37.35Z" fill="white" stroke="black" stroke-width="1.2" stroke-miterlimit="10"/>
<path d="M16 37.35H46.89V74.12H24C19.6 74.12 16.01 70.53 16.01 66.1V37.34H16V37.35Z" fill="white" stroke="black" stroke-width="1.2" stroke-miterlimit="10"/>
<path d="M21.36 4.86002L9.78003 37.35H139.22L127.48 4.84002C126.55 2.28002 124.13 0.580017 121.43 0.580017H27.43C24.71 0.580017 22.28 2.29002 21.37 4.86002H21.36Z" fill="#4252E2" stroke="black" stroke-width="1.2" stroke-miterlimit="10"/>
<path d="M96.73 81.22H52.02C49.19 81.22 46.88 78.92 46.88 76.07V37.36L71.54 15.46C72.86 14.28 74.84 14.26 76.19 15.41L101.85 37.36V76.07C101.85 78.91 99.56 81.22 96.72 81.22H96.73Z" fill="white" stroke="black" stroke-width="1.2" stroke-miterlimit="10"/>
<path d="M34.79 37.35L70.14 3.79001C72.04 1.99001 75 1.99001 76.91 3.77001L113.7 37.35H101.86L75.79 15.5C74.38 14.29 72.3 14.34 70.94 15.6L46.89 37.34H34.78L34.79 37.35Z" fill="white" stroke="black" stroke-width="1.2" stroke-miterlimit="10"/>
<path d="M35.3201 48.85H27.5701C26.3201 48.85 25.3101 49.87 25.3101 51.12V58.9C25.3101 60.15 26.3201 61.17 27.5701 61.17H35.3201C36.5701 61.17 37.5801 60.15 37.5801 58.9V51.12C37.5801 49.87 36.5701 48.85 35.3201 48.85Z" fill="white" stroke="black" stroke-width="1.2" stroke-miterlimit="10"/>
<path d="M121.13 48.85H113.47C112.2 48.85 111.16 49.89 111.16 51.16V58.85C111.16 60.13 112.19 61.16 113.47 61.16H121.13C122.4 61.16 123.44 60.12 123.44 58.85V51.16C123.44 49.88 122.41 48.85 121.13 48.85Z" fill="white" stroke="black" stroke-width="1.2" stroke-miterlimit="10"/>
<path d="M87.82 44.72C87.82 44.72 82.62 41.17 77.46 47.12L74.52 50.48L71.39 47.08C70.07 45.65 68.4 44.57 66.51 44.14C63.28 43.4 61.21 44.73 61.21 44.73C58.58 46.08 56.89 49.13 56.89 52.49C56.89 55.35 58.13 58.03 60.17 59.59L74.53 70.55L88.89 59.59C90.94 58.03 92.17 55.36 92.17 52.49C92.17 49.13 90.47 46.08 87.85 44.73H87.83L87.82 44.72Z" fill="#4252E2" stroke="black" stroke-width="1.2" stroke-miterlimit="10"/>
<path d="M86.14 74.79H92.54C94.26 74.79 95.64 73.39 95.64 71.68V66.51" stroke="black" stroke-width="1.2" stroke-miterlimit="10"/>
<path d="M52.6 66.52V71.69C52.6 73.41 53.99 74.8 55.7 74.8H61.68" stroke="black" stroke-width="1.2" stroke-miterlimit="10"/>
<path d="M73.72 40.64C78.34 40.64 82.08 36.88 82.08 32.25C82.08 27.62 78.34 23.86 73.72 23.86C69.1 23.86 65.36 27.62 65.36 32.25C65.36 36.88 69.1 40.64 73.72 40.64Z" fill="white" stroke="black" stroke-width="1.2" stroke-miterlimit="10"/>
<path d="M73.36 27.82V32.25L77.66 31.19" fill="white"/>
<path d="M73.36 27.82V32.25L77.66 31.19" stroke="black" stroke-width="1.2" stroke-miterlimit="10"/>
<path d="M131.44 75.65C129.32 51.59 109.75 53.08 106.68 53.47C106.45 53.49 106.23 53.52 106.01 53.53C102.92 53.69 83.39 55.67 85.52 79.73C85.52 79.73 85.98 98.25 110.05 96.19H110.19C134.23 93.98 131.46 75.67 131.46 75.67H131.45L131.44 75.65Z" fill="#4252E2" stroke="black" stroke-miterlimit="10"/>
<path d="M105.29 85.62C91.45 85.62 91.24 77.85 91.24 77.51C90.94 74.02 91.78 71.12 93.77 68.86C98.14 63.87 106.71 63.46 107.07 63.44C107.34 63.41 108.51 63.25 110.14 63.25C115.38 63.25 124.29 64.7 125.15 74.45C125.15 74.52 125.56 77.02 123.59 79.6C121.17 82.78 116.15 84.79 109.09 85.43C107.7 85.55 106.46 85.6 105.3 85.6L105.29 85.62Z" fill="white"/>
<path d="M110.14 63.72C115.22 63.72 123.86 65.12 124.69 74.5V74.58C124.7 74.67 125.05 76.94 123.18 79.35C120.83 82.4 115.94 84.35 108.98 84.98H108.92C107.64 85.08 106.42 85.14 105.27 85.14C91.94 85.14 91.68 77.81 91.68 77.5V77.42C91.38 74.1 92.2 71.32 94.09 69.15C98.32 64.31 106.71 63.9 107.06 63.89H107.15C107.36 63.87 108.51 63.72 110.12 63.72M110.14 62.79C108.48 62.79 107.3 62.94 107.05 62.98C106.01 63.03 89.58 63.93 90.77 77.52C90.77 77.52 90.77 86.09 105.28 86.09C106.43 86.09 107.67 86.03 109.01 85.92H109.11C127.36 84.26 125.61 74.44 125.61 74.44C124.71 64.19 115.2 62.81 110.14 62.81V62.79Z" fill="#2942AA"/>
<path d="M111.47 77.79C111.56 78.91 110.32 79.92 108.69 80.07C107.06 80.21 105.65 79.43 105.55 78.31" fill="white"/>
<path d="M111.47 77.79C111.56 78.91 110.32 79.92 108.69 80.07C107.06 80.21 105.65 79.43 105.55 78.31" stroke="black" stroke-miterlimit="10" stroke-linecap="round"/>
<path d="M96.47 79.92L95.65 81.4" stroke="#EFA0B5" stroke-width="1.2" stroke-miterlimit="10" stroke-linecap="round"/>
<path d="M98.18 79.74L97.36 81.23" stroke="#EFA0B5" stroke-width="1.2" stroke-miterlimit="10" stroke-linecap="round"/>
<path d="M100.15 79.5L99.33 80.99" stroke="#EFA0B5" stroke-width="1.2" stroke-miterlimit="10" stroke-linecap="round"/>
<path d="M117.16 78.08L116.33 79.57" stroke="#EFA0B5" stroke-width="1.2" stroke-miterlimit="10" stroke-linecap="round"/>
<path d="M118.87 77.92L118.04 79.4" stroke="#EFA0B5" stroke-width="1.2" stroke-miterlimit="10" stroke-linecap="round"/>
<path d="M120.83 77.66L120.01 79.15" stroke="#EFA0B5" stroke-width="1.2" stroke-miterlimit="10" stroke-linecap="round"/>
<path d="M100.6 78.77C101.58 78.68 102.26 77.25 102.11 75.58C101.96 73.9 101.05 72.61 100.06 72.7C99.08 72.79 98.4 74.22 98.55 75.89C98.7 77.57 99.61 78.86 100.6 78.77Z" fill="black"/>
<path d="M113.04 74.26C113.04 73.15 113.93 72.26 115.03 72.26C116.13 72.26 117.02 73.16 117.02 74.26" stroke="black" stroke-miterlimit="10" stroke-linecap="round"/>
<path d="M87.25 79.09C87.06 79.22 83.26 82.44 80.49 84.8C78.91 86.14 78.79 88.52 80.2 90.03C81.67 91.59 84.16 91.52 85.54 89.89L91.06 83.39" fill="#4252E2"/>
<path d="M87.25 79.09C87.06 79.22 83.26 82.44 80.49 84.8C78.91 86.14 78.79 88.52 80.2 90.03C81.67 91.59 84.16 91.52 85.54 89.89L91.06 83.39" stroke="black" stroke-miterlimit="10"/>
<path d="M87.25 79.09C87.06 79.22 83.26 82.44 80.49 84.8C78.91 86.14 78.79 88.52 80.2 90.03C81.67 91.59 84.16 91.52 85.54 89.89L91.06 83.39" stroke="black" stroke-miterlimit="10"/>
<path d="M130.99 77.74C131.2 77.64 135.49 75.11 138.62 73.26C140.39 72.21 140.94 69.87 139.79 68.15C138.61 66.36 136.14 66 134.49 67.37L127.95 72.84" fill="#4252E2"/>
<path d="M130.99 77.74C131.2 77.64 135.49 75.11 138.62 73.26C140.39 72.21 140.94 69.87 139.79 68.15C138.61 66.36 136.14 66 134.49 67.37L127.95 72.84" stroke="black" stroke-miterlimit="10"/>
<path d="M130.99 77.74C131.2 77.64 135.49 75.11 138.62 73.26C140.39 72.21 140.94 69.87 139.79 68.15C138.61 66.36 136.14 66 134.49 67.37L127.95 72.84" stroke="black" stroke-miterlimit="10"/>
<path d="M124.75 56.99C119.61 50.51 110.71 47.31 101.85 49.54C92.47 51.9 85.94 59.63 84.98 68.37C84.64 68.5 84.45 68.57 84.43 68.58C83.97 68.76 83.74 69.28 83.92 69.74C84.08 70.16 84.54 70.39 84.98 70.29C85.02 70.29 85.05 70.28 85.08 70.26C90.66 66.76 109.52 59.04 125.11 58.76C125.61 58.76 125.95 58.25 125.88 57.76C125.82 57.27 125.37 56.92 124.88 56.99C124.78 56.99 124.77 56.99 124.75 56.99Z" fill="#F2C873" stroke="black" stroke-miterlimit="10"/>
<path d="M121.55 54.47C103.84 56.58 91.23 62.31 86.22 64.93C86.04 65.58 85.89 66.25 85.78 66.92C89.68 64.76 103.31 58.03 123.07 55.89C122.62 55.4 122.05 54.91 121.55 54.48V54.47Z" fill="white"/>
</g>
</svg>
