<svg width="134" height="134" viewBox="0 0 134 134" fill="none" xmlns="http://www.w3.org/2000/svg">
<path d="M66.2335 126.415C82.4615 126.415 95.617 124.062 95.617 121.159C95.617 118.256 82.4615 115.903 66.2335 115.903C50.0055 115.903 36.8501 118.256 36.8501 121.159C36.8501 124.062 50.0055 126.415 66.2335 126.415Z" fill="#B1D5FF"/>
<mask id="path-2-inside-1_197_16328" fill="white">
<path fill-rule="evenodd" clip-rule="evenodd" d="M71.7279 33.6689C74.6908 33.6689 77.2221 31.821 78.2321 29.2147C79.0873 29.589 80.032 29.7967 81.0253 29.7967C84.8764 29.7967 87.9983 26.6747 87.9983 22.8236C87.9983 19.1006 85.0806 16.059 81.407 15.8608C80.4528 13.1469 77.8671 11.2015 74.827 11.2015C73.8148 11.2015 72.8529 11.4172 71.9849 11.8051C70.7205 10.0326 68.6473 8.87695 66.3042 8.87695C63.9612 8.87695 61.8881 10.0326 60.6237 11.8049C59.7557 11.417 58.7938 11.2013 57.7816 11.2013C54.7415 11.2013 52.1557 13.1469 51.2015 15.8608C47.528 16.0591 44.6104 19.1006 44.6104 22.8236C44.6104 26.6747 47.7323 29.7967 51.5834 29.7967C52.5767 29.7967 53.5214 29.589 54.3766 29.2147C55.3867 31.8209 57.918 33.6688 60.8809 33.6688C63.0714 33.6688 65.026 32.6588 66.3044 31.079C67.5827 32.6588 69.5373 33.6689 71.7279 33.6689Z"/>
</mask>
<path fill-rule="evenodd" clip-rule="evenodd" d="M71.7279 33.6689C74.6908 33.6689 77.2221 31.821 78.2321 29.2147C79.0873 29.589 80.032 29.7967 81.0253 29.7967C84.8764 29.7967 87.9983 26.6747 87.9983 22.8236C87.9983 19.1006 85.0806 16.059 81.407 15.8608C80.4528 13.1469 77.8671 11.2015 74.827 11.2015C73.8148 11.2015 72.8529 11.4172 71.9849 11.8051C70.7205 10.0326 68.6473 8.87695 66.3042 8.87695C63.9612 8.87695 61.8881 10.0326 60.6237 11.8049C59.7557 11.417 58.7938 11.2013 57.7816 11.2013C54.7415 11.2013 52.1557 13.1469 51.2015 15.8608C47.528 16.0591 44.6104 19.1006 44.6104 22.8236C44.6104 26.6747 47.7323 29.7967 51.5834 29.7967C52.5767 29.7967 53.5214 29.589 54.3766 29.2147C55.3867 31.8209 57.918 33.6688 60.8809 33.6688C63.0714 33.6688 65.026 32.6588 66.3044 31.079C67.5827 32.6588 69.5373 33.6689 71.7279 33.6689Z" fill="#ECEEF5"/>
<path d="M78.2321 29.2147L78.6331 28.2986L77.6769 27.8802L77.2997 28.8534L78.2321 29.2147ZM81.407 15.8608L80.4637 16.1925L80.6855 16.8233L81.3532 16.8593L81.407 15.8608ZM71.9849 11.8051L71.1708 12.3858L71.6459 13.0519L72.3929 12.7181L71.9849 11.8051ZM60.6237 11.8049L60.2157 12.7179L60.9627 13.0517L61.4378 12.3857L60.6237 11.8049ZM51.2015 15.8608L51.2554 16.8594L51.9231 16.8233L52.1449 16.1925L51.2015 15.8608ZM54.3766 29.2147L55.3091 28.8533L54.9319 27.8801L53.9757 28.2986L54.3766 29.2147ZM66.3044 31.079L67.0817 30.45L66.3044 29.4893L65.527 30.45L66.3044 31.079ZM77.2997 28.8534C76.4339 31.0875 74.2643 32.6689 71.7279 32.6689V34.6689C75.1173 34.6689 78.0103 32.5544 79.1645 29.5761L77.2997 28.8534ZM81.0253 28.7967C80.1726 28.7967 79.3642 28.6186 78.6331 28.2986L77.8312 30.1308C78.8104 30.5594 79.8914 30.7967 81.0253 30.7967V28.7967ZM86.9983 22.8236C86.9983 26.1224 84.3241 28.7967 81.0253 28.7967V30.7967C85.4287 30.7967 88.9983 27.227 88.9983 22.8236H86.9983ZM81.3532 16.8593C84.499 17.0291 86.9983 19.6348 86.9983 22.8236H88.9983C88.9983 18.5663 85.6622 15.0889 81.4609 14.8623L81.3532 16.8593ZM74.827 12.2015C77.4296 12.2015 79.6458 13.8665 80.4637 16.1925L82.3504 15.5291C81.2598 12.4274 78.3046 10.2015 74.827 10.2015V12.2015ZM72.3929 12.7181C73.1351 12.3864 73.9581 12.2015 74.827 12.2015V10.2015C73.6715 10.2015 72.5708 10.4479 71.5769 10.8921L72.3929 12.7181ZM66.3042 9.87695C68.3105 9.87695 70.086 10.8651 71.1708 12.3858L72.799 11.2243C71.355 9.20011 68.9842 7.87695 66.3042 7.87695V9.87695ZM61.4378 12.3857C62.5225 10.8651 64.298 9.87695 66.3042 9.87695V7.87695C63.6244 7.87695 61.2536 9.20003 59.8096 11.2242L61.4378 12.3857ZM57.7816 12.2013C58.6505 12.2013 59.4736 12.3862 60.2157 12.7179L61.0317 10.8919C60.0378 10.4478 58.9372 10.2013 57.7816 10.2013V12.2013ZM52.1449 16.1925C52.9628 13.8664 55.179 12.2013 57.7816 12.2013V10.2013C54.3039 10.2013 51.3487 12.4273 50.2582 15.5291L52.1449 16.1925ZM45.6104 22.8236C45.6104 19.6348 48.1096 17.0291 51.2554 16.8594L51.1476 14.8623C46.9464 15.089 43.6104 18.5664 43.6104 22.8236H45.6104ZM51.5834 28.7967C48.2846 28.7967 45.6104 26.1224 45.6104 22.8236H43.6104C43.6104 27.227 47.18 30.7967 51.5834 30.7967V28.7967ZM53.9757 28.2986C53.2445 28.6186 52.4361 28.7967 51.5834 28.7967V30.7967C52.7173 30.7967 53.7984 30.5594 54.7776 30.1308L53.9757 28.2986ZM60.8809 32.6688C58.3444 32.6688 56.1749 31.0875 55.3091 28.8533L53.4442 29.5761C54.5984 32.5543 57.4915 34.6688 60.8809 34.6688V32.6688ZM65.527 30.45C64.4303 31.8052 62.7568 32.6688 60.8809 32.6688V34.6688C63.386 34.6688 65.6217 33.5124 67.0817 31.7081L65.527 30.45ZM71.7279 32.6689C69.8519 32.6689 68.1784 31.8052 67.0817 30.45L65.527 31.708C66.9871 33.5124 69.2228 34.6689 71.7279 34.6689V32.6689Z" fill="black" mask="url(#path-2-inside-1_197_16328)"/>
<path d="M64.812 40.0977V41.9342" stroke="black" stroke-width="1.2" stroke-linecap="round" stroke-linejoin="round"/>
<path d="M47.939 32.751V34.5875" stroke="black" stroke-width="1.2" stroke-linecap="round" stroke-linejoin="round"/>
<path d="M58.958 36.4238V38.2604" stroke="black" stroke-width="1.2" stroke-linecap="round" stroke-linejoin="round"/>
<path d="M52.5303 38.2607V40.0973" stroke="black" stroke-width="1.2" stroke-linecap="round" stroke-linejoin="round"/>
<path d="M80.0781 34.5879V36.4244" stroke="black" stroke-width="1.2" stroke-linecap="round" stroke-linejoin="round"/>
<path d="M44.6104 41.0156V42.8522" stroke="black" stroke-width="1.2" stroke-linecap="round" stroke-linejoin="round"/>
<path d="M69.9775 36.4238V38.2604" stroke="black" stroke-width="1.2" stroke-linecap="round" stroke-linejoin="round"/>
<path d="M75.8315 40.0977V41.9342" stroke="black" stroke-width="1.2" stroke-linecap="round" stroke-linejoin="round"/>
<path d="M86.8506 37.3428V39.1793" stroke="black" stroke-width="1.2" stroke-linecap="round" stroke-linejoin="round"/>
<path d="M104.162 88.4757C103.598 49.0912 71.6875 49.0988 66.5937 49.3591C61.4999 49.1065 29.5893 49.0912 29.0259 88.4757C29.0259 88.4757 26.7036 118.636 66.0607 119.325H66.2891C66.3957 119.325 66.4947 119.325 66.5937 119.325C66.7003 119.325 66.7993 119.325 66.8983 119.325H67.1267C106.484 118.636 104.162 88.4757 104.162 88.4757Z" fill="#4252E2" stroke="#111111" stroke-width="1.2" stroke-linejoin="round"/>
<path d="M103.53 55.3828C95.1714 42.7843 81.1163 50.5766 78.3612 55.1273L86.2129 60.9604C88.8072 54.7731 96.4157 54.8071 99.472 58.3622L103.53 55.3828Z" fill="#4252E2"/>
<path d="M78.3612 55.1273C81.1163 50.5766 95.1714 42.7843 103.53 55.3828L99.472 58.3622C96.4157 54.8071 88.8072 54.7731 86.2129 60.9604" stroke="#111111" stroke-width="1.2" stroke-miterlimit="10"/>
<path d="M102.153 61.5722C104.975 62.0047 107.616 60.055 108.051 57.2175C108.485 54.3801 106.55 51.7292 103.727 51.2968C100.905 50.8643 98.2647 52.8139 97.8299 55.6514C97.3951 58.4889 99.3306 61.1397 102.153 61.5722Z" fill="#4252E2" stroke="#111111" stroke-width="1.2" stroke-miterlimit="10"/>
<path d="M104.73 56.8177C105.486 56.9336 106.194 56.411 106.311 55.6504C106.427 54.8899 105.909 54.1793 105.152 54.0634C104.395 53.9475 103.688 54.4701 103.571 55.2306C103.455 55.9912 103.973 56.7017 104.73 56.8177Z" fill="white"/>
<path d="M94.4244 84.9086C94.1579 65.7713 73.9349 64.2939 67.7523 64.2939C67.0899 64.2939 66.595 64.3093 66.2752 64.3246C65.9554 64.3093 65.4605 64.2939 64.7981 64.2939C58.6154 64.2939 38.3925 65.7713 38.126 84.9086C38.126 84.9546 37.73 89.1877 41.3619 93.3061C45.801 98.3353 54.0089 100.992 65.7727 101.214H66.2752H66.7625H66.7777C78.5415 100.992 86.7494 98.3353 91.1884 93.3061C94.8203 89.1877 94.432 84.9469 94.4244 84.9086Z" fill="white" stroke="#2942AA" stroke-width="1.2" stroke-miterlimit="10"/>
<ellipse cx="54.842" cy="82.0879" rx="5.09251" ry="6.94433" fill="#111111"/>
<ellipse cx="53.9159" cy="79.7738" rx="2.31478" ry="2.77773" fill="white"/>
<circle cx="55.3048" cy="86.256" r="0.92591" fill="white"/>
<circle cx="57.2362" cy="83.4857" r="1.14783" fill="white"/>
<ellipse cx="78.0028" cy="82.0894" rx="5.09068" ry="6.94588" fill="#111111"/>
<ellipse cx="77.0771" cy="79.7744" rx="2.31394" ry="2.77835" fill="white"/>
<ellipse cx="78.4656" cy="86.2581" rx="0.925577" ry="0.926117" fill="white"/>
<circle cx="80.1927" cy="83.4857" r="1.14783" fill="white"/>
<path d="M60.1558 91.667C62.1188 89.1822 64.2053 87.8439 66.3682 87.8439C68.5311 87.8439 70.6176 89.1822 72.5807 91.667" stroke="#111111" stroke-width="1.2"/>
<ellipse cx="49.1645" cy="87.807" rx="3.34516" ry="1.91152" fill="#B1D5FF"/>
<ellipse cx="83.5717" cy="87.807" rx="3.34516" ry="1.91152" fill="#B1D5FF"/>
<path d="M34.5101 92.0054L45.6115 83.5739C48.3966 81.4606 52.3963 82.223 54.1766 85.2308C55.899 88.1256 54.8352 91.8868 51.8514 93.4611C46.586 96.2461 39.3931 100.04 39.0461 100.184" fill="#4252E2"/>
<path d="M34.5101 92.0054L45.6115 83.5739C48.3966 81.4606 52.3963 82.223 54.1766 85.2308C55.899 88.1256 54.8352 91.8868 51.8514 93.4611C46.586 96.2461 39.3931 100.04 39.0461 100.184" stroke="#111111" stroke-width="1.2" stroke-linejoin="round"/>
<path d="M94.8193 95.7011L80.883 96.0343C77.3879 96.1195 74.737 99.21 75.2213 102.671C75.6805 106.008 78.8578 108.285 82.172 107.655C88.0248 106.548 96.0133 105.027 96.3746 104.923" fill="#4252E2"/>
<path d="M94.8193 95.7011L80.883 96.0343C77.3879 96.1195 74.737 99.21 75.2213 102.671C75.6805 106.008 78.8578 108.285 82.172 107.655C88.0248 106.548 96.0133 105.027 96.3746 104.923" stroke="#111111" stroke-width="1.2" stroke-linejoin="round"/>
</svg>
